<?xml version="1.0" encoding="utf-8"?>
<svg viewBox="0 0 1877 997" xmlns="http://www.w3.org/2000/svg">
  <g transform="matrix(1, 0, 0, 1, -20.974527, 0)">
    <g transform="matrix(0.096995, 0, 0, -0.097356, 52.43309, 995.465759)" fill="#000000" stroke="none" style="">
      <path d="M3047 9934 c-213 -51 -363 -222 -387 -439 -11 -101 -12 -7132 -1 -8000 6 -455 9 -525 23 -558 l17 -37 2520 0 2521 0 0 -40 0 -40 -3212 1 c-1767 1 -3206 3 -3197 6 9 2 19 15 22 29 6 34 -25 46 -118 48 l-70 1 -3 -42 c-4 -49 7 -56 121 -92 303 -93 946 -159 1777 -181 494 -13 12011 -13 12499 0 879 24 1563 99 1836 201 l55 20 0 50 0 49 -57 -1 c-105 -1 -166 -40 -117 -76 15 -11 -536 -13 -3194 -13 l-3212 0 0 40 0 40 2526 2 2527 3 16 40 c15 36 16 421 19 4295 1 2961 -1 4271 -8 4306 -39 190 -198 349 -387 389 -101 22 -12428 21 -12516 -1z m12524 -110 c108 -32 199 -110 248 -213 l26 -56 3 -4137 2 -4138 -6545 0 -6545 0 2 4128 3 4127 34 72 c52 110 153 197 258 222 22 5 2674 9 6249 10 5646 1 6215 0 6265 -15z m-5018 -8931 c-29 -4 -31 -7 -35 -49 -3 -43 -2 -44 27 -46 16 -1 -4 -4 -45 -8 -98 -9 -2124 -10 -2350 -1 -137 6 -155 8 -85 10 50 2 82 5 73 8 -13 3 -18 14 -18 38 0 37 -8 41 -110 48 -25 2 545 4 1265 4 721 0 1296 -2 1278 -4z"/>
    </g>
    <g transform="matrix(0.02606, 0, 0, -0.022657, 1018.396118, 796.321289)" fill="#000000" stroke="none" style="">
      <g transform="matrix(1.347672, 0, 0, 1.417695, -28900.34375, -3729.364502)" fill="#000000" stroke="none">
        <path d="M19590 20549 c-261 -93 -608 -216 -770 -273 -162 -58 -545 -193 -850 -301 -660 -234 -770 -273 -1130 -400 -151 -53 -279 -100 -284 -105 -5 -5 642 -913 1480 -2079 818 -1139 1491 -2068 1495 -2064 8 10 74 136 329 631 162 314 216 412 230 412 10 0 20 -6 22 -13 2 -7 122 -243 268 -525 249 -482 265 -511 281 -495 12 14 2841 3948 2948 4100 l22 33 -23 8 c-123 45 -689 242 -709 247 -19 5 -28 2 -32 -9 -15 -38 -97 -6 -97 38 0 22 13 17 -490 194 -234 83 -713 253 -1065 377 -1152 408 -1114 395 -1134 394 -9 -1 -230 -77 -491 -170z m1600 -389 c7 -17 10 -44 6 -65 l-7 -35 -63 0 c-69 0 -76 5 -76 61 0 55 15 69 74 69 50 0 54 -2 66 -30z m-2190 -1000 c42 -42 11 -98 -50 -90 -41 5 -53 70 -18 94 30 21 44 20 68 -4z m1613 -152 c17 -23 19 -32 9 -52 -6 -14 -23 -28 -37 -32 -56 -14 -90 67 -42 101 29 20 45 16 70 -17z m-1156 -1314 c15 -24 15 -29 2 -53 -29 -52 -99 -35 -99 24 0 57 65 77 97 29z m2111 -46 c13 -13 16 -75 6 -102 -5 -12 -20 -16 -63 -16 -52 0 -59 2 -69 25 -16 35 -15 56 4 83 12 17 25 22 63 22 26 0 52 -5 59 -12z"/>
        <path d="M16526 19364 c-3 -33 -20 -257 -36 -499 -17 -242 -32 -469 -35 -505 -2 -36 -7 -101 -10 -145 -3 -44 -8 -107 -10 -140 -8 -114 -15 -210 -20 -290 -6 -85 -22 -314 -30 -430 -6 -79 -43 -611 -50 -725 -3 -41 -12 -167 -20 -280 -8 -113 -24 -342 -35 -510 -12 -168 -27 -395 -35 -504 -8 -110 -12 -202 -10 -205 5 -5 124 -2 200 4 28 3 190 12 360 20 171 8 344 17 385 20 129 8 255 15 565 30 165 8 332 17 370 20 39 3 167 9 285 15 118 6 251 12 295 15 44 3 239 14 434 25 194 10 356 21 359 24 5 6 18 -11 -1701 2381 -676 941 -1235 1716 -1242 1724 -11 11 -14 3 -19 -45z m1365 -3004 c13 -7 19 -21 19 -43 0 -40 -15 -57 -50 -57 -35 0 -50 17 -50 57 0 45 38 66 81 43z"/>
        <path d="M23554 19308 c-73 -103 -2041 -2841 -2627 -3657 -136 -189 -246 -345 -244 -348 4 -3 635 -40 1087 -63 191 -9 257 -13 465 -25 44 -3 177 -9 295 -15 118 -5 253 -12 300 -15 172 -11 228 -14 355 -20 72 -3 202 -10 290 -15 88 -5 229 -13 313 -16 l152 -7 0 40 c0 22 -3 74 -6 116 -7 76 -7 77 -35 77 -33 0 -49 24 -49 72 1 41 20 68 49 68 20 0 21 4 16 53 -3 28 -17 221 -30 427 -14 206 -27 402 -30 435 -3 33 -21 290 -40 570 -19 281 -37 539 -40 575 -2 36 -20 295 -40 575 -19 281 -36 535 -39 565 -2 30 -15 205 -27 388 -13 182 -25 332 -29 332 -3 0 -42 -51 -86 -112z m-624 -1748 c11 -11 20 -29 20 -40 0 -24 -34 -60 -57 -60 -45 0 -71 71 -37 104 21 22 50 20 74 -4z m-836 -1856 c9 -9 16 -32 16 -54 0 -51 -21 -70 -75 -70 -54 0 -75 19 -75 70 0 51 21 70 75 70 26 0 50 -6 59 -16z m234 -296 c15 -13 16 -90 0 -106 -7 -7 -35 -12 -63 -12 -46 0 -53 3 -63 25 -7 14 -12 32 -12 40 0 28 23 64 44 68 27 6 78 -3 94 -15z"/>
        <path d="M16471 19339 c-10 -24 -184 -406 -386 -849 -202 -443 -434 -951 -515 -1130 -81 -179 -254 -559 -384 -844 -131 -287 -233 -523 -228 -528 17 -17 1237 -846 1240 -843 2 2 9 83 17 182 12 164 9 224 -9 194 -4 -6 -32 -11 -61 -11 -43 0 -56 4 -65 19 -13 25 -13 67 0 91 21 38 125 36 139 -4 15 -38 13 -61 76 864 19 278 37 537 40 575 3 39 14 201 25 360 11 160 22 319 25 355 3 36 23 331 45 655 23 325 47 671 54 770 7 99 11 182 10 184 -2 2 -12 -16 -23 -40z m-395 -2344 c17 -26 13 -67 -8 -92 -16 -20 -98 -16 -114 5 -17 21 -18 84 -2 100 7 7 33 12 60 12 40 0 50 -4 64 -25z m-536 -394 c11 -22 13 -71 4 -95 -5 -12 -21 -16 -65 -16 -64 0 -79 13 -79 65 0 51 16 65 75 65 43 0 56 -4 65 -19z"/>
        <path d="M23681 19369 c-1 -15 53 -812 63 -949 3 -36 10 -132 16 -215 10 -159 14 -208 30 -430 5 -77 17 -239 25 -360 16 -238 32 -468 40 -580 11 -142 84 -1222 87 -1269 1 -40 7 -54 30 -74 35 -32 39 -91 7 -123 -19 -19 -20 -27 -13 -125 4 -57 8 -104 9 -104 9 0 1250 853 1248 858 -1 4 -37 86 -81 182 -337 741 -1377 3023 -1438 3155 -13 28 -23 43 -23 34z"/>
        <path d="M19992 16148 c-337 -651 -432 -837 -431 -845 1 -4 -1 -16 -6 -26 -4 -9 0 -68 9 -130 8 -61 49 -357 91 -657 41 -300 84 -606 95 -680 10 -74 38 -268 60 -430 69 -498 155 -1115 241 -1727 18 -128 35 -231 37 -228 5 5 18 91 152 1060 45 319 108 771 140 1005 246 1766 249 1785 236 1795 -7 6 -11 15 -9 22 2 6 -50 116 -116 245 -67 128 -183 353 -259 500 -75 147 -140 268 -144 268 -3 0 -47 -78 -96 -172z"/>
        <path d="M14947 15923 c2 -16 17 -233 33 -483 16 -250 32 -486 35 -525 3 -38 21 -304 40 -590 19 -286 37 -554 40 -595 3 -41 14 -208 25 -370 10 -162 22 -326 24 -365 3 -38 15 -212 27 -385 11 -173 22 -316 24 -318 1 -1 331 226 732 505 580 404 728 511 721 523 -8 14 -86 328 -343 1364 -53 214 -100 397 -105 406 -5 10 -263 190 -572 401 -310 210 -587 400 -617 421 -30 21 -57 38 -61 38 -4 0 -5 -12 -3 -27z m561 -839 c12 -8 22 -26 22 -40 0 -26 -32 -64 -53 -64 -22 0 -57 39 -57 65 0 23 32 55 55 55 6 0 21 -7 33 -16z m506 -910 c17 -17 21 -80 7 -103 -5 -8 -28 -13 -61 -13 -59 0 -70 9 -70 60 0 55 15 72 65 72 26 0 50 -6 59 -16z m-714 -313 c13 -24 13 -81 0 -101 -6 -10 -26 -15 -65 -15 -63 0 -75 10 -75 63 0 59 14 72 75 72 43 0 56 -4 65 -19z"/>
        <path d="M24915 15743 c-165 -113 -445 -304 -621 -425 -300 -204 -323 -222 -331 -256 -6 -20 -113 -421 -238 -890 -125 -469 -226 -854 -224 -856 2 -2 294 -205 649 -451 355 -247 686 -477 735 -512 l90 -63 7 37 c4 21 24 283 43 583 20 300 38 572 41 605 2 33 11 161 19 285 30 454 46 687 50 750 3 36 12 169 20 295 8 127 17 262 20 300 3 39 12 171 20 295 8 124 17 261 20 305 3 44 8 108 11 143 3 34 2 62 -3 61 -4 0 -143 -93 -308 -206z m-181 -656 c26 -19 24 -67 -4 -89 -28 -23 -43 -23 -63 0 -25 28 -26 62 -1 86 19 19 44 20 68 3z m166 -1376 c16 -30 12 -87 -7 -102 -25 -22 -102 -18 -119 5 -17 24 -18 56 -2 91 10 22 17 25 64 25 42 0 55 -4 64 -19z m-1071 -15 c22 -26 9 -69 -22 -80 -49 -17 -90 23 -69 68 9 21 19 26 46 26 18 0 39 -6 45 -14z"/>
        <path d="M19380 15263 c-51 -3 -2419 -129 -2917 -155 -181 -9 -223 -14 -223 -26 0 -13 430 -1754 435 -1760 1 -1 99 64 216 146 118 82 644 448 1169 813 525 366 1055 735 1177 820 207 143 243 172 211 167 -7 -1 -38 -3 -68 -5z m-1685 -723 c47 -52 -12 -131 -67 -87 -27 21 -30 52 -7 80 24 32 49 34 74 7z"/>
        <path d="M20738 15243 c18 -14 421 -296 895 -626 474 -330 1080 -752 1347 -938 308 -214 487 -333 491 -326 17 31 468 1732 461 1738 -4 4 -110 12 -237 18 -126 6 -266 14 -310 17 -94 5 -2296 121 -2465 129 -63 3 -137 8 -165 10 l-50 5 33 -27z"/>
        <path d="M18945 14861 c-490 -342 -3021 -2104 -3512 -2445 -112 -78 -203 -143 -203 -146 0 -5 62 -16 890 -145 300 -47 586 -92 635 -100 50 -8 365 -58 700 -110 336 -53 738 -116 895 -141 157 -24 331 -52 388 -61 56 -8 105 -14 107 -11 4 4 99 511 381 2028 25 135 54 290 64 345 11 55 40 210 64 345 116 629 147 796 151 808 2 6 -1 12 -8 11 -7 0 -255 -170 -552 -378z m-1557 -1887 c42 -29 18 -104 -34 -104 -25 0 -54 34 -54 62 0 21 34 58 53 58 7 0 23 -7 35 -16z"/>
        <path d="M20673 15218 c3 -12 14 -68 23 -125 14 -85 23 -111 46 -141 22 -28 28 -43 23 -62 -16 -64 -14 -97 19 -275 73 -388 188 -1007 291 -1565 58 -316 121 -656 140 -755 18 -99 50 -270 70 -380 21 -110 41 -204 45 -208 4 -5 81 3 171 17 132 20 1253 196 2839 446 527 83 600 95 600 101 0 7 38 -19 -880 619 -437 305 -1254 873 -1815 1263 -1476 1028 -1562 1087 -1570 1087 -4 0 -5 -10 -2 -22z m497 -1527 c22 -43 -1 -81 -49 -81 -34 0 -51 17 -51 50 0 35 17 50 57 50 22 0 36 -6 43 -19z m1131 -961 c30 -17 26 -74 -6 -88 -14 -7 -30 -12 -35 -12 -15 0 -50 38 -50 55 0 20 36 55 56 55 8 0 24 -5 35 -10z"/>
        <path d="M19520 15163 c0 -10 -149 -816 -259 -1408 -22 -115 -60 -320 -85 -455 -25 -135 -77 -414 -115 -620 -134 -717 -181 -983 -176 -988 6 -6 10 -8 515 -172 628 -204 645 -210 658 -210 8 0 10 9 7 23 -2 12 -9 58 -15 102 -21 158 -48 349 -275 1980 -196 1409 -244 1747 -249 1752 -3 4 -6 1 -6 -4z"/>
        <path d="M20631 15073 c-7 -49 -23 -164 -36 -258 -24 -164 -49 -343 -225 -1610 -44 -319 -107 -771 -140 -1005 -108 -772 -122 -881 -116 -887 5 -6 99 24 819 259 310 101 367 122 363 136 -3 9 -21 105 -41 212 -20 107 -51 276 -70 375 -19 99 -64 342 -100 540 -36 198 -79 430 -95 515 -35 184 -174 935 -230 1240 -47 254 -46 250 -70 250 -40 0 -53 70 -20 105 19 20 19 22 2 112 -10 51 -20 94 -23 97 -3 4 -11 -33 -18 -81z"/>
        <path d="M15230 12225 c0 -4 401 -500 1241 -1535 190 -234 429 -528 531 -655 103 -126 201 -246 217 -265 l31 -35 39 45 c33 39 212 257 1046 1279 430 529 493 606 491 608 -2 3 -611 99 -1436 229 -124 19 -351 55 -505 79 -1631 257 -1655 261 -1655 250z m2026 -1876 c29 -56 -2 -109 -63 -109 -46 0 -73 24 -73 64 0 52 24 76 75 76 40 0 46 -3 61 -31z"/>
        <path d="M24870 12223 c-14 -2 -140 -22 -280 -44 -469 -74 -1160 -182 -1550 -243 -157 -25 -402 -63 -545 -85 -143 -23 -303 -48 -355 -57 -52 -8 -250 -39 -439 -69 -189 -30 -345 -56 -348 -58 -4 -5 115 -153 1057 -1305 267 -327 492 -602 500 -613 17 -21 -95 -155 1304 1571 368 454 685 844 704 868 l34 42 -28 -1 c-16 -1 -40 -4 -54 -6z m-749 -564 c17 -17 20 -29 16 -56 -9 -51 -23 -63 -78 -63 -54 0 -79 23 -79 72 0 63 94 94 141 47z m-1517 -401 c39 -56 5 -118 -64 -118 -69 0 -103 62 -64 118 12 18 25 22 64 22 39 0 52 -4 64 -22z"/>
        <path d="M15253 12125 c3 -11 30 -78 60 -150 30 -71 120 -287 200 -480 80 -192 270 -649 422 -1015 152 -366 282 -676 288 -690 8 -16 21 -25 37 -26 74 -2 78 -4 88 -33 17 -49 -3 -101 -40 -101 -11 0 -18 -4 -16 -9 51 -135 835 -2001 841 -2001 4 0 7 28 7 63 0 63 65 1434 75 1582 2 44 7 161 10 260 l5 180 -73 90 c-365 452 -1892 2332 -1899 2340 -7 7 -9 4 -5 -10z"/>
        <path d="M24841 12043 c-803 -986 -1887 -2327 -1893 -2344 -6 -16 87 -2058 95 -2082 1 -4 23 43 49 105 26 62 166 399 311 748 146 349 398 957 562 1350 163 393 436 1048 605 1455 356 856 360 865 355 865 -2 0 -40 -44 -84 -97z"/>
        <path d="M18694 11452 c-88 -108 -351 -431 -584 -717 -233 -286 -513 -629 -622 -762 -134 -165 -192 -243 -180 -244 9 0 630 64 1380 143 900 94 1362 147 1360 154 -4 13 -1181 1623 -1188 1623 -3 0 -77 -88 -166 -197z m218 -1159 c24 -22 24 -77 -2 -103 -20 -20 -83 -27 -107 -12 -31 20 -37 86 -11 120 15 18 98 15 120 -5z"/>
        <path d="M18910 11643 c0 -3 228 -316 507 -697 278 -380 536 -732 572 -783 36 -51 69 -92 74 -92 4 -1 7 268 7 598 l0 599 -27 10 c-16 6 -203 68 -418 137 -214 70 -463 150 -552 180 -90 29 -163 51 -163 48z"/>
        <path d="M21035 11574 c-121 -40 -381 -125 -577 -189 l-358 -116 0 -607 c0 -519 2 -604 14 -592 31 33 1147 1563 1144 1569 -2 4 -102 -26 -223 -65z"/>
        <path d="M20719 10840 c-327 -446 -593 -814 -592 -818 1 -4 33 -10 70 -14 38 -4 646 -68 1353 -143 707 -75 1295 -134 1308 -133 19 3 8 20 -96 148 -449 553 -1417 1738 -1432 1753 -16 18 -42 -15 -611 -793z m340 -423 c17 -51 -1 -93 -44 -101 -67 -13 -105 12 -105 68 0 51 19 66 82 66 55 0 57 -1 67 -33z"/>
        <path d="M19745 9954 c-170 -18 -375 -40 -455 -48 -548 -58 -1775 -188 -1870 -199 l-115 -13 70 -41 c81 -47 1060 -605 2005 -1143 360 -205 667 -379 681 -387 29 -17 -171 -129 2029 1125 371 212 696 396 722 411 26 14 48 29 48 32 0 6 -44 11 -405 49 -104 11 -255 27 -335 35 -402 43 -632 67 -805 85 -104 11 -253 27 -330 35 -880 93 -864 92 -892 77 -19 -11 -23 -10 -23 3 0 8 -3 15 -7 14 -5 -1 -147 -16 -318 -35z m-1040 -205 c14 -14 12 -84 -4 -103 -16 -19 -111 -22 -129 -4 -13 13 -16 86 -4 104 4 7 16 14 27 17 27 7 98 -2 110 -14z m883 -561 c7 -7 12 -24 12 -38 0 -35 -17 -50 -57 -50 -26 0 -36 6 -45 25 -18 40 3 75 45 75 18 0 38 -5 45 -12z"/>
        <path d="M17260 9624 c0 -37 -88 -1872 -95 -1985 l-6 -97 163 -89 c90 -50 285 -157 433 -238 149 -81 333 -183 410 -225 656 -362 1847 -1011 1850 -1008 2 1 -346 469 -773 1039 -427 570 -1045 1394 -1372 1832 -327 438 -598 796 -602 797 -5 0 -8 -12 -8 -26z m114 -1036 c21 -29 20 -57 -1 -80 -20 -22 -61 -23 -85 -1 -38 34 -10 103 42 103 18 0 34 -8 44 -22z m664 -700 c16 -16 15 -69 -2 -90 -7 -10 -26 -18 -41 -18 -15 0 -34 8 -41 18 -18 23 -17 67 2 86 18 19 65 21 82 4z"/>
        <path d="M21532 7820 c-755 -1008 -1371 -1834 -1369 -1836 3 -3 503 270 2473 1350 182 99 341 188 354 197 l23 15 -47 1005 c-26 552 -50 1026 -54 1053 l-7 49 -1373 -1833z m792 -103 c8 -33 -19 -67 -54 -67 -70 0 -81 74 -16 108 25 12 61 -9 70 -41z"/>
        <path d="M17402 9529 c46 -63 665 -888 1374 -1834 l1289 -1719 3 1049 c2 831 -1 1052 -10 1061 -7 6 -195 115 -418 241 -223 127 -632 360 -910 518 -942 537 -1383 787 -1398 793 -8 3 23 -46 70 -109z"/>
        <path d="M22230 9293 c-333 -190 -948 -541 -1367 -780 l-763 -434 0 -1050 c0 -577 3 -1049 8 -1049 6 1 2733 3633 2740 3652 2 4 0 8 -5 7 -4 0 -280 -156 -613 -346z"/>
        <path d="M27757 18932 c-39 -43 -26 -174 19 -180 38 -5 54 23 54 97 0 53 -4 72 -18 84 -24 22 -35 21 -55 -1z"/>
        <path d="M28136 18928 c-10 -14 -16 -43 -16 -78 0 -65 21 -103 53 -98 28 4 47 43 47 98 0 84 -49 129 -84 78z"/>
        <path d="M28330 18935 c-19 -23 -24 -124 -8 -155 18 -33 52 -37 72 -8 19 27 21 112 3 148 -15 30 -49 37 -67 15z"/>
        <path d="M28714 18915 c-28 -68 -11 -157 33 -163 32 -5 53 33 53 98 0 95 -55 137 -86 65z"/>
        <path d="M28917 18932 c-39 -43 -26 -174 19 -180 38 -5 54 23 54 97 0 53 -4 72 -18 84 -24 22 -35 21 -55 -1z"/>
        <path d="M29106 18928 c-24 -34 -22 -140 3 -162 29 -27 54 -16 69 29 32 95 -26 200 -72 133z"/>
        <path d="M29296 18928 c-10 -14 -16 -43 -16 -78 0 -65 21 -103 53 -98 28 4 47 43 47 98 0 84 -49 129 -84 78z"/>
        <path d="M28331 18384 c-47 -60 -14 -200 43 -178 47 18 48 165 2 196 -17 12 -23 10 -45 -18z"/>
        <path d="M28524 18389 c-28 -31 -27 -140 2 -169 42 -42 74 0 74 96 0 41 -5 59 -20 74 -25 25 -32 25 -56 -1z"/>
        <path d="M28724 18389 c-28 -31 -27 -140 2 -169 42 -42 74 0 74 96 0 41 -5 59 -20 74 -25 25 -32 25 -56 -1z"/>
        <path d="M28916 18388 c-35 -53 -29 -149 11 -175 19 -13 24 -12 42 6 30 30 30 142 1 171 -26 26 -36 25 -54 -2z"/>
        <path d="M29314 18402 c-21 -14 -34 -51 -34 -96 0 -86 34 -126 74 -86 29 29 30 138 2 169 -21 23 -25 24 -42 13z"/>
        <path d="M29491 18384 c-47 -60 -14 -200 43 -178 47 18 48 165 2 196 -17 12 -23 10 -45 -18z"/>
        <path d="M29876 18388 c-35 -53 -29 -149 11 -175 19 -13 24 -12 42 6 30 30 30 142 1 171 -26 26 -36 25 -54 -2z"/>
        <path d="M30274 18402 c-21 -14 -34 -51 -34 -96 0 -86 34 -126 74 -86 29 29 30 138 2 169 -21 23 -25 24 -42 13z"/>
        <path d="M30651 18384 c-47 -60 -14 -200 43 -178 47 18 48 165 2 196 -17 12 -23 10 -45 -18z"/>
        <path d="M30844 18389 c-28 -31 -27 -140 2 -169 42 -42 74 0 74 96 0 41 -5 59 -20 74 -25 25 -32 25 -56 -1z"/>
        <path d="M31036 18388 c-35 -53 -29 -149 11 -175 19 -13 24 -12 42 6 30 30 30 142 1 171 -26 26 -36 25 -54 -2z"/>
        <path d="M27946 17838 c-24 -34 -22 -140 3 -162 30 -27 59 -12 72 36 26 98 -30 191 -75 126z"/>
        <path d="M28329 17844 c-7 -9 -14 -41 -16 -72 -5 -69 12 -107 47 -107 32 0 50 35 50 100 0 78 -45 122 -81 79z"/>
        <path d="M28515 17830 c-44 -85 14 -216 67 -150 23 29 25 126 2 158 -21 31 -50 28 -69 -8z"/>
        <path d="M28715 17830 c-44 -85 14 -216 67 -150 23 29 25 126 2 158 -21 31 -50 28 -69 -8z"/>
        <path d="M29107 17842 c-26 -28 -24 -143 2 -166 59 -53 106 79 60 166 -12 23 -41 23 -62 0z"/>
        <path d="M29489 17844 c-7 -9 -14 -41 -16 -72 -5 -69 12 -107 47 -107 32 0 50 35 50 100 0 78 -45 122 -81 79z"/>
        <path d="M29871 17842 c-31 -57 -19 -165 20 -177 38 -12 59 20 59 92 0 35 -5 73 -10 84 -13 24 -56 25 -69 1z"/>
        <path d="M30840 17845 c-19 -23 -25 -110 -10 -145 17 -40 48 -49 72 -20 23 29 25 126 2 158 -18 26 -46 29 -64 7z"/>
        <path d="M31226 17838 c-23 -32 -21 -129 2 -158 55 -68 108 74 61 162 -13 25 -45 22 -63 -4z"/>
        <path d="M31609 17844 c-7 -9 -14 -41 -16 -72 -5 -69 12 -107 47 -107 32 0 50 35 50 100 0 78 -45 122 -81 79z"/>
        <path d="M31991 17842 c-31 -57 -19 -165 20 -177 38 -12 59 20 59 92 0 35 -5 73 -10 84 -13 24 -56 25 -69 1z"/>
        <path d="M32576 17838 c-21 -30 -21 -126 0 -156 35 -51 84 -4 84 80 0 82 -49 126 -84 76z"/>
        <path d="M27757 17302 c-41 -45 -25 -174 22 -180 37 -6 51 22 51 98 0 52 -4 71 -18 83 -24 22 -35 21 -55 -1z"/>
        <path d="M28139 17304 c-21 -26 -24 -129 -5 -160 36 -53 86 -10 86 74 0 79 -46 128 -81 86z"/>
        <path d="M28525 17300 c-23 -26 -31 -115 -13 -150 18 -33 52 -37 72 -8 21 30 21 126 0 156 -19 27 -36 28 -59 2z"/>
        <path d="M28725 17300 c-23 -26 -31 -115 -13 -150 18 -33 52 -37 72 -8 21 30 21 126 0 156 -19 27 -36 28 -59 2z"/>
        <path d="M28917 17302 c-41 -45 -25 -174 22 -180 37 -6 51 22 51 98 0 52 -4 71 -18 83 -24 22 -35 21 -55 -1z"/>
        <path d="M29296 17298 c-21 -30 -21 -126 0 -156 35 -50 84 -6 84 76 0 85 -49 131 -84 80z"/>
        <path d="M29685 17300 c-23 -26 -31 -115 -13 -150 18 -33 52 -37 72 -8 21 30 21 126 0 156 -19 27 -36 28 -59 2z"/>
        <path d="M29877 17302 c-41 -45 -25 -174 22 -180 36 -5 51 22 51 93 0 89 -34 130 -73 87z"/>
        <path d="M30259 17304 c-21 -26 -24 -129 -5 -160 36 -53 86 -10 86 74 0 79 -46 128 -81 86z"/>
        <path d="M30456 17298 c-21 -30 -21 -126 0 -156 35 -50 84 -6 84 76 0 85 -49 131 -84 80z"/>
        <path d="M28330 16755 c-19 -22 -25 -110 -10 -144 32 -77 90 -34 90 67 0 75 -46 118 -80 77z"/>
        <path d="M28519 16754 c-18 -22 -23 -114 -7 -143 38 -70 88 -39 88 55 0 67 -16 104 -45 104 -13 0 -28 -7 -36 -16z"/>
        <path d="M28720 16755 c-7 -8 -15 -35 -17 -59 -11 -91 38 -156 79 -106 21 26 25 114 6 155 -13 28 -48 34 -68 10z"/>
        <path d="M28908 16748 c-20 -37 -16 -132 6 -157 24 -27 41 -27 60 1 18 26 22 129 6 159 -15 26 -56 25 -72 -3z"/>
        <path d="M29296 16748 c-29 -42 -17 -158 18 -171 38 -15 66 29 66 102 0 76 -51 117 -84 69z"/>
        <path d="M29490 16755 c-19 -22 -25 -110 -10 -144 32 -77 90 -34 90 67 0 75 -46 118 -80 77z"/>
        <path d="M29868 16748 c-20 -37 -16 -132 6 -157 24 -27 41 -27 60 1 18 26 22 129 6 159 -15 26 -56 25 -72 -3z"/>
        <path d="M30256 16748 c-29 -42 -17 -158 18 -171 38 -15 66 29 66 102 0 76 -51 117 -84 69z"/>
        <path d="M30840 16755 c-7 -8 -15 -35 -17 -59 -11 -91 38 -156 79 -106 21 26 25 114 6 155 -13 28 -48 34 -68 10z"/>
        <path d="M31220 16751 c-16 -30 -12 -133 6 -159 19 -27 36 -28 59 -2 22 24 26 123 7 158 -16 28 -57 29 -72 3z"/>
        <path d="M31416 16748 c-29 -42 -17 -158 18 -171 38 -15 66 26 66 96 0 81 -49 125 -84 75z"/>
        <path d="M31606 16748 c-30 -42 -15 -158 20 -172 37 -14 64 29 64 102 0 53 -21 92 -50 92 -10 0 -26 -10 -34 -22z"/>
        <path d="M27946 16208 c-24 -34 -22 -140 3 -162 29 -27 54 -16 69 29 32 96 -25 200 -72 133z"/>
        <path d="M28330 16215 c-19 -23 -24 -124 -8 -155 9 -16 22 -25 38 -25 31 0 50 35 50 95 0 79 -45 127 -80 85z"/>
        <path d="M28514 16195 c-28 -68 -11 -157 33 -163 32 -5 53 33 53 98 0 95 -55 137 -86 65z"/>
        <path d="M28714 16195 c-28 -68 -11 -157 33 -163 32 -5 53 33 53 98 0 95 -55 137 -86 65z"/>
        <path d="M29106 16208 c-24 -34 -22 -140 3 -162 29 -27 54 -16 69 29 32 95 -26 200 -72 133z"/>
        <path d="M29489 16214 c-18 -22 -23 -123 -7 -154 18 -33 52 -37 72 -8 21 30 21 126 0 156 -18 26 -46 29 -65 6z"/>
        <path d="M29877 16212 c-23 -26 -31 -90 -15 -137 15 -45 40 -56 69 -29 27 24 28 143 1 167 -24 22 -35 21 -55 -1z"/>
        <path d="M30834 16195 c-28 -68 -11 -157 33 -163 32 -5 53 33 53 98 0 95 -55 137 -86 65z"/>
        <path d="M31226 16208 c-24 -34 -22 -140 3 -162 29 -27 54 -16 69 29 32 96 -25 200 -72 133z"/>
        <path d="M31794 16195 c-28 -68 -11 -157 33 -163 32 -5 53 33 53 98 0 95 -55 137 -86 65z"/>
        <path d="M32197 16213 c-22 -26 -30 -84 -18 -131 13 -48 42 -63 72 -36 27 24 28 143 1 167 -24 22 -35 21 -55 0z"/>
        <path d="M32386 16208 c-24 -34 -22 -140 3 -162 29 -27 54 -16 69 29 32 95 -26 200 -72 133z"/>
        <path d="M32576 16208 c-10 -14 -16 -43 -16 -78 0 -65 21 -103 53 -98 28 4 47 43 47 98 0 84 -49 129 -84 78z"/>
        <path d="M32770 16215 c-19 -23 -24 -124 -8 -155 9 -16 22 -25 38 -25 31 0 50 35 50 95 0 79 -45 127 -80 85z"/>
        <path d="M33157 16212 c-23 -26 -31 -90 -15 -137 15 -45 40 -56 69 -29 27 24 28 143 1 167 -24 22 -35 21 -55 -1z"/>
        <path d="M33346 16208 c-21 -30 -21 -126 0 -156 25 -35 56 -25 72 23 31 95 -26 200 -72 133z"/>
        <path d="M33536 16208 c-10 -14 -16 -43 -16 -78 0 -65 21 -103 53 -98 28 4 47 43 47 98 0 84 -49 129 -84 78z"/>
        <path d="M33915 16200 c-31 -60 -12 -162 32 -168 32 -5 53 33 53 98 0 92 -52 135 -85 70z"/>
        <path d="M5934 16041 c-2 -2 -4 -139 -4 -303 l0 -298 3163 2 3162 3 3 298 c2 234 0 297 -10 297 -7 0 -1430 1 -3161 2 -1732 2 -3151 1 -3153 -1z m196 -241 l0 -180 -65 0 -65 0 0 180 0 180 65 0 65 0 0 -180z m230 0 l0 -181 -62 3 -63 3 -2 178 -3 177 65 0 65 0 0 -180z m230 0 l0 -180 -60 0 -60 0 0 180 0 180 60 0 60 0 0 -180z m240 6 l0 -174 -65 -4 -65 -3 0 178 0 177 65 0 65 0 0 -174z m230 0 l0 -174 -65 -4 -65 -3 0 178 0 177 65 0 65 0 0 -174z m230 -1 l0 -175 -65 0 -65 0 0 175 0 175 65 0 65 0 0 -175z m230 0 l0 -175 -60 0 -60 0 0 175 0 175 60 0 60 0 0 -175z m230 0 l0 -175 -60 0 -60 0 0 175 0 175 60 0 60 0 0 -175z m230 0 l0 -175 -60 0 -60 0 0 175 0 175 60 0 60 0 0 -175z m227 33 c-2 -29 -3 -8 -3 47 0 55 1 79 3 53 2 -26 2 -71 0 -100z m-89 -201 c12 -3 11 -5 -5 -6 -23 -1 -23 1 -21 112 l2 112 3 -107 c3 -91 6 -107 21 -111z m89 46 c-2 -21 -4 -6 -4 32 0 39 2 55 4 38 2 -18 2 -50 0 -70z m-9 -50 c-10 -2 -28 -2 -40 0 -13 2 -5 4 17 4 22 1 32 -1 23 -4z m1764 -90 c-5 -59 -10 -63 -11 -10 -1 26 3 47 7 47 4 0 6 -17 4 -37z m338 -7 l0 -44 -60 -4 -60 -3 0 48 0 47 60 0 60 0 0 -44z m230 -3 l0 -48 -60 0 -60 0 0 48 0 47 60 0 60 0 0 -47z m238 0 l-3 -47 -60 1 -60 0 -3 47 -3 46 66 0 66 0 -3 -47z m232 -3 l0 -51 -61 3 -62 3 -1 48 -1 47 63 0 62 0 0 -50z m230 0 l0 -50 -60 0 -60 0 0 50 0 50 60 0 60 0 0 -50z m230 0 l0 -50 -60 0 -60 0 0 50 0 50 60 0 60 0 0 -50z m238 3 l-3 -48 -62 -3 -63 -3 0 51 0 50 66 0 65 0 -3 -47z m232 -3 l0 -50 -65 0 -65 0 0 50 0 50 65 0 65 0 0 -50z m230 0 l0 -50 -65 0 -65 0 0 50 0 50 65 0 65 0 0 -50z m-2093 -7 c-3 -10 -5 -4 -5 12 0 17 2 24 5 18 2 -7 2 -21 0 -30z"/>
        <path d="M7870 15805 l0 -165 50 0 50 0 0 165 0 165 -50 0 -50 0 0 -165z"/>
        <path d="M10192 15535 l-3 -35 51 0 51 0 -3 35 c-2 35 -3 35 -48 35 -45 0 -46 0 -48 -35z"/>
        <path d="M27757 15672 c-21 -22 -31 -96 -19 -136 4 -16 18 -36 29 -43 19 -13 24 -12 42 6 17 17 21 34 21 84 0 91 -34 132 -73 89z"/>
        <path d="M28146 15674 c-22 -22 -29 -57 -24 -116 6 -59 28 -84 60 -67 27 15 40 57 35 112 -4 43 -28 87 -48 87 -4 0 -15 -7 -23 -16z"/>
        <path d="M28524 15669 c-15 -16 -19 -36 -19 -86 0 -56 3 -67 23 -83 44 -36 72 1 72 96 0 41 -5 59 -20 74 -25 25 -32 25 -56 -1z"/>
        <path d="M28724 15669 c-15 -16 -19 -36 -19 -86 0 -56 3 -67 23 -83 44 -36 72 1 72 96 0 41 -5 59 -20 74 -25 25 -32 25 -56 -1z"/>
        <path d="M28916 15668 c-34 -53 -28 -149 11 -175 19 -13 24 -12 42 6 17 17 21 34 21 84 0 92 -40 138 -74 85z"/>
        <path d="M29306 15674 c-22 -22 -29 -57 -24 -116 6 -59 28 -84 60 -67 27 15 40 57 35 112 -4 43 -28 87 -48 87 -4 0 -15 -7 -23 -16z"/>
        <path d="M29684 15669 c-15 -16 -19 -36 -19 -86 0 -56 3 -67 23 -83 44 -36 72 1 72 96 0 41 -5 59 -20 74 -25 25 -32 25 -56 -1z"/>
        <path d="M30070 15670 c-29 -29 -29 -141 1 -171 18 -18 23 -19 42 -6 40 26 46 139 10 180 -20 22 -28 22 -53 -3z"/>
        <path d="M30651 15664 c-47 -60 -14 -200 43 -178 47 18 48 165 2 196 -17 12 -23 10 -45 -18z"/>
        <path d="M27940 15111 c-16 -30 -12 -133 6 -159 19 -27 36 -28 59 -2 23 25 27 139 6 164 -18 22 -58 20 -71 -3z"/>
        <path d="M28326 15108 c-30 -42 -15 -158 20 -172 37 -14 64 29 64 102 0 53 -21 92 -50 92 -10 0 -26 -10 -34 -22z"/>
        <path d="M28719 15113 c-22 -26 -18 -136 5 -162 24 -26 31 -26 56 -1 22 22 28 108 10 154 -11 30 -50 35 -71 9z"/>
        <path d="M28908 15108 c-20 -37 -16 -132 6 -157 24 -27 41 -27 60 1 18 26 22 129 6 159 -15 26 -56 25 -72 -3z"/>
        <path d="M5550 14417 c-132 -37 -219 -146 -228 -283 -9 -136 54 -246 172 -304 127 -63 271 -38 370 65 121 124 113 339 -17 451 -83 70 -200 98 -297 71z m-24 -284 c0 -18 3 -36 7 -39 20 -20 -10 -64 -43 -64 -26 0 -53 29 -44 49 4 9 6 29 5 44 -2 40 6 49 42 45 29 -3 32 -7 33 -35z m122 21 c44 -30 23 -114 -29 -114 -23 0 -32 6 -40 27 -12 33 -3 80 19 93 23 13 24 12 50 -6z m107 -19 c0 -22 -31 -33 -47 -17 -17 17 -1 44 24 40 15 -2 23 -10 23 -23z m24 -32 c-37 -66 -46 -79 -54 -71 -9 9 59 128 73 128 9 0 3 -20 -19 -57z m48 -29 c8 -21 -19 -46 -40 -38 -17 6 -23 35 -10 47 12 13 44 7 50 -9z"/>
        <path d="M5474 14139 c-10 -17 13 -36 27 -22 12 12 4 33 -11 33 -5 0 -12 -5 -16 -11z"/>
        <path d="M5472 14073 c2 -10 10 -18 18 -18 8 0 16 8 18 18 2 12 -3 17 -18 17 -15 0 -20 -5 -18 -17z"/>
        <path d="M5604 14126 c-10 -25 0 -61 18 -64 19 -4 32 29 23 58 -7 23 -33 27 -41 6z"/>
        <path d="M5720 14135 c0 -8 5 -15 10 -15 6 0 10 7 10 15 0 8 -4 15 -10 15 -5 0 -10 -7 -10 -15z"/>
        <path d="M5790 14060 c0 -5 5 -10 10 -10 6 0 10 5 10 10 0 6 -4 10 -10 10 -5 0 -10 -4 -10 -10z"/>
        <path d="M10350 12620 c-30 -11 -79 -20 -109 -20 -50 0 -57 -3 -102 -45 -42 -39 -54 -45 -92 -45 -31 0 -49 -6 -62 -20 -13 -14 -31 -20 -60 -20 -38 0 -75 -21 -75 -43 0 -14 66 -47 93 -47 15 0 27 -4 27 -10 0 -19 -65 -10 -105 15 -73 45 -129 26 -161 -54 -10 -25 -28 -45 -53 -59 -38 -22 -56 -44 -44 -56 14 -13 59 -5 100 20 24 14 54 24 65 22 17 -2 8 -11 -40 -35 -50 -26 -74 -33 -121 -33 -67 0 -113 -27 -173 -101 -54 -67 -61 -86 -68 -185 -8 -93 -29 -158 -57 -168 -26 -10 -28 3 -4 28 22 24 52 148 39 162 -14 13 -76 -37 -91 -74 -8 -20 -27 -48 -41 -61 -19 -18 -26 -34 -26 -62 0 -21 -3 -44 -6 -53 -10 -25 -26 -19 -18 7 l6 22 -25 -23 c-16 -15 -36 -58 -55 -115 -43 -131 -48 -163 -26 -175 17 -9 16 -12 -8 -49 -23 -33 -27 -52 -33 -153 -6 -108 -5 -118 15 -143 12 -14 20 -34 18 -44 -5 -30 30 -26 83 8 48 31 53 32 129 26 l78 -5 -10 30 c-6 16 -8 49 -6 73 4 32 0 51 -13 72 -24 36 -24 99 0 160 28 73 34 126 21 202 -13 80 -8 96 46 143 26 23 32 35 28 56 -3 15 -1 56 5 91 13 78 36 105 130 155 36 19 77 46 90 60 25 26 41 33 41 17 0 -17 -56 -64 -105 -88 -67 -34 -115 -70 -124 -96 -5 -12 -11 -43 -15 -69 l-7 -48 31 31 c27 28 36 31 69 25 24 -3 56 0 85 10 54 19 83 14 124 -21 17 -14 38 -25 48 -25 25 1 113 80 97 86 -33 14 -80 53 -100 83 -25 36 -30 92 -13 135 11 29 137 158 144 148 8 -13 -19 -51 -53 -76 -102 -76 -108 -177 -14 -241 45 -30 50 -31 58 -4 8 25 62 59 93 59 22 0 23 3 15 33 -4 17 -8 60 -8 94 0 51 4 66 22 85 27 27 43 16 18 -12 -27 -30 -31 -116 -8 -160 19 -37 21 -37 99 -25 31 5 31 6 36 74 3 37 12 82 21 99 l15 32 -60 40 c-53 35 -67 40 -119 40 -63 0 -79 13 -29 24 54 10 130 -14 177 -56 31 -29 57 -17 49 23 -4 22 -2 29 7 26 19 -6 12 -67 -16 -132 -15 -33 -27 -79 -27 -102 0 -37 3 -43 20 -43 12 0 37 -8 58 -19 20 -10 74 -29 119 -41 104 -28 167 -71 248 -170 l62 -75 69 3 c71 3 114 21 114 47 0 8 5 15 10 15 17 0 11 -36 -10 -55 -11 -10 -46 -22 -77 -26 -70 -10 -111 -45 -119 -104 -3 -22 -10 -53 -16 -68 -13 -33 -45 -54 -60 -39 -7 7 -3 12 9 16 23 8 43 46 43 84 0 15 9 45 21 66 20 38 20 38 1 52 -11 8 -43 43 -72 78 -67 85 -149 140 -241 161 -39 8 -89 25 -111 36 -38 20 -42 20 -81 4 -23 -9 -76 -19 -117 -22 -90 -7 -128 -24 -136 -61 -12 -57 -17 -63 -52 -86 -64 -40 -68 -49 -43 -105 11 -28 21 -70 21 -95 0 -35 4 -48 20 -56 27 -14 55 -5 80 27 23 29 35 26 25 -7 -9 -28 -65 -55 -99 -46 -32 8 -46 34 -51 94 -4 51 -40 142 -56 142 -6 0 -28 14 -50 32 l-39 31 -59 -18 c-34 -10 -70 -15 -85 -11 -37 9 -65 -9 -85 -57 -10 -23 -38 -61 -61 -85 -40 -40 -42 -45 -34 -80 16 -67 9 -182 -15 -240 -31 -78 -28 -117 12 -157 19 -19 52 -38 78 -45 24 -7 66 -23 93 -36 27 -14 59 -24 70 -22 19 3 21 9 18 53 -3 41 1 57 22 88 l26 38 -30 87 c-17 48 -42 104 -55 124 -28 41 -30 48 -15 48 17 0 60 -74 80 -137 10 -34 26 -75 34 -91 21 -40 77 -88 122 -102 88 -29 229 15 303 95 l38 41 6 119 c5 114 5 120 -19 154 -13 20 -24 46 -24 59 0 62 -60 111 -120 98 -17 -3 -30 -1 -30 4 0 17 51 23 91 11 44 -13 79 -58 79 -101 0 -14 11 -42 25 -62 23 -34 24 -42 20 -140 -3 -56 -5 -113 -5 -126 0 -34 -76 -110 -144 -144 -64 -32 -147 -46 -210 -34 -19 4 -58 22 -85 41 l-50 33 -21 -33 c-25 -40 -25 -44 2 -119 15 -41 37 -75 67 -104 46 -45 50 -66 6 -38 -30 20 -85 93 -85 114 0 10 -5 12 -17 7 -27 -12 -60 -7 -101 14 -34 18 -153 61 -167 61 -3 0 -5 -20 -5 -43 0 -32 8 -56 30 -88 35 -52 45 -94 31 -132 -13 -33 -36 -38 -24 -4 12 36 7 77 -13 98 -14 14 -40 21 -96 25 -74 7 -78 6 -124 -25 -26 -17 -60 -31 -76 -31 -31 0 -36 -11 -14 -30 8 -6 22 -35 32 -63 23 -74 55 -104 123 -118 31 -6 77 -24 103 -41 40 -25 53 -28 90 -23 36 5 54 0 112 -30 79 -39 133 -45 194 -19 l37 16 -37 32 c-21 18 -38 36 -38 40 0 16 24 2 75 -44 50 -45 60 -50 103 -50 30 0 59 8 81 21 l33 20 -40 35 -40 34 0 107 c1 126 7 139 77 149 25 4 55 13 66 20 13 9 50 14 113 14 55 0 106 5 125 13 30 13 34 20 51 93 17 76 17 79 0 89 -32 18 -109 93 -127 123 -22 39 -5 51 18 14 64 -100 178 -162 300 -162 44 0 112 -27 133 -53 28 -34 71 -32 148 8 73 38 186 62 170 36 -4 -6 -18 -11 -31 -11 -13 0 -35 -4 -49 -10 -24 -9 -26 -14 -26 -70 0 -79 -17 -117 -73 -163 -57 -47 -59 -66 -12 -131 25 -36 35 -60 35 -88 0 -21 -4 -38 -10 -38 -5 0 -10 15 -10 33 0 21 -12 49 -35 81 -19 27 -35 58 -35 68 0 23 -2 22 -47 -2 -26 -14 -57 -20 -98 -20 -52 0 -68 -5 -114 -35 -66 -42 -122 -51 -215 -35 -68 12 -191 53 -210 71 -22 20 5 16 76 -11 88 -34 202 -55 250 -46 19 3 58 22 88 41 46 30 63 35 113 35 33 0 73 7 90 15 56 27 151 104 170 137 16 30 25 138 11 138 -3 0 -26 -12 -50 -26 -52 -31 -111 -29 -147 4 -37 33 -69 45 -142 53 -38 4 -84 10 -101 14 -30 7 -31 6 -45 -42 -7 -26 -14 -67 -14 -90 0 -56 40 -98 114 -120 53 -15 55 -15 110 11 56 25 71 29 104 27 29 -2 19 -21 -12 -21 -16 0 -54 -12 -86 -26 -54 -25 -60 -26 -114 -14 -41 9 -65 22 -92 49 -20 20 -38 42 -41 50 -3 12 -10 12 -38 3 -18 -7 -73 -12 -122 -12 -59 0 -96 -5 -111 -14 -12 -8 -42 -17 -66 -20 -24 -3 -49 -10 -56 -16 -16 -13 -17 -199 -1 -219 6 -7 28 -25 50 -39 22 -13 62 -45 89 -71 l49 -46 117 -3 c249 -8 270 -7 283 6 9 9 9 15 0 24 -16 16 -15 28 1 28 7 0 27 -15 44 -34 37 -43 91 -56 128 -32 22 14 25 24 25 71 0 30 5 55 10 55 6 0 10 -29 10 -66 l0 -66 38 5 c27 3 49 -2 84 -22 l47 -25 23 21 c24 23 91 42 146 43 53 0 36 -17 -24 -23 -106 -11 -136 -61 -60 -103 21 -12 56 -25 77 -28 22 -3 39 -11 39 -17 0 -16 -78 -1 -125 25 -22 11 -44 31 -50 44 -5 12 -18 22 -29 22 -10 0 -34 10 -53 21 -32 20 -44 21 -131 15 -84 -6 -102 -4 -135 13 -34 17 -41 18 -66 5 -16 -8 -45 -15 -65 -16 -20 -1 -36 -5 -36 -9 0 -12 101 -66 148 -79 31 -8 58 -8 102 0 85 15 123 5 191 -51 86 -72 116 -80 162 -41 9 9 42 17 73 19 47 3 103 25 152 59 2 1 -2 20 -9 42 -16 54 -6 86 35 112 44 26 49 44 50 153 l1 88 -43 19 c-35 16 -47 28 -64 67 -11 26 -30 58 -41 70 -11 13 -17 26 -14 30 12 12 54 -37 72 -83 14 -37 25 -49 64 -67 l46 -22 1 -95 c2 -115 -6 -139 -57 -179 -44 -36 -46 -44 -23 -101 18 -45 32 -49 80 -19 19 11 62 28 95 37 72 20 96 46 101 107 2 37 1 40 -22 37 -14 -1 -35 -14 -48 -28 -12 -14 -28 -24 -34 -22 -6 2 1 18 19 38 25 28 38 34 87 38 70 6 86 24 86 100 0 72 -18 111 -86 178 -77 75 -251 214 -291 231 -45 18 -176 17 -213 -2 -16 -9 -37 -29 -45 -45 -14 -27 -35 -41 -35 -22 0 19 42 73 69 86 43 23 187 25 229 4 40 -21 56 -15 72 23 10 23 10 42 0 89 -18 85 -9 223 18 284 21 46 21 49 5 62 -10 7 -20 14 -23 14 -3 0 -18 -46 -34 -103 -20 -74 -26 -113 -21 -140 5 -24 3 -37 -3 -37 -6 0 -14 16 -18 35 -6 34 6 100 42 225 22 78 11 140 -34 209 -7 10 -20 2 -53 -34 -74 -79 -88 -125 -49 -160 21 -19 26 -35 10 -35 -21 0 -50 45 -50 78 0 43 13 67 63 119 23 24 37 48 34 56 -3 8 -25 17 -51 20 -81 11 -143 59 -134 104 3 14 8 10 26 -18 24 -40 66 -63 104 -57 38 5 36 62 -6 157 -41 90 -46 139 -16 166 17 16 20 16 20 2 0 -9 -4 -19 -10 -22 -18 -11 -10 -57 24 -134 43 -95 49 -120 38 -151 -8 -21 -5 -27 20 -42 35 -22 48 -23 48 -3 0 8 24 31 54 50 76 48 79 70 27 183 -23 49 -41 96 -41 105 0 65 -65 102 -188 110 -79 5 -85 4 -105 -19 -11 -13 -27 -24 -35 -24 -8 0 -29 -15 -48 -34 -27 -27 -34 -42 -34 -73 0 -55 18 -75 60 -71 30 2 35 7 38 31 4 36 22 35 22 -2 0 -45 -20 -55 -98 -47 -93 9 -106 -4 -100 -103 5 -88 23 -116 106 -156 78 -38 110 -69 123 -119 6 -23 21 -52 33 -66 47 -52 56 -73 56 -135 0 -60 -25 -135 -50 -150 -21 -13 -20 0 5 50 17 33 25 65 25 101 0 46 -5 57 -39 99 -22 26 -44 66 -50 89 -13 52 -34 72 -124 116 -67 33 -73 39 -93 88 -36 91 -80 125 -177 136 -64 7 -108 26 -147 62 -36 33 -78 53 -101 47 -11 -3 -27 -20 -36 -37 -14 -25 -18 -28 -21 -12 -2 10 12 42 32 70 41 60 44 83 15 120 -36 46 -76 60 -168 61 -47 0 -86 4 -88 10 -2 6 31 10 85 10 71 0 96 -4 135 -24 36 -17 51 -21 60 -12 6 6 25 11 41 11 53 0 60 11 46 68 -11 50 -7 92 10 92 4 0 8 -17 7 -37 0 -21 4 -56 8 -77 10 -46 -9 -66 -60 -66 -41 0 -58 -17 -44 -43 11 -19 8 -57 -5 -88 -5 -12 0 -19 21 -26 15 -6 48 -27 73 -48 54 -45 73 -53 148 -61 62 -6 85 -16 119 -46 l22 -20 7 38 c3 22 13 46 20 54 11 13 11 22 1 52 -17 49 -42 75 -99 104 -83 42 -107 100 -74 178 19 45 91 98 164 120 46 15 20 -12 -43 -43 -70 -35 -103 -72 -112 -126 -8 -47 15 -78 78 -111 58 -29 99 -68 99 -95 0 -19 25 -49 41 -49 5 0 9 24 9 53 0 30 6 61 15 74 14 20 13 22 -25 28 -49 8 -85 36 -98 75 -15 43 4 48 22 6 16 -39 33 -50 90 -60 44 -8 87 6 122 41 22 22 28 23 116 17 51 -4 108 -13 126 -20 24 -10 39 -11 53 -4 10 6 30 8 43 4 40 -10 96 13 96 40 0 12 -6 28 -12 35 -11 10 -9 12 7 9 15 -2 21 -12 23 -40 3 -31 -1 -39 -24 -51 l-27 -14 25 -17 c13 -9 49 -23 78 -32 92 -27 136 -96 95 -150 -21 -27 -19 -31 25 -59 38 -24 42 -24 69 -10 39 20 71 66 71 103 0 18 -13 45 -35 73 -37 47 -53 95 -37 111 6 6 11 -2 15 -22 4 -17 22 -51 42 -77 19 -25 35 -54 35 -64 0 -15 8 -19 38 -19 28 0 45 -7 62 -25 20 -22 22 -30 16 -84 l-7 -60 54 -34 c41 -26 58 -45 71 -77 10 -24 25 -44 36 -47 25 -7 26 -23 1 -23 -22 0 -39 19 -61 66 -8 19 -37 47 -65 66 l-50 34 3 63 c3 76 -13 101 -64 101 -26 0 -34 -5 -42 -29 -6 -16 -26 -41 -45 -57 l-35 -27 28 -28 c46 -47 45 -105 -2 -156 -30 -32 -17 -53 31 -53 30 0 49 8 81 35 70 59 129 45 153 -36 8 -25 30 -66 50 -93 40 -51 43 -72 26 -142 -9 -35 -9 -59 0 -100 10 -43 10 -59 -1 -81 -19 -38 -69 -64 -137 -70 l-60 -6 -7 -41 c-8 -52 -64 -109 -119 -125 -51 -14 -128 -15 -120 -1 3 6 21 10 38 10 56 0 110 21 145 56 28 28 33 39 30 71 -3 32 -7 38 -36 45 -28 8 -38 18 -57 62 -21 47 -29 55 -67 67 -38 12 -44 19 -53 53 -16 65 -115 146 -178 146 -21 0 -25 -7 -35 -64 -16 -85 -15 -111 7 -175 17 -49 18 -59 5 -103 -22 -72 -10 -88 66 -88 76 0 105 23 95 76 -7 40 11 48 21 9 9 -37 -3 -73 -32 -92 -34 -22 -125 -21 -160 1 -27 18 -29 36 -12 100 10 38 9 52 -10 110 -21 63 -21 69 -7 137 18 83 17 79 6 79 -17 0 -54 -106 -59 -168 -3 -34 1 -103 8 -152 12 -84 12 -91 -8 -123 l-20 -35 31 -23 c17 -12 72 -57 123 -100 89 -76 92 -77 129 -69 20 5 51 6 69 3 17 -2 45 1 61 7 l30 13 -30 9 c-16 5 -55 7 -85 4 -51 -5 -54 -5 -35 10 16 13 38 14 120 9 70 -5 109 -3 130 6 17 7 60 13 97 13 58 1 71 5 104 31 20 17 51 55 67 84 27 47 31 67 37 155 3 56 11 110 17 122 9 16 9 35 0 82 -11 60 -19 73 -32 52 -4 -6 -11 -8 -16 -4 -5 3 7 24 27 46 30 34 35 45 30 72 -4 17 -10 51 -14 76 -10 54 -21 77 -56 109 -14 14 -26 30 -26 38 0 20 10 16 32 -12 11 -14 24 -25 29 -25 15 0 10 53 -11 99 -11 24 -20 59 -20 78 0 81 -53 133 -134 133 -25 0 -46 5 -46 10 0 6 7 10 15 10 8 0 15 4 15 9 0 13 -50 51 -66 51 -8 0 -25 18 -39 40 -27 42 -76 78 -162 117 -49 23 -54 23 -83 8 -27 -14 -30 -14 -30 0 0 8 5 15 10 15 20 0 9 15 -25 38 -46 29 -91 38 -110 22 -20 -17 -31 -5 -15 16 12 13 11 17 -1 25 -8 5 -25 9 -39 9 -39 0 -102 20 -128 40 -15 13 -40 19 -75 19 -29 0 -72 7 -96 15 -58 21 -96 20 -166 -4 -32 -11 -77 -20 -100 -20 -25 0 -48 -6 -54 -14 -15 -17 -67 -37 -75 -28 -4 3 3 11 16 18 22 12 21 12 -16 28 -56 23 -76 20 -112 -19 -30 -33 -64 -46 -64 -25 0 6 7 10 15 10 8 0 15 5 15 10 0 6 -14 10 -30 10 -17 0 -53 11 -80 25 -27 14 -51 25 -52 25 -2 -1 -28 -10 -58 -20z m803 -82 c20 -6 37 -15 37 -20 0 -11 -10 -10 -77 7 -79 21 -140 7 -183 -41 -16 -19 -30 -41 -30 -49 0 -8 -4 -15 -10 -15 -16 0 -12 30 10 65 42 68 135 87 253 53z m-697 -910 c36 -51 48 -91 35 -117 -8 -15 -2 -27 32 -64 54 -57 92 -76 170 -84 47 -4 71 -2 94 10 29 16 31 20 38 100 3 45 3 95 0 110 -8 29 8 38 19 11 9 -25 7 -146 -4 -183 -8 -30 -6 -39 17 -69 35 -46 83 -65 170 -66 60 -1 76 3 103 22 36 27 52 22 25 -8 -28 -30 -81 -43 -153 -37 -80 8 -142 37 -166 77 -13 24 -22 29 -34 23 -10 -4 -53 -8 -97 -7 -93 1 -139 20 -197 82 -34 38 -39 40 -110 44 -46 3 -88 0 -113 -8 -41 -14 -51 -12 -41 5 12 19 78 30 138 24 39 -4 62 -2 73 7 25 21 18 67 -20 121 -25 36 -35 62 -35 88 0 55 14 60 20 7 4 -27 18 -61 36 -88z m-821 -18 c12 -12 38 -27 57 -33 30 -11 47 -25 33 -28 -38 -9 -135 57 -135 91 0 26 -14 32 -46 19 -40 -15 -44 -25 -43 -105 1 -70 -19 -134 -41 -134 -14 0 -13 6 6 42 11 22 16 54 15 101 -2 87 13 114 69 123 29 5 40 11 40 24 0 9 3 20 8 24 4 4 8 -17 10 -47 2 -42 8 -59 27 -77z m1348 -559 c43 -28 58 -57 67 -124 4 -34 11 -74 15 -89 5 -21 1 -32 -19 -53 -16 -16 -26 -37 -26 -56 0 -44 -34 -104 -67 -117 -45 -18 -103 -26 -103 -14 0 6 17 14 38 18 52 9 70 21 92 57 26 42 25 68 -6 127 -21 40 -24 56 -19 94 10 63 25 58 23 -6 -1 -54 16 -98 39 -98 16 0 36 37 27 51 -3 6 -10 40 -14 76 -9 67 -39 115 -82 129 -20 6 -25 24 -5 24 6 0 25 -8 40 -19z m-1693 -147 c14 -10 42 -33 63 -53 l38 -36 114 0 c77 0 118 -4 126 -12 19 -19 7 -24 -32 -13 -19 6 -71 7 -119 4 l-86 -7 -59 52 c-60 53 -91 67 -125 58 -13 -3 -20 0 -20 9 0 20 69 18 100 -2z"/>
        <path d="M11312 12332 c-8 -2 -7 -12 3 -32 8 -16 15 -37 15 -47 0 -10 16 -51 35 -91 61 -127 57 -173 -20 -220 -47 -28 -62 -55 -51 -95 3 -12 12 -50 20 -85 20 -86 26 -92 103 -92 70 0 104 -13 170 -66 27 -22 46 -48 55 -75 13 -43 17 -46 81 -75 37 -16 39 -16 65 3 23 18 27 28 27 72 -1 62 19 64 23 2 4 -49 -16 -86 -54 -103 -28 -13 -25 -39 7 -73 17 -17 32 -20 102 -20 131 1 177 38 155 123 -10 39 -11 40 -36 31 -34 -13 -85 -4 -106 19 -9 10 -20 43 -26 73 -15 80 -58 109 -108 73 -32 -22 -43 -7 -13 17 57 46 125 8 141 -80 11 -62 21 -77 55 -85 55 -14 88 19 101 102 4 32 0 44 -35 89 -21 29 -42 68 -46 85 -16 75 -63 87 -124 33 -33 -30 -45 -35 -89 -35 -29 0 -56 6 -62 13 -5 6 -20 25 -31 40 -21 27 -23 28 -109 25 -75 -3 -91 0 -109 16 -12 11 -21 26 -21 34 0 12 7 9 26 -9 23 -22 32 -23 111 -21 62 2 91 -1 108 -12 21 -14 24 -13 44 14 45 62 14 118 -98 175 -59 29 -65 43 -40 84 10 17 19 38 19 47 0 27 -45 61 -112 83 -35 12 -74 30 -84 40 -20 18 -70 31 -92 23z m216 -552 c13 -22 43 -26 73 -10 15 8 19 7 19 -4 0 -16 -21 -26 -56 -26 -36 0 -64 18 -64 40 0 26 12 25 28 0z"/>
        <path d="M9394 10663 l-30 -4 7 -59 c7 -65 46 -143 80 -161 12 -6 30 -31 40 -55 11 -24 26 -44 34 -44 8 0 29 19 47 42 94 119 125 132 356 153 89 7 167 17 172 20 10 6 -60 76 -96 98 -7 4 -28 -3 -50 -18 -28 -19 -50 -25 -91 -25 -30 0 -63 5 -74 11 -16 8 -30 7 -60 -5 -67 -27 -135 -21 -215 19 -38 19 -73 34 -79 33 -5 0 -24 -3 -41 -5z"/>
        <path d="M10193 10563 c-65 -9 -69 -76 -7 -109 20 -10 46 -31 57 -46 19 -26 19 -28 3 -53 -15 -23 -15 -26 -1 -31 43 -17 150 28 189 79 40 52 34 68 -38 116 -67 44 -122 56 -203 44z"/>
        <path d="M10080 10529 c-19 -4 -80 -11 -135 -14 -211 -13 -276 -37 -332 -121 -19 -29 -44 -56 -55 -60 -30 -9 -16 -28 38 -46 90 -31 157 -21 324 49 52 22 118 48 146 57 28 9 60 23 70 30 17 13 18 15 2 33 -9 10 -18 32 -20 48 -3 30 -4 31 -38 24z"/>
        <path d="M10152 10410 c-12 -10 -46 -26 -75 -36 -28 -9 -93 -34 -143 -55 -51 -21 -112 -44 -137 -51 l-45 -12 56 -19 c104 -36 192 -20 327 60 102 61 118 86 73 117 -28 20 -28 20 -56 -4z"/>
        <path d="M10130 10270 c-36 -22 -85 -46 -110 -55 -39 -13 -48 -22 -67 -62 -12 -27 -45 -77 -73 -112 -60 -73 -57 -82 23 -89 43 -3 63 1 103 21 65 33 178 153 263 280 l32 47 -24 0 c-14 0 -37 2 -53 5 -21 3 -46 -6 -94 -35z"/>
        <path d="M6664 12173 c-27 -64 5 -154 49 -138 35 14 46 125 15 163 -20 24 -48 13 -64 -25z"/>
        <path d="M7006 12188 c-16 -23 -21 -92 -10 -122 12 -31 42 -38 64 -16 15 15 20 33 20 74 0 79 -40 113 -74 64z"/>
        <path d="M7176 12188 c-16 -23 -21 -92 -10 -122 12 -31 42 -38 64 -16 38 38 19 160 -25 160 -8 0 -21 -10 -29 -22z"/>
        <path d="M7504 12174 c-27 -64 6 -155 49 -138 35 13 44 125 15 162 -20 24 -48 13 -64 -24z"/>
        <path d="M7681 12197 c-31 -38 -24 -139 10 -158 35 -18 59 13 59 78 0 30 -5 63 -10 74 -12 22 -43 25 -59 6z"/>
        <path d="M7846 12188 c-16 -23 -21 -92 -10 -122 12 -31 42 -38 64 -16 22 22 28 106 10 141 -14 26 -45 24 -64 -3z"/>
        <path d="M8016 12188 c-30 -43 -12 -158 25 -158 5 0 18 9 29 20 38 38 19 160 -25 160 -8 0 -21 -10 -29 -22z"/>
        <path d="M6006 11654 c-31 -30 -34 -116 -5 -150 16 -20 47 -17 59 5 18 34 12 126 -8 144 -23 21 -27 21 -46 1z"/>
        <path d="M6176 11657 c-27 -20 -34 -108 -12 -142 20 -30 37 -32 59 -7 22 24 23 110 1 140 -18 26 -24 27 -48 9z"/>
        <path d="M6336 11648 c-32 -46 -11 -158 29 -158 24 0 45 42 45 90 0 48 -21 90 -45 90 -8 0 -21 -10 -29 -22z"/>
        <path d="M6507 11652 c-21 -23 -23 -120 -4 -146 17 -24 48 -17 65 14 18 35 10 120 -14 137 -23 17 -28 17 -47 -5z"/>
        <path d="M6846 11654 c-31 -30 -34 -116 -5 -150 16 -20 47 -17 59 5 18 34 12 126 -8 144 -23 21 -27 21 -46 1z"/>
        <path d="M7016 11657 c-27 -20 -34 -108 -12 -142 20 -30 37 -32 59 -7 22 24 23 110 1 140 -18 26 -24 27 -48 9z"/>
        <path d="M7347 11652 c-21 -23 -23 -120 -4 -146 17 -24 48 -17 65 14 18 35 10 120 -14 137 -23 17 -28 17 -47 -5z"/>
        <path d="M7686 11654 c-31 -30 -34 -116 -5 -150 16 -20 47 -17 59 5 18 34 12 126 -8 144 -23 21 -27 21 -46 1z"/>
        <path d="M7856 11657 c-27 -20 -34 -108 -12 -142 20 -30 37 -32 59 -7 22 24 23 110 1 140 -18 26 -24 27 -48 9z"/>
        <path d="M8016 11648 c-32 -46 -11 -158 29 -158 24 0 45 42 45 90 0 48 -21 90 -45 90 -8 0 -21 -10 -29 -22z"/>
        <path d="M3989 11104 c-7 -9 -13 -40 -13 -69 0 -56 15 -85 44 -85 29 0 44 29 44 85 0 56 -15 85 -44 85 -10 0 -24 -7 -31 -16z"/>
        <path d="M4326 11098 c-33 -47 -12 -148 30 -148 30 0 44 27 44 85 0 25 -5 55 -10 66 -14 26 -45 24 -64 -3z"/>
        <path d="M4490 11101 c-5 -11 -10 -41 -10 -66 0 -59 14 -85 46 -85 17 0 27 8 34 26 13 34 13 87 -2 119 -14 30 -53 34 -68 6z"/>
        <path d="M4650 11101 c-5 -11 -10 -41 -10 -66 0 -59 14 -85 46 -85 17 0 27 8 34 26 13 34 13 87 -2 119 -14 30 -53 34 -68 6z"/>
        <path d="M4989 11104 c-7 -9 -13 -40 -13 -69 0 -56 15 -85 44 -85 29 0 44 29 44 85 0 56 -15 85 -44 85 -10 0 -24 -7 -31 -16z"/>
        <path d="M5326 11098 c-18 -25 -21 -84 -6 -122 7 -18 17 -26 34 -26 32 0 46 26 46 85 0 25 -5 55 -10 66 -14 26 -45 24 -64 -3z"/>
        <path d="M5660 11101 c-5 -11 -10 -41 -10 -66 0 -55 14 -85 40 -85 27 0 50 38 50 85 0 70 -54 114 -80 66z"/>
        <path d="M6500 11101 c-5 -11 -10 -41 -10 -66 0 -55 14 -85 40 -85 27 0 50 38 50 85 0 70 -54 114 -80 66z"/>
        <path d="M6840 11105 c-7 -8 -15 -35 -18 -60 -5 -50 16 -95 46 -95 31 0 42 22 42 85 0 34 -5 66 -12 73 -16 16 -43 15 -58 -3z"/>
        <path d="M7170 11101 c-5 -11 -10 -41 -10 -66 0 -58 14 -85 44 -85 27 0 46 35 46 85 0 50 -19 85 -46 85 -13 0 -28 -9 -34 -19z"/>
        <path d="M7340 11101 c-5 -11 -10 -41 -10 -66 0 -56 14 -85 40 -85 32 0 53 44 48 95 -3 25 -11 52 -18 60 -17 21 -47 19 -60 -4z"/>
        <path d="M7509 11104 c-7 -9 -13 -40 -13 -69 0 -56 15 -85 44 -85 29 0 44 29 44 85 0 56 -15 85 -44 85 -10 0 -24 -7 -31 -16z"/>
        <path d="M7680 11105 c-7 -8 -15 -35 -18 -60 -5 -51 16 -95 48 -95 26 0 40 29 40 85 0 25 -5 55 -10 66 -13 23 -43 25 -60 4z"/>
        <path d="M8010 11101 c-5 -11 -10 -41 -10 -66 0 -59 14 -85 46 -85 28 0 44 31 44 85 0 54 -16 85 -44 85 -15 0 -30 -8 -36 -19z"/>
        <path d="M6336 10558 c-32 -46 -11 -158 29 -158 24 0 45 42 45 90 0 48 -21 90 -45 90 -8 0 -21 -10 -29 -22z"/>
        <path d="M6676 10565 c-22 -22 -30 -78 -17 -118 30 -89 104 -26 86 71 -11 61 -37 78 -69 47z"/>
        <path d="M7006 10558 c-32 -46 -11 -158 29 -158 24 0 45 42 45 90 0 48 -21 90 -45 90 -8 0 -21 -10 -29 -22z"/>
        <path d="M7176 10558 c-32 -46 -11 -158 29 -158 24 0 45 42 45 90 0 48 -21 90 -45 90 -8 0 -21 -10 -29 -22z"/>
        <path d="M7347 10562 c-25 -28 -23 -123 3 -147 10 -9 26 -15 35 -11 33 12 46 99 22 146 -16 31 -38 36 -60 12z"/>
        <path d="M7680 10565 c-31 -37 -20 -148 15 -161 32 -13 55 25 55 87 0 76 -36 115 -70 74z"/>
        <path d="M8016 10558 c-32 -46 -11 -158 29 -158 24 0 45 42 45 90 0 48 -21 90 -45 90 -8 0 -21 -10 -29 -22z"/>
        <path d="M28607 9569 c-38 -22 -45 -142 -10 -181 20 -23 28 -23 53 2 16 16 20 33 20 81 0 84 -23 120 -63 98z"/>
        <path d="M28993 9572 c-20 -13 -33 -51 -33 -96 0 -85 34 -126 73 -87 23 23 34 103 18 143 -11 30 -41 50 -58 40z"/>
        <path d="M29194 9572 c-21 -14 -34 -51 -34 -96 0 -86 34 -126 74 -86 29 29 30 138 2 169 -21 23 -25 24 -42 13z"/>
        <path d="M29568 9560 c-20 -16 -23 -27 -23 -84 0 -53 4 -69 21 -86 39 -40 74 0 74 85 0 84 -30 120 -72 85z"/>
        <path d="M29767 9569 c-38 -22 -44 -141 -9 -181 19 -23 27 -23 52 2 16 16 20 33 20 81 0 84 -23 120 -63 98z"/>
        <path d="M28690 9005 c-32 -38 -20 -165 16 -179 39 -15 64 25 64 102 0 75 -46 118 -80 77z"/>
        <path d="M28874 8985 c-38 -92 16 -209 68 -145 23 29 25 126 2 158 -23 33 -52 28 -70 -13z"/>
        <path d="M30228 8998 c-19 -35 -15 -134 7 -158 23 -26 40 -25 59 2 18 26 22 129 6 159 -15 26 -56 25 -72 -3z"/>
        <path d="M28496 8998 c-23 -32 -22 -129 2 -158 37 -46 82 3 82 89 0 76 -51 117 -84 69z"/>
        <path d="M29080 9005 c-34 -41 -18 -168 22 -181 35 -11 58 27 58 95 0 83 -43 130 -80 86z"/>
        <path d="M29462 8995 c-17 -37 -15 -126 4 -153 19 -27 36 -28 59 -2 22 24 26 123 7 158 -18 31 -56 29 -70 -3z"/>
        <path d="M29654 8996 c-21 -33 -16 -138 8 -162 36 -36 78 15 78 95 0 78 -52 118 -86 67z"/>
        <path d="M30040 9005 c-34 -41 -18 -168 22 -181 35 -11 58 27 58 95 0 83 -43 130 -80 86z"/>
        <path d="M30423 9000 c-18 -29 -16 -131 3 -158 45 -65 103 40 72 133 -15 47 -54 60 -75 25z"/>
        <path d="M28406 8465 c-30 -31 -33 -137 -5 -171 6 -8 20 -14 30 -14 30 0 49 39 49 100 0 82 -36 123 -74 85z"/>
        <path d="M28786 8458 c-24 -34 -22 -140 3 -162 29 -27 54 -16 69 29 32 95 -26 200 -72 133z"/>
        <path d="M28979 8464 c-21 -26 -24 -129 -5 -160 36 -53 86 -10 86 74 0 79 -46 128 -81 86z"/>
        <path d="M29366 8451 c-32 -61 -13 -163 31 -169 31 -5 53 33 53 93 0 93 -52 139 -84 76z"/>
        <path d="M29757 8462 c-39 -43 -26 -174 19 -180 38 -5 54 23 54 97 0 53 -4 72 -18 84 -24 22 -35 21 -55 -1z"/>
        <path d="M30139 8464 c-21 -26 -24 -129 -5 -160 36 -53 86 -10 86 74 0 79 -46 128 -81 86z"/>
      </g>
    </g>
  </g>
</svg>