<?xml version="1.0" encoding="utf-8"?>
<svg viewBox="-566.689 -262.439 1579.919 912.3" xmlns="http://www.w3.org/2000/svg">
  <g>
    <g transform="matrix(1, 0, 0, 1, -731.765991, -289.114441)">
      <g transform="matrix(0.096995, 0, 0, -0.097356, 52.43309, 995.465759)" fill="#000000" stroke="none" style="">
        <path d="M3047 9934 c-213 -51 -363 -222 -387 -439 -11 -101 -12 -7132 -1 -8000 6 -455 9 -525 23 -558 l17 -37 2520 0 2521 0 0 -40 0 -40 -3212 1 c-1767 1 -3206 3 -3197 6 9 2 19 15 22 29 6 34 -25 46 -118 48 l-70 1 -3 -42 c-4 -49 7 -56 121 -92 303 -93 946 -159 1777 -181 494 -13 12011 -13 12499 0 879 24 1563 99 1836 201 l55 20 0 50 0 49 -57 -1 c-105 -1 -166 -40 -117 -76 15 -11 -536 -13 -3194 -13 l-3212 0 0 40 0 40 2526 2 2527 3 16 40 c15 36 16 421 19 4295 1 2961 -1 4271 -8 4306 -39 190 -198 349 -387 389 -101 22 -12428 21 -12516 -1z m12524 -110 c108 -32 199 -110 248 -213 l26 -56 3 -4137 2 -4138 -6545 0 -6545 0 2 4128 3 4127 34 72 c52 110 153 197 258 222 22 5 2674 9 6249 10 5646 1 6215 0 6265 -15z m-5018 -8931 c-29 -4 -31 -7 -35 -49 -3 -43 -2 -44 27 -46 16 -1 -4 -4 -45 -8 -98 -9 -2124 -10 -2350 -1 -137 6 -155 8 -85 10 50 2 82 5 73 8 -13 3 -18 14 -18 38 0 37 -8 41 -110 48 -25 2 545 4 1265 4 721 0 1296 -2 1278 -4z"/>
      </g>
      <g transform="matrix(0.02606, 0, 0, -0.022657, 1018.396118, 796.321289)" fill="#000000" stroke="none" style="">
        <g transform="matrix(1.347672, 0, 0, 1.417695, -28900.34375, -3729.364502)" fill="#000000" stroke="none">
          <g>
            <path d="M 19590 20549 C 19329 20456 18982 20333 18820 20276 C 18658 20218 18275 20083 17970 19975 C 17310 19741 17200 19702 16840 19575 C 16689 19522 16561 19475 16556 19470 C 16551 19465 17198 18557 18036 17391 C 18854 16252 19527 15323 19531 15327 C 19539 15337 19605 15463 19860 15958 C 20022 16272 20076 16370 20090 16370 C 20100 16370 20110 16364 20112 16357 C 20114 16350 20234 16114 20380 15832 C 20629 15350 20645 15321 20661 15337 C 20673 15351 23502 19285 23609 19437 L 23631 19470 L 23608 19478 C 23485 19523 22919 19720 22899 19725 C 22880 19730 22871 19727 22867 19716 C 22852 19678 22770 19710 22770 19754 C 22770 19776 22783 19771 22280 19948 C 22046 20031 21567 20201 21215 20325 C 20063 20733 20101 20720 20081 20719 C 20072 20718 19851 20642 19590 20549 Z M 21190 20160 C 21197 20143 21200 20116 21196 20095 L 21189 20060 L 21126 20060 C 21057 20060 21050 20065 21050 20121 C 21050 20176 21065 20190 21124 20190 C 21174 20190 21178 20188 21190 20160 Z M 19000 19160 C 19042 19118 19011 19062 18950 19070 C 18909 19075 18897 19140 18932 19164 C 18962 19185 18976 19184 19000 19160 Z M 20613 19008 C 20630 18985 20632 18976 20622 18956 C 20616 18942 20599 18928 20585 18924 C 20529 18910 20495 18991 20543 19025 C 20572 19045 20588 19041 20613 19008 Z M 19457 17694 C 19472 17670 19472 17665 19459 17641 C 19430 17589 19360 17606 19360 17665 C 19360 17722 19425 17742 19457 17694 Z M 21568 17648 C 21581 17635 21584 17573 21574 17546 C 21569 17534 21554 17530 21511 17530 C 21459 17530 21452 17532 21442 17555 C 21426 17590 21427 17611 21446 17638 C 21458 17655 21471 17660 21509 17660 C 21535 17660 21561 17655 21568 17648 Z"/>
            <path d="M 16526 19364 C 16523 19331 16506 19107 16490 18865 C 16473 18623 16458 18396 16455 18360 C 16453 18324 16448 18259 16445 18215 C 16442 18171 16437 18108 16435 18075 C 16427 17961 16420 17865 16415 17785 C 16409 17700 16393 17471 16385 17355 C 16379 17276 16342 16744 16335 16630 C 16332 16589 16323 16463 16315 16350 C 16307 16237 16291 16008 16280 15840 C 16268 15672 16253 15445 16245 15336 C 16237 15226 16233 15134 16235 15131 C 16240 15126 16359 15129 16435 15135 C 16463 15138 16625 15147 16795 15155 C 16966 15163 17139 15172 17180 15175 C 17309 15183 17435 15190 17745 15205 C 17910 15213 18077 15222 18115 15225 C 18154 15228 18282 15234 18400 15240 C 18518 15246 18651 15252 18695 15255 C 18739 15258 18934 15269 19129 15280 C 19323 15290 19485 15301 19488 15304 C 19493 15310 19506 15293 17787 17685 C 17111 18626 16552 19401 16545 19409 C 16534 19420 16531 19412 16526 19364 Z M 17891 16360 C 17904 16353 17910 16339 17910 16317 C 17910 16277 17895 16260 17860 16260 C 17825 16260 17810 16277 17810 16317 C 17810 16362 17848 16383 17891 16360 Z"/>
            <path d="M 23554 19308 C 23481 19205 21513 16467 20927 15651 C 20791 15462 20681 15306 20683 15303 C 20687 15300 21318 15263 21770 15240 C 21961 15231 22027 15227 22235 15215 C 22279 15212 22412 15206 22530 15200 C 22648 15195 22783 15188 22830 15185 C 23002 15174 23058 15171 23185 15165 C 23257 15162 23387 15155 23475 15150 C 23563 15145 23704 15137 23788 15134 L 23940 15127 L 23940 15167 C 23940 15189 23937 15241 23934 15283 C 23927 15359 23927 15360 23899 15360 C 23866 15360 23850 15384 23850 15432 C 23851 15473 23870 15500 23899 15500 C 23919 15500 23920 15504 23915 15553 C 23912 15581 23898 15774 23885 15980 C 23871 16186 23858 16382 23855 16415 C 23852 16448 23834 16705 23815 16985 C 23796 17266 23778 17524 23775 17560 C 23773 17596 23755 17855 23735 18135 C 23716 18416 23699 18670 23696 18700 C 23694 18730 23681 18905 23669 19088 C 23656 19270 23644 19420 23640 19420 C 23637 19420 23598 19369 23554 19308 Z M 22930 17560 C 22941 17549 22950 17531 22950 17520 C 22950 17496 22916 17460 22893 17460 C 22848 17460 22822 17531 22856 17564 C 22877 17586 22906 17584 22930 17560 Z M 22094 15704 C 22103 15695 22110 15672 22110 15650 C 22110 15599 22089 15580 22035 15580 C 21981 15580 21960 15599 21960 15650 C 21960 15701 21981 15720 22035 15720 C 22061 15720 22085 15714 22094 15704 Z M 22328 15408 C 22343 15395 22344 15318 22328 15302 C 22321 15295 22293 15290 22265 15290 C 22219 15290 22212 15293 22202 15315 C 22195 15329 22190 15347 22190 15355 C 22190 15383 22213 15419 22234 15423 C 22261 15429 22312 15420 22328 15408 Z"/>
            <path d="M 16471 19339 C 16461 19315 16287 18933 16085 18490 C 15883 18047 15651 17539 15570 17360 C 15489 17181 15316 16801 15186 16516 C 15055 16229 14953 15993 14958 15988 C 14975 15971 16195 15142 16198 15145 C 16200 15147 16207 15228 16215 15327 C 16227 15491 16224 15551 16206 15521 C 16202 15515 16174 15510 16145 15510 C 16102 15510 16089 15514 16080 15529 C 16067 15554 16067 15596 16080 15620 C 16101 15658 16205 15656 16219 15616 C 16234 15578 16232 15555 16295 16480 C 16314 16758 16332 17017 16335 17055 C 16338 17094 16349 17256 16360 17415 C 16371 17575 16382 17734 16385 17770 C 16388 17806 16408 18101 16430 18425 C 16453 18750 16477 19096 16484 19195 C 16491 19294 16495 19377 16494 19379 C 16492 19381 16482 19363 16471 19339 Z M 16076 16995 C 16093 16969 16089 16928 16068 16903 C 16052 16883 15970 16887 15954 16908 C 15937 16929 15936 16992 15952 17008 C 15959 17015 15985 17020 16012 17020 C 16052 17020 16062 17016 16076 16995 Z M 15540 16601 C 15551 16579 15553 16530 15544 16506 C 15539 16494 15523 16490 15479 16490 C 15415 16490 15400 16503 15400 16555 C 15400 16606 15416 16620 15475 16620 C 15518 16620 15531 16616 15540 16601 Z"/>
            <path d="M 23681 19369 C 23680 19354 23734 18557 23744 18420 C 23747 18384 23754 18288 23760 18205 C 23770 18046 23774 17997 23790 17775 C 23795 17698 23807 17536 23815 17415 C 23831 17177 23847 16947 23855 16835 C 23866 16693 23939 15613 23942 15566 C 23943 15526 23949 15512 23972 15492 C 24007 15460 24011 15401 23979 15369 C 23960 15350 23959 15342 23966 15244 C 23970 15187 23974 15140 23975 15140 C 23984 15140 25225 15993 25223 15998 C 25222 16002 25186 16084 25142 16180 C 24805 16921 23765 19203 23704 19335 C 23691 19363 23681 19378 23681 19369 Z"/>
            <path d="M 19992 16148 C 19655 15497 19560 15311 19561 15303 C 19562 15299 19560 15287 19555 15277 C 19551 15268 19555 15209 19564 15147 C 19572 15086 19613 14790 19655 14490 C 19696 14190 19739 13884 19750 13810 C 19760 13736 19788 13542 19810 13380 C 19879 12882 19965 12265 20051 11653 C 20069 11525 20086 11422 20088 11425 C 20093 11430 20106 11516 20240 12485 C 20285 12804 20348 13256 20380 13490 C 20626 15256 20629 15275 20616 15285 C 20609 15291 20605 15300 20607 15307 C 20609 15313 20557 15423 20491 15552 C 20424 15680 20308 15905 20232 16052 C 20157 16199 20092 16320 20088 16320 C 20085 16320 20041 16242 19992 16148 Z"/>
            <path d="M 14947 15923 C 14949 15907 14964 15690 14980 15440 C 14996 15190 15012 14954 15015 14915 C 15018 14877 15036 14611 15055 14325 C 15074 14039 15092 13771 15095 13730 C 15098 13689 15109 13522 15120 13360 C 15130 13198 15142 13034 15144 12995 C 15147 12957 15159 12783 15171 12610 C 15182 12437 15193 12294 15195 12292 C 15196 12291 15526 12518 15927 12797 C 16507 13201 16655 13308 16648 13320 C 16640 13334 16562 13648 16305 14684 C 16252 14898 16205 15081 16200 15090 C 16195 15100 15937 15280 15628 15491 C 15318 15701 15041 15891 15011 15912 C 14981 15933 14954 15950 14950 15950 C 14946 15950 14945 15938 14947 15923 Z M 15508 15084 C 15520 15076 15530 15058 15530 15044 C 15530 15018 15498 14980 15477 14980 C 15455 14980 15420 15019 15420 15045 C 15420 15068 15452 15100 15475 15100 C 15481 15100 15496 15093 15508 15084 Z M 16014 14174 C 16031 14157 16035 14094 16021 14071 C 16016 14063 15993 14058 15960 14058 C 15901 14058 15890 14067 15890 14118 C 15890 14173 15905 14190 15955 14190 C 15981 14190 16005 14184 16014 14174 Z M 15300 13861 C 15313 13837 15313 13780 15300 13760 C 15294 13750 15274 13745 15235 13745 C 15172 13745 15160 13755 15160 13808 C 15160 13867 15174 13880 15235 13880 C 15278 13880 15291 13876 15300 13861 Z"/>
            <path d="M 24915 15743 C 24750 15630 24470 15439 24294 15318 C 23994 15114 23971 15096 23963 15062 C 23957 15042 23850 14641 23725 14172 C 23600 13703 23499 13318 23501 13316 C 23503 13314 23795 13111 24150 12865 C 24505 12618 24836 12388 24885 12353 L 24975 12290 L 24982 12327 C 24986 12348 25006 12610 25025 12910 C 25045 13210 25063 13482 25066 13515 C 25068 13548 25077 13676 25085 13800 C 25115 14254 25131 14487 25135 14550 C 25138 14586 25147 14719 25155 14845 C 25163 14972 25172 15107 25175 15145 C 25178 15184 25187 15316 25195 15440 C 25203 15564 25212 15701 25215 15745 C 25218 15789 25223 15853 25226 15888 C 25229 15922 25228 15950 25223 15949 C 25219 15949 25080 15856 24915 15743 Z M 24734 15087 C 24760 15068 24758 15020 24730 14998 C 24702 14975 24687 14975 24667 14998 C 24642 15026 24641 15060 24666 15084 C 24685 15103 24710 15104 24734 15087 Z M 24900 13711 C 24916 13681 24912 13624 24893 13609 C 24868 13587 24791 13591 24774 13614 C 24757 13638 24756 13670 24772 13705 C 24782 13727 24789 13730 24836 13730 C 24878 13730 24891 13726 24900 13711 Z M 23829 13696 C 23851 13670 23838 13627 23807 13616 C 23758 13599 23717 13639 23738 13684 C 23747 13705 23757 13710 23784 13710 C 23802 13710 23823 13704 23829 13696 Z"/>
            <path d="M 19380 15263 C 19329 15260 16961 15134 16463 15108 C 16282 15099 16240 15094 16240 15082 C 16240 15069 16670 13328 16675 13322 C 16676 13321 16774 13386 16891 13468 C 17009 13550 17535 13916 18060 14281 C 18585 14647 19115 15016 19237 15101 C 19444 15244 19480 15273 19448 15268 C 19441 15267 19410 15265 19380 15263 Z M 17695 14540 C 17742 14488 17683 14409 17628 14453 C 17601 14474 17598 14505 17621 14533 C 17645 14565 17670 14567 17695 14540 Z"/>
            <path d="M 20738 15243 C 20756 15229 21159 14947 21633 14617 C 22107 14287 22713 13865 22980 13679 C 23288 13465 23467 13346 23471 13353 C 23488 13384 23939 15085 23932 15091 C 23928 15095 23822 15103 23695 15109 C 23569 15115 23429 15123 23385 15126 C 23291 15131 21089 15247 20920 15255 C 20857 15258 20783 15263 20755 15265 L 20705 15270 L 20738 15243 Z"/>
            <path d="M 18945 14861 C 18455 14519 15924 12757 15433 12416 C 15321 12338 15230 12273 15230 12270 C 15230 12265 15292 12254 16120 12125 C 16420 12078 16706 12033 16755 12025 C 16805 12017 17120 11967 17455 11915 C 17791 11862 18193 11799 18350 11774 C 18507 11750 18681 11722 18738 11713 C 18794 11705 18843 11699 18845 11702 C 18849 11706 18944 12213 19226 13730 C 19251 13865 19280 14020 19290 14075 C 19301 14130 19330 14285 19354 14420 C 19470 15049 19501 15216 19505 15228 C 19507 15234 19504 15240 19497 15239 C 19490 15239 19242 15069 18945 14861 Z M 17388 12974 C 17430 12945 17406 12870 17354 12870 C 17329 12870 17300 12904 17300 12932 C 17300 12953 17334 12990 17353 12990 C 17360 12990 17376 12983 17388 12974 Z"/>
            <path d="M 20673 15218 C 20676 15206 20687 15150 20696 15093 C 20710 15008 20719 14982 20742 14952 C 20764 14924 20770 14909 20765 14890 C 20749 14826 20751 14793 20784 14615 C 20857 14227 20972 13608 21075 13050 C 21133 12734 21196 12394 21215 12295 C 21233 12196 21265 12025 21285 11915 C 21306 11805 21326 11711 21330 11707 C 21334 11702 21411 11710 21501 11724 C 21633 11744 22754 11920 24340 12170 C 24867 12253 24940 12265 24940 12271 C 24940 12278 24978 12252 24060 12890 C 23623 13195 22806 13763 22245 14153 C 20769 15181 20683 15240 20675 15240 C 20671 15240 20670 15230 20673 15218 Z M 21170 13691 C 21192 13648 21169 13610 21121 13610 C 21087 13610 21070 13627 21070 13660 C 21070 13695 21087 13710 21127 13710 C 21149 13710 21163 13704 21170 13691 Z M 22301 12730 C 22331 12713 22327 12656 22295 12642 C 22281 12635 22265 12630 22260 12630 C 22245 12630 22210 12668 22210 12685 C 22210 12705 22246 12740 22266 12740 C 22274 12740 22290 12735 22301 12730 Z"/>
            <path d="M 19520 15163 C 19520 15153 19371 14347 19261 13755 C 19239 13640 19201 13435 19176 13300 C 19151 13165 19099 12886 19061 12680 C 18927 11963 18880 11697 18885 11692 C 18891 11686 18895 11684 19400 11520 C 20028 11316 20045 11310 20058 11310 C 20066 11310 20068 11319 20065 11333 C 20063 11345 20056 11391 20050 11435 C 20029 11593 20002 11784 19775 13415 C 19579 14824 19531 15162 19526 15167 C 19523 15171 19520 15168 19520 15163 Z"/>
            <path d="M 20631 15073 C 20624 15024 20608 14909 20595 14815 C 20571 14651 20546 14472 20370 13205 C 20326 12886 20263 12434 20230 12200 C 20122 11428 20108 11319 20114 11313 C 20119 11307 20213 11337 20933 11572 C 21243 11673 21300 11694 21296 11708 C 21293 11717 21275 11813 21255 11920 C 21235 12027 21204 12196 21185 12295 C 21166 12394 21121 12637 21085 12835 C 21049 13033 21006 13265 20990 13350 C 20955 13534 20816 14285 20760 14590 C 20713 14844 20714 14840 20690 14840 C 20650 14840 20637 14910 20670 14945 C 20689 14965 20689 14967 20672 15057 C 20662 15108 20652 15151 20649 15154 C 20646 15158 20638 15121 20631 15073 Z"/>
            <path d="M 15230 12225 C 15230 12221 15631 11725 16471 10690 C 16661 10456 16900 10162 17002 10035 C 17105 9909 17203 9789 17219 9770 L 17250 9735 L 17289 9780 C 17322 9819 17501 10037 18335 11059 C 18765 11588 18828 11665 18826 11667 C 18824 11670 18215 11766 17390 11896 C 17266 11915 17039 11951 16885 11975 C 15254 12232 15230 12236 15230 12225 Z M 17256 10349 C 17285 10293 17254 10240 17193 10240 C 17147 10240 17120 10264 17120 10304 C 17120 10356 17144 10380 17195 10380 C 17235 10380 17241 10377 17256 10349 Z"/>
            <path d="M 24870 12223 C 24856 12221 24730 12201 24590 12179 C 24121 12105 23430 11997 23040 11936 C 22883 11911 22638 11873 22495 11851 C 22352 11828 22192 11803 22140 11794 C 22088 11786 21890 11755 21701 11725 C 21512 11695 21356 11669 21353 11667 C 21349 11662 21468 11514 22410 10362 C 22677 10035 22902 9760 22910 9749 C 22927 9728 22815 9594 24214 11320 C 24582 11774 24899 12164 24918 12188 L 24952 12230 L 24924 12229 C 24908 12228 24884 12225 24870 12223 Z M 24121 11659 C 24138 11642 24141 11630 24137 11603 C 24128 11552 24114 11540 24059 11540 C 24005 11540 23980 11563 23980 11612 C 23980 11675 24074 11706 24121 11659 Z M 22604 11258 C 22643 11202 22609 11140 22540 11140 C 22471 11140 22437 11202 22476 11258 C 22488 11276 22501 11280 22540 11280 C 22579 11280 22592 11276 22604 11258 Z"/>
            <path d="M 15253 12125 C 15256 12114 15283 12047 15313 11975 C 15343 11904 15433 11688 15513 11495 C 15593 11303 15783 10846 15935 10480 C 16087 10114 16217 9804 16223 9790 C 16231 9774 16244 9765 16260 9764 C 16334 9762 16338 9760 16348 9731 C 16365 9682 16345 9630 16308 9630 C 16297 9630 16290 9626 16292 9621 C 16343 9486 17127 7620 17133 7620 C 17137 7620 17140 7648 17140 7683 C 17140 7746 17205 9117 17215 9265 C 17217 9309 17222 9426 17225 9525 L 17230 9705 L 17157 9795 C 16792 10247 15265 12127 15258 12135 C 15251 12142 15249 12139 15253 12125 Z"/>
            <path d="M 24841 12043 C 24038 11057 22954 9716 22948 9699 C 22942 9683 23035 7641 23043 7617 C 23044 7613 23066 7660 23092 7722 C 23118 7784 23258 8121 23403 8470 C 23549 8819 23801 9427 23965 9820 C 24128 10213 24401 10868 24570 11275 C 24926 12131 24930 12140 24925 12140 C 24923 12140 24885 12096 24841 12043 Z"/>
            <path d="M 18694 11452 C 18606 11344 18343 11021 18110 10735 C 17877 10449 17597 10106 17488 9973 C 17354 9808 17296 9730 17308 9729 C 17317 9729 17938 9793 18688 9872 C 19588 9966 20050 10019 20048 10026 C 20044 10039 18867 11649 18860 11649 C 18857 11649 18783 11561 18694 11452 Z M 18912 10293 C 18936 10271 18936 10216 18910 10190 C 18890 10170 18827 10163 18803 10178 C 18772 10198 18766 10264 18792 10298 C 18807 10316 18890 10313 18912 10293 Z"/>
            <path d="M 18910 11643 C 18910 11640 19138 11327 19417 10946 C 19695 10566 19953 10214 19989 10163 C 20025 10112 20058 10071 20063 10071 C 20067 10070 20070 10339 20070 10669 L 20070 11268 L 20043 11278 C 20027 11284 19840 11346 19625 11415 C 19411 11485 19162 11565 19073 11595 C 18983 11624 18910 11646 18910 11643 Z"/>
            <path d="M 21035 11574 C 20914 11534 20654 11449 20458 11385 L 20100 11269 L 20100 10662 C 20100 10143 20102 10058 20114 10070 C 20145 10103 21261 11633 21258 11639 C 21256 11643 21156 11613 21035 11574 Z"/>
            <path d="M 20719 10840 C 20392 10394 20126 10026 20127 10022 C 20128 10018 20160 10012 20197 10008 C 20235 10004 20843 9940 21550 9865 C 22257 9790 22845 9731 22858 9732 C 22877 9735 22866 9752 22762 9880 C 22313 10433 21345 11618 21330 11633 C 21314 11651 21288 11618 20719 10840 Z M 21059 10417 C 21076 10366 21058 10324 21015 10316 C 20948 10303 20910 10328 20910 10384 C 20910 10435 20929 10450 20992 10450 C 21047 10450 21049 10449 21059 10417 Z"/>
            <path d="M 19745 9954 C 19575 9936 19370 9914 19290 9906 C 18742 9848 17515 9718 17420 9707 L 17305 9694 L 17375 9653 C 17456 9606 18435 9048 19380 8510 C 19740 8305 20047 8131 20061 8123 C 20090 8106 19890 7994 22090 9248 C 22461 9460 22786 9644 22812 9659 C 22838 9673 22860 9688 22860 9691 C 22860 9697 22816 9702 22455 9740 C 22351 9751 22200 9767 22120 9775 C 21718 9818 21488 9842 21315 9860 C 21211 9871 21062 9887 20985 9895 C 20105 9988 20121 9987 20093 9972 C 20074 9961 20070 9962 20070 9975 C 20070 9983 20067 9990 20063 9989 C 20058 9988 19916 9973 19745 9954 Z M 18705 9749 C 18719 9735 18717 9665 18701 9646 C 18685 9627 18590 9624 18572 9642 C 18559 9655 18556 9728 18568 9746 C 18572 9753 18584 9760 18595 9763 C 18622 9770 18693 9761 18705 9749 Z M 19588 9188 C 19595 9181 19600 9164 19600 9150 C 19600 9115 19583 9100 19543 9100 C 19517 9100 19507 9106 19498 9125 C 19480 9165 19501 9200 19543 9200 C 19561 9200 19581 9195 19588 9188 Z"/>
            <path d="M 17260 9624 C 17260 9587 17172 7752 17165 7639 L 17159 7542 L 17322 7453 C 17412 7403 17607 7296 17755 7215 C 17904 7134 18088 7032 18165 6990 C 18821 6628 20012 5979 20015 5982 C 20017 5983 19669 6451 19242 7021 C 18815 7591 18197 8415 17870 8853 C 17543 9291 17272 9649 17268 9650 C 17263 9650 17260 9638 17260 9624 Z M 17374 8588 C 17395 8559 17394 8531 17373 8508 C 17353 8486 17312 8485 17288 8507 C 17250 8541 17278 8610 17330 8610 C 17348 8610 17364 8602 17374 8588 Z M 18038 7888 C 18054 7872 18053 7819 18036 7798 C 18029 7788 18010 7780 17995 7780 C 17980 7780 17961 7788 17954 7798 C 17936 7821 17937 7865 17956 7884 C 17974 7903 18021 7905 18038 7888 Z"/>
            <path d="M 21532 7820 C 20777 6812 20161 5986 20163 5984 C 20166 5981 20666 6254 22636 7334 C 22818 7433 22977 7522 22990 7531 L 23013 7546 L 22966 8551 C 22940 9103 22916 9577 22912 9604 L 22905 9653 L 21532 7820 Z M 22324 7717 C 22332 7684 22305 7650 22270 7650 C 22200 7650 22189 7724 22254 7758 C 22279 7770 22315 7749 22324 7717 Z"/>
            <path d="M 17402 9529 C 17448 9466 18067 8641 18776 7695 L 20065 5976 L 20068 7025 C 20070 7856 20067 8077 20058 8086 C 20051 8092 19863 8201 19640 8327 C 19417 8454 19008 8687 18730 8845 C 17788 9382 17347 9632 17332 9638 C 17324 9641 17355 9592 17402 9529 Z"/>
            <path d="M 22230 9293 C 21897 9103 21282 8752 20863 8513 L 20100 8079 L 20100 7029 C 20100 6452 20103 5980 20108 5980 C 20114 5981 22841 9613 22848 9632 C 22850 9636 22848 9640 22843 9639 C 22839 9639 22563 9483 22230 9293 Z"/>
          </g>
          <path d="M27757 18932 c-39 -43 -26 -174 19 -180 38 -5 54 23 54 97 0 53 -4 72 -18 84 -24 22 -35 21 -55 -1z"/>
          <path d="M28136 18928 c-10 -14 -16 -43 -16 -78 0 -65 21 -103 53 -98 28 4 47 43 47 98 0 84 -49 129 -84 78z"/>
          <path d="M28330 18935 c-19 -23 -24 -124 -8 -155 18 -33 52 -37 72 -8 19 27 21 112 3 148 -15 30 -49 37 -67 15z"/>
          <path d="M28714 18915 c-28 -68 -11 -157 33 -163 32 -5 53 33 53 98 0 95 -55 137 -86 65z"/>
          <path d="M28917 18932 c-39 -43 -26 -174 19 -180 38 -5 54 23 54 97 0 53 -4 72 -18 84 -24 22 -35 21 -55 -1z"/>
          <path d="M29106 18928 c-24 -34 -22 -140 3 -162 29 -27 54 -16 69 29 32 95 -26 200 -72 133z"/>
          <path d="M29296 18928 c-10 -14 -16 -43 -16 -78 0 -65 21 -103 53 -98 28 4 47 43 47 98 0 84 -49 129 -84 78z"/>
          <path d="M28331 18384 c-47 -60 -14 -200 43 -178 47 18 48 165 2 196 -17 12 -23 10 -45 -18z"/>
          <path d="M28524 18389 c-28 -31 -27 -140 2 -169 42 -42 74 0 74 96 0 41 -5 59 -20 74 -25 25 -32 25 -56 -1z"/>
          <path d="M28724 18389 c-28 -31 -27 -140 2 -169 42 -42 74 0 74 96 0 41 -5 59 -20 74 -25 25 -32 25 -56 -1z"/>
          <path d="M28916 18388 c-35 -53 -29 -149 11 -175 19 -13 24 -12 42 6 30 30 30 142 1 171 -26 26 -36 25 -54 -2z"/>
          <path d="M29314 18402 c-21 -14 -34 -51 -34 -96 0 -86 34 -126 74 -86 29 29 30 138 2 169 -21 23 -25 24 -42 13z"/>
          <path d="M29491 18384 c-47 -60 -14 -200 43 -178 47 18 48 165 2 196 -17 12 -23 10 -45 -18z"/>
          <path d="M29876 18388 c-35 -53 -29 -149 11 -175 19 -13 24 -12 42 6 30 30 30 142 1 171 -26 26 -36 25 -54 -2z"/>
          <path d="M30274 18402 c-21 -14 -34 -51 -34 -96 0 -86 34 -126 74 -86 29 29 30 138 2 169 -21 23 -25 24 -42 13z"/>
          <path d="M30651 18384 c-47 -60 -14 -200 43 -178 47 18 48 165 2 196 -17 12 -23 10 -45 -18z"/>
          <path d="M30844 18389 c-28 -31 -27 -140 2 -169 42 -42 74 0 74 96 0 41 -5 59 -20 74 -25 25 -32 25 -56 -1z"/>
          <path d="M31036 18388 c-35 -53 -29 -149 11 -175 19 -13 24 -12 42 6 30 30 30 142 1 171 -26 26 -36 25 -54 -2z"/>
          <path d="M27946 17838 c-24 -34 -22 -140 3 -162 30 -27 59 -12 72 36 26 98 -30 191 -75 126z"/>
          <path d="M28329 17844 c-7 -9 -14 -41 -16 -72 -5 -69 12 -107 47 -107 32 0 50 35 50 100 0 78 -45 122 -81 79z"/>
          <path d="M28515 17830 c-44 -85 14 -216 67 -150 23 29 25 126 2 158 -21 31 -50 28 -69 -8z"/>
          <path d="M28715 17830 c-44 -85 14 -216 67 -150 23 29 25 126 2 158 -21 31 -50 28 -69 -8z"/>
          <path d="M29107 17842 c-26 -28 -24 -143 2 -166 59 -53 106 79 60 166 -12 23 -41 23 -62 0z"/>
          <path d="M29489 17844 c-7 -9 -14 -41 -16 -72 -5 -69 12 -107 47 -107 32 0 50 35 50 100 0 78 -45 122 -81 79z"/>
          <path d="M29871 17842 c-31 -57 -19 -165 20 -177 38 -12 59 20 59 92 0 35 -5 73 -10 84 -13 24 -56 25 -69 1z"/>
          <path d="M30840 17845 c-19 -23 -25 -110 -10 -145 17 -40 48 -49 72 -20 23 29 25 126 2 158 -18 26 -46 29 -64 7z"/>
          <path d="M31226 17838 c-23 -32 -21 -129 2 -158 55 -68 108 74 61 162 -13 25 -45 22 -63 -4z"/>
          <path d="M31609 17844 c-7 -9 -14 -41 -16 -72 -5 -69 12 -107 47 -107 32 0 50 35 50 100 0 78 -45 122 -81 79z"/>
          <path d="M31991 17842 c-31 -57 -19 -165 20 -177 38 -12 59 20 59 92 0 35 -5 73 -10 84 -13 24 -56 25 -69 1z"/>
          <path d="M32576 17838 c-21 -30 -21 -126 0 -156 35 -51 84 -4 84 80 0 82 -49 126 -84 76z"/>
          <path d="M27757 17302 c-41 -45 -25 -174 22 -180 37 -6 51 22 51 98 0 52 -4 71 -18 83 -24 22 -35 21 -55 -1z"/>
          <path d="M28139 17304 c-21 -26 -24 -129 -5 -160 36 -53 86 -10 86 74 0 79 -46 128 -81 86z"/>
          <path d="M28525 17300 c-23 -26 -31 -115 -13 -150 18 -33 52 -37 72 -8 21 30 21 126 0 156 -19 27 -36 28 -59 2z"/>
          <path d="M28725 17300 c-23 -26 -31 -115 -13 -150 18 -33 52 -37 72 -8 21 30 21 126 0 156 -19 27 -36 28 -59 2z"/>
          <path d="M28917 17302 c-41 -45 -25 -174 22 -180 37 -6 51 22 51 98 0 52 -4 71 -18 83 -24 22 -35 21 -55 -1z"/>
          <path d="M29296 17298 c-21 -30 -21 -126 0 -156 35 -50 84 -6 84 76 0 85 -49 131 -84 80z"/>
          <path d="M29685 17300 c-23 -26 -31 -115 -13 -150 18 -33 52 -37 72 -8 21 30 21 126 0 156 -19 27 -36 28 -59 2z"/>
          <path d="M29877 17302 c-41 -45 -25 -174 22 -180 36 -5 51 22 51 93 0 89 -34 130 -73 87z"/>
          <path d="M30259 17304 c-21 -26 -24 -129 -5 -160 36 -53 86 -10 86 74 0 79 -46 128 -81 86z"/>
          <path d="M30456 17298 c-21 -30 -21 -126 0 -156 35 -50 84 -6 84 76 0 85 -49 131 -84 80z"/>
          <path d="M28330 16755 c-19 -22 -25 -110 -10 -144 32 -77 90 -34 90 67 0 75 -46 118 -80 77z"/>
          <path d="M28519 16754 c-18 -22 -23 -114 -7 -143 38 -70 88 -39 88 55 0 67 -16 104 -45 104 -13 0 -28 -7 -36 -16z"/>
          <path d="M28720 16755 c-7 -8 -15 -35 -17 -59 -11 -91 38 -156 79 -106 21 26 25 114 6 155 -13 28 -48 34 -68 10z"/>
          <path d="M28908 16748 c-20 -37 -16 -132 6 -157 24 -27 41 -27 60 1 18 26 22 129 6 159 -15 26 -56 25 -72 -3z"/>
          <path d="M29296 16748 c-29 -42 -17 -158 18 -171 38 -15 66 29 66 102 0 76 -51 117 -84 69z"/>
          <path d="M29490 16755 c-19 -22 -25 -110 -10 -144 32 -77 90 -34 90 67 0 75 -46 118 -80 77z"/>
          <path d="M29868 16748 c-20 -37 -16 -132 6 -157 24 -27 41 -27 60 1 18 26 22 129 6 159 -15 26 -56 25 -72 -3z"/>
          <path d="M30256 16748 c-29 -42 -17 -158 18 -171 38 -15 66 29 66 102 0 76 -51 117 -84 69z"/>
          <path d="M30840 16755 c-7 -8 -15 -35 -17 -59 -11 -91 38 -156 79 -106 21 26 25 114 6 155 -13 28 -48 34 -68 10z"/>
          <path d="M31220 16751 c-16 -30 -12 -133 6 -159 19 -27 36 -28 59 -2 22 24 26 123 7 158 -16 28 -57 29 -72 3z"/>
          <path d="M31416 16748 c-29 -42 -17 -158 18 -171 38 -15 66 26 66 96 0 81 -49 125 -84 75z"/>
          <path d="M31606 16748 c-30 -42 -15 -158 20 -172 37 -14 64 29 64 102 0 53 -21 92 -50 92 -10 0 -26 -10 -34 -22z"/>
          <path d="M27946 16208 c-24 -34 -22 -140 3 -162 29 -27 54 -16 69 29 32 96 -25 200 -72 133z"/>
          <path d="M28330 16215 c-19 -23 -24 -124 -8 -155 9 -16 22 -25 38 -25 31 0 50 35 50 95 0 79 -45 127 -80 85z"/>
          <path d="M28514 16195 c-28 -68 -11 -157 33 -163 32 -5 53 33 53 98 0 95 -55 137 -86 65z"/>
          <path d="M28714 16195 c-28 -68 -11 -157 33 -163 32 -5 53 33 53 98 0 95 -55 137 -86 65z"/>
          <path d="M29106 16208 c-24 -34 -22 -140 3 -162 29 -27 54 -16 69 29 32 95 -26 200 -72 133z"/>
          <path d="M29489 16214 c-18 -22 -23 -123 -7 -154 18 -33 52 -37 72 -8 21 30 21 126 0 156 -18 26 -46 29 -65 6z"/>
          <path d="M29877 16212 c-23 -26 -31 -90 -15 -137 15 -45 40 -56 69 -29 27 24 28 143 1 167 -24 22 -35 21 -55 -1z"/>
          <path d="M30834 16195 c-28 -68 -11 -157 33 -163 32 -5 53 33 53 98 0 95 -55 137 -86 65z"/>
          <path d="M31226 16208 c-24 -34 -22 -140 3 -162 29 -27 54 -16 69 29 32 96 -25 200 -72 133z"/>
          <path d="M31794 16195 c-28 -68 -11 -157 33 -163 32 -5 53 33 53 98 0 95 -55 137 -86 65z"/>
          <path d="M32197 16213 c-22 -26 -30 -84 -18 -131 13 -48 42 -63 72 -36 27 24 28 143 1 167 -24 22 -35 21 -55 0z"/>
          <path d="M32386 16208 c-24 -34 -22 -140 3 -162 29 -27 54 -16 69 29 32 95 -26 200 -72 133z"/>
          <path d="M32576 16208 c-10 -14 -16 -43 -16 -78 0 -65 21 -103 53 -98 28 4 47 43 47 98 0 84 -49 129 -84 78z"/>
          <path d="M32770 16215 c-19 -23 -24 -124 -8 -155 9 -16 22 -25 38 -25 31 0 50 35 50 95 0 79 -45 127 -80 85z"/>
          <path d="M33157 16212 c-23 -26 -31 -90 -15 -137 15 -45 40 -56 69 -29 27 24 28 143 1 167 -24 22 -35 21 -55 -1z"/>
          <path d="M33346 16208 c-21 -30 -21 -126 0 -156 25 -35 56 -25 72 23 31 95 -26 200 -72 133z"/>
          <path d="M33536 16208 c-10 -14 -16 -43 -16 -78 0 -65 21 -103 53 -98 28 4 47 43 47 98 0 84 -49 129 -84 78z"/>
          <path d="M33915 16200 c-31 -60 -12 -162 32 -168 32 -5 53 33 53 98 0 92 -52 135 -85 70z"/>
          <path d="M5934 16041 c-2 -2 -4 -139 -4 -303 l0 -298 3163 2 3162 3 3 298 c2 234 0 297 -10 297 -7 0 -1430 1 -3161 2 -1732 2 -3151 1 -3153 -1z m196 -241 l0 -180 -65 0 -65 0 0 180 0 180 65 0 65 0 0 -180z m230 0 l0 -181 -62 3 -63 3 -2 178 -3 177 65 0 65 0 0 -180z m230 0 l0 -180 -60 0 -60 0 0 180 0 180 60 0 60 0 0 -180z m240 6 l0 -174 -65 -4 -65 -3 0 178 0 177 65 0 65 0 0 -174z m230 0 l0 -174 -65 -4 -65 -3 0 178 0 177 65 0 65 0 0 -174z m230 -1 l0 -175 -65 0 -65 0 0 175 0 175 65 0 65 0 0 -175z m230 0 l0 -175 -60 0 -60 0 0 175 0 175 60 0 60 0 0 -175z m230 0 l0 -175 -60 0 -60 0 0 175 0 175 60 0 60 0 0 -175z m230 0 l0 -175 -60 0 -60 0 0 175 0 175 60 0 60 0 0 -175z m227 33 c-2 -29 -3 -8 -3 47 0 55 1 79 3 53 2 -26 2 -71 0 -100z m-89 -201 c12 -3 11 -5 -5 -6 -23 -1 -23 1 -21 112 l2 112 3 -107 c3 -91 6 -107 21 -111z m89 46 c-2 -21 -4 -6 -4 32 0 39 2 55 4 38 2 -18 2 -50 0 -70z m-9 -50 c-10 -2 -28 -2 -40 0 -13 2 -5 4 17 4 22 1 32 -1 23 -4z m1764 -90 c-5 -59 -10 -63 -11 -10 -1 26 3 47 7 47 4 0 6 -17 4 -37z m338 -7 l0 -44 -60 -4 -60 -3 0 48 0 47 60 0 60 0 0 -44z m230 -3 l0 -48 -60 0 -60 0 0 48 0 47 60 0 60 0 0 -47z m238 0 l-3 -47 -60 1 -60 0 -3 47 -3 46 66 0 66 0 -3 -47z m232 -3 l0 -51 -61 3 -62 3 -1 48 -1 47 63 0 62 0 0 -50z m230 0 l0 -50 -60 0 -60 0 0 50 0 50 60 0 60 0 0 -50z m230 0 l0 -50 -60 0 -60 0 0 50 0 50 60 0 60 0 0 -50z m238 3 l-3 -48 -62 -3 -63 -3 0 51 0 50 66 0 65 0 -3 -47z m232 -3 l0 -50 -65 0 -65 0 0 50 0 50 65 0 65 0 0 -50z m230 0 l0 -50 -65 0 -65 0 0 50 0 50 65 0 65 0 0 -50z m-2093 -7 c-3 -10 -5 -4 -5 12 0 17 2 24 5 18 2 -7 2 -21 0 -30z"/>
          <path d="M7870 15805 l0 -165 50 0 50 0 0 165 0 165 -50 0 -50 0 0 -165z"/>
          <path d="M10192 15535 l-3 -35 51 0 51 0 -3 35 c-2 35 -3 35 -48 35 -45 0 -46 0 -48 -35z"/>
          <path d="M27757 15672 c-21 -22 -31 -96 -19 -136 4 -16 18 -36 29 -43 19 -13 24 -12 42 6 17 17 21 34 21 84 0 91 -34 132 -73 89z"/>
          <path d="M28146 15674 c-22 -22 -29 -57 -24 -116 6 -59 28 -84 60 -67 27 15 40 57 35 112 -4 43 -28 87 -48 87 -4 0 -15 -7 -23 -16z"/>
          <path d="M28524 15669 c-15 -16 -19 -36 -19 -86 0 -56 3 -67 23 -83 44 -36 72 1 72 96 0 41 -5 59 -20 74 -25 25 -32 25 -56 -1z"/>
          <path d="M28724 15669 c-15 -16 -19 -36 -19 -86 0 -56 3 -67 23 -83 44 -36 72 1 72 96 0 41 -5 59 -20 74 -25 25 -32 25 -56 -1z"/>
          <path d="M28916 15668 c-34 -53 -28 -149 11 -175 19 -13 24 -12 42 6 17 17 21 34 21 84 0 92 -40 138 -74 85z"/>
          <path d="M29306 15674 c-22 -22 -29 -57 -24 -116 6 -59 28 -84 60 -67 27 15 40 57 35 112 -4 43 -28 87 -48 87 -4 0 -15 -7 -23 -16z"/>
          <path d="M29684 15669 c-15 -16 -19 -36 -19 -86 0 -56 3 -67 23 -83 44 -36 72 1 72 96 0 41 -5 59 -20 74 -25 25 -32 25 -56 -1z"/>
          <path d="M30070 15670 c-29 -29 -29 -141 1 -171 18 -18 23 -19 42 -6 40 26 46 139 10 180 -20 22 -28 22 -53 -3z"/>
          <path d="M30651 15664 c-47 -60 -14 -200 43 -178 47 18 48 165 2 196 -17 12 -23 10 -45 -18z"/>
          <path d="M27940 15111 c-16 -30 -12 -133 6 -159 19 -27 36 -28 59 -2 23 25 27 139 6 164 -18 22 -58 20 -71 -3z"/>
          <path d="M28326 15108 c-30 -42 -15 -158 20 -172 37 -14 64 29 64 102 0 53 -21 92 -50 92 -10 0 -26 -10 -34 -22z"/>
          <path d="M28719 15113 c-22 -26 -18 -136 5 -162 24 -26 31 -26 56 -1 22 22 28 108 10 154 -11 30 -50 35 -71 9z"/>
          <path d="M28908 15108 c-20 -37 -16 -132 6 -157 24 -27 41 -27 60 1 18 26 22 129 6 159 -15 26 -56 25 -72 -3z"/>
          <path d="M5550 14417 c-132 -37 -219 -146 -228 -283 -9 -136 54 -246 172 -304 127 -63 271 -38 370 65 121 124 113 339 -17 451 -83 70 -200 98 -297 71z m-24 -284 c0 -18 3 -36 7 -39 20 -20 -10 -64 -43 -64 -26 0 -53 29 -44 49 4 9 6 29 5 44 -2 40 6 49 42 45 29 -3 32 -7 33 -35z m122 21 c44 -30 23 -114 -29 -114 -23 0 -32 6 -40 27 -12 33 -3 80 19 93 23 13 24 12 50 -6z m107 -19 c0 -22 -31 -33 -47 -17 -17 17 -1 44 24 40 15 -2 23 -10 23 -23z m24 -32 c-37 -66 -46 -79 -54 -71 -9 9 59 128 73 128 9 0 3 -20 -19 -57z m48 -29 c8 -21 -19 -46 -40 -38 -17 6 -23 35 -10 47 12 13 44 7 50 -9z"/>
          <path d="M5474 14139 c-10 -17 13 -36 27 -22 12 12 4 33 -11 33 -5 0 -12 -5 -16 -11z"/>
          <path d="M5472 14073 c2 -10 10 -18 18 -18 8 0 16 8 18 18 2 12 -3 17 -18 17 -15 0 -20 -5 -18 -17z"/>
          <path d="M5604 14126 c-10 -25 0 -61 18 -64 19 -4 32 29 23 58 -7 23 -33 27 -41 6z"/>
          <path d="M5720 14135 c0 -8 5 -15 10 -15 6 0 10 7 10 15 0 8 -4 15 -10 15 -5 0 -10 -7 -10 -15z"/>
          <path d="M5790 14060 c0 -5 5 -10 10 -10 6 0 10 5 10 10 0 6 -4 10 -10 10 -5 0 -10 -4 -10 -10z"/>
          <path d="M10350 12620 c-30 -11 -79 -20 -109 -20 -50 0 -57 -3 -102 -45 -42 -39 -54 -45 -92 -45 -31 0 -49 -6 -62 -20 -13 -14 -31 -20 -60 -20 -38 0 -75 -21 -75 -43 0 -14 66 -47 93 -47 15 0 27 -4 27 -10 0 -19 -65 -10 -105 15 -73 45 -129 26 -161 -54 -10 -25 -28 -45 -53 -59 -38 -22 -56 -44 -44 -56 14 -13 59 -5 100 20 24 14 54 24 65 22 17 -2 8 -11 -40 -35 -50 -26 -74 -33 -121 -33 -67 0 -113 -27 -173 -101 -54 -67 -61 -86 -68 -185 -8 -93 -29 -158 -57 -168 -26 -10 -28 3 -4 28 22 24 52 148 39 162 -14 13 -76 -37 -91 -74 -8 -20 -27 -48 -41 -61 -19 -18 -26 -34 -26 -62 0 -21 -3 -44 -6 -53 -10 -25 -26 -19 -18 7 l6 22 -25 -23 c-16 -15 -36 -58 -55 -115 -43 -131 -48 -163 -26 -175 17 -9 16 -12 -8 -49 -23 -33 -27 -52 -33 -153 -6 -108 -5 -118 15 -143 12 -14 20 -34 18 -44 -5 -30 30 -26 83 8 48 31 53 32 129 26 l78 -5 -10 30 c-6 16 -8 49 -6 73 4 32 0 51 -13 72 -24 36 -24 99 0 160 28 73 34 126 21 202 -13 80 -8 96 46 143 26 23 32 35 28 56 -3 15 -1 56 5 91 13 78 36 105 130 155 36 19 77 46 90 60 25 26 41 33 41 17 0 -17 -56 -64 -105 -88 -67 -34 -115 -70 -124 -96 -5 -12 -11 -43 -15 -69 l-7 -48 31 31 c27 28 36 31 69 25 24 -3 56 0 85 10 54 19 83 14 124 -21 17 -14 38 -25 48 -25 25 1 113 80 97 86 -33 14 -80 53 -100 83 -25 36 -30 92 -13 135 11 29 137 158 144 148 8 -13 -19 -51 -53 -76 -102 -76 -108 -177 -14 -241 45 -30 50 -31 58 -4 8 25 62 59 93 59 22 0 23 3 15 33 -4 17 -8 60 -8 94 0 51 4 66 22 85 27 27 43 16 18 -12 -27 -30 -31 -116 -8 -160 19 -37 21 -37 99 -25 31 5 31 6 36 74 3 37 12 82 21 99 l15 32 -60 40 c-53 35 -67 40 -119 40 -63 0 -79 13 -29 24 54 10 130 -14 177 -56 31 -29 57 -17 49 23 -4 22 -2 29 7 26 19 -6 12 -67 -16 -132 -15 -33 -27 -79 -27 -102 0 -37 3 -43 20 -43 12 0 37 -8 58 -19 20 -10 74 -29 119 -41 104 -28 167 -71 248 -170 l62 -75 69 3 c71 3 114 21 114 47 0 8 5 15 10 15 17 0 11 -36 -10 -55 -11 -10 -46 -22 -77 -26 -70 -10 -111 -45 -119 -104 -3 -22 -10 -53 -16 -68 -13 -33 -45 -54 -60 -39 -7 7 -3 12 9 16 23 8 43 46 43 84 0 15 9 45 21 66 20 38 20 38 1 52 -11 8 -43 43 -72 78 -67 85 -149 140 -241 161 -39 8 -89 25 -111 36 -38 20 -42 20 -81 4 -23 -9 -76 -19 -117 -22 -90 -7 -128 -24 -136 -61 -12 -57 -17 -63 -52 -86 -64 -40 -68 -49 -43 -105 11 -28 21 -70 21 -95 0 -35 4 -48 20 -56 27 -14 55 -5 80 27 23 29 35 26 25 -7 -9 -28 -65 -55 -99 -46 -32 8 -46 34 -51 94 -4 51 -40 142 -56 142 -6 0 -28 14 -50 32 l-39 31 -59 -18 c-34 -10 -70 -15 -85 -11 -37 9 -65 -9 -85 -57 -10 -23 -38 -61 -61 -85 -40 -40 -42 -45 -34 -80 16 -67 9 -182 -15 -240 -31 -78 -28 -117 12 -157 19 -19 52 -38 78 -45 24 -7 66 -23 93 -36 27 -14 59 -24 70 -22 19 3 21 9 18 53 -3 41 1 57 22 88 l26 38 -30 87 c-17 48 -42 104 -55 124 -28 41 -30 48 -15 48 17 0 60 -74 80 -137 10 -34 26 -75 34 -91 21 -40 77 -88 122 -102 88 -29 229 15 303 95 l38 41 6 119 c5 114 5 120 -19 154 -13 20 -24 46 -24 59 0 62 -60 111 -120 98 -17 -3 -30 -1 -30 4 0 17 51 23 91 11 44 -13 79 -58 79 -101 0 -14 11 -42 25 -62 23 -34 24 -42 20 -140 -3 -56 -5 -113 -5 -126 0 -34 -76 -110 -144 -144 -64 -32 -147 -46 -210 -34 -19 4 -58 22 -85 41 l-50 33 -21 -33 c-25 -40 -25 -44 2 -119 15 -41 37 -75 67 -104 46 -45 50 -66 6 -38 -30 20 -85 93 -85 114 0 10 -5 12 -17 7 -27 -12 -60 -7 -101 14 -34 18 -153 61 -167 61 -3 0 -5 -20 -5 -43 0 -32 8 -56 30 -88 35 -52 45 -94 31 -132 -13 -33 -36 -38 -24 -4 12 36 7 77 -13 98 -14 14 -40 21 -96 25 -74 7 -78 6 -124 -25 -26 -17 -60 -31 -76 -31 -31 0 -36 -11 -14 -30 8 -6 22 -35 32 -63 23 -74 55 -104 123 -118 31 -6 77 -24 103 -41 40 -25 53 -28 90 -23 36 5 54 0 112 -30 79 -39 133 -45 194 -19 l37 16 -37 32 c-21 18 -38 36 -38 40 0 16 24 2 75 -44 50 -45 60 -50 103 -50 30 0 59 8 81 21 l33 20 -40 35 -40 34 0 107 c1 126 7 139 77 149 25 4 55 13 66 20 13 9 50 14 113 14 55 0 106 5 125 13 30 13 34 20 51 93 17 76 17 79 0 89 -32 18 -109 93 -127 123 -22 39 -5 51 18 14 64 -100 178 -162 300 -162 44 0 112 -27 133 -53 28 -34 71 -32 148 8 73 38 186 62 170 36 -4 -6 -18 -11 -31 -11 -13 0 -35 -4 -49 -10 -24 -9 -26 -14 -26 -70 0 -79 -17 -117 -73 -163 -57 -47 -59 -66 -12 -131 25 -36 35 -60 35 -88 0 -21 -4 -38 -10 -38 -5 0 -10 15 -10 33 0 21 -12 49 -35 81 -19 27 -35 58 -35 68 0 23 -2 22 -47 -2 -26 -14 -57 -20 -98 -20 -52 0 -68 -5 -114 -35 -66 -42 -122 -51 -215 -35 -68 12 -191 53 -210 71 -22 20 5 16 76 -11 88 -34 202 -55 250 -46 19 3 58 22 88 41 46 30 63 35 113 35 33 0 73 7 90 15 56 27 151 104 170 137 16 30 25 138 11 138 -3 0 -26 -12 -50 -26 -52 -31 -111 -29 -147 4 -37 33 -69 45 -142 53 -38 4 -84 10 -101 14 -30 7 -31 6 -45 -42 -7 -26 -14 -67 -14 -90 0 -56 40 -98 114 -120 53 -15 55 -15 110 11 56 25 71 29 104 27 29 -2 19 -21 -12 -21 -16 0 -54 -12 -86 -26 -54 -25 -60 -26 -114 -14 -41 9 -65 22 -92 49 -20 20 -38 42 -41 50 -3 12 -10 12 -38 3 -18 -7 -73 -12 -122 -12 -59 0 -96 -5 -111 -14 -12 -8 -42 -17 -66 -20 -24 -3 -49 -10 -56 -16 -16 -13 -17 -199 -1 -219 6 -7 28 -25 50 -39 22 -13 62 -45 89 -71 l49 -46 117 -3 c249 -8 270 -7 283 6 9 9 9 15 0 24 -16 16 -15 28 1 28 7 0 27 -15 44 -34 37 -43 91 -56 128 -32 22 14 25 24 25 71 0 30 5 55 10 55 6 0 10 -29 10 -66 l0 -66 38 5 c27 3 49 -2 84 -22 l47 -25 23 21 c24 23 91 42 146 43 53 0 36 -17 -24 -23 -106 -11 -136 -61 -60 -103 21 -12 56 -25 77 -28 22 -3 39 -11 39 -17 0 -16 -78 -1 -125 25 -22 11 -44 31 -50 44 -5 12 -18 22 -29 22 -10 0 -34 10 -53 21 -32 20 -44 21 -131 15 -84 -6 -102 -4 -135 13 -34 17 -41 18 -66 5 -16 -8 -45 -15 -65 -16 -20 -1 -36 -5 -36 -9 0 -12 101 -66 148 -79 31 -8 58 -8 102 0 85 15 123 5 191 -51 86 -72 116 -80 162 -41 9 9 42 17 73 19 47 3 103 25 152 59 2 1 -2 20 -9 42 -16 54 -6 86 35 112 44 26 49 44 50 153 l1 88 -43 19 c-35 16 -47 28 -64 67 -11 26 -30 58 -41 70 -11 13 -17 26 -14 30 12 12 54 -37 72 -83 14 -37 25 -49 64 -67 l46 -22 1 -95 c2 -115 -6 -139 -57 -179 -44 -36 -46 -44 -23 -101 18 -45 32 -49 80 -19 19 11 62 28 95 37 72 20 96 46 101 107 2 37 1 40 -22 37 -14 -1 -35 -14 -48 -28 -12 -14 -28 -24 -34 -22 -6 2 1 18 19 38 25 28 38 34 87 38 70 6 86 24 86 100 0 72 -18 111 -86 178 -77 75 -251 214 -291 231 -45 18 -176 17 -213 -2 -16 -9 -37 -29 -45 -45 -14 -27 -35 -41 -35 -22 0 19 42 73 69 86 43 23 187 25 229 4 40 -21 56 -15 72 23 10 23 10 42 0 89 -18 85 -9 223 18 284 21 46 21 49 5 62 -10 7 -20 14 -23 14 -3 0 -18 -46 -34 -103 -20 -74 -26 -113 -21 -140 5 -24 3 -37 -3 -37 -6 0 -14 16 -18 35 -6 34 6 100 42 225 22 78 11 140 -34 209 -7 10 -20 2 -53 -34 -74 -79 -88 -125 -49 -160 21 -19 26 -35 10 -35 -21 0 -50 45 -50 78 0 43 13 67 63 119 23 24 37 48 34 56 -3 8 -25 17 -51 20 -81 11 -143 59 -134 104 3 14 8 10 26 -18 24 -40 66 -63 104 -57 38 5 36 62 -6 157 -41 90 -46 139 -16 166 17 16 20 16 20 2 0 -9 -4 -19 -10 -22 -18 -11 -10 -57 24 -134 43 -95 49 -120 38 -151 -8 -21 -5 -27 20 -42 35 -22 48 -23 48 -3 0 8 24 31 54 50 76 48 79 70 27 183 -23 49 -41 96 -41 105 0 65 -65 102 -188 110 -79 5 -85 4 -105 -19 -11 -13 -27 -24 -35 -24 -8 0 -29 -15 -48 -34 -27 -27 -34 -42 -34 -73 0 -55 18 -75 60 -71 30 2 35 7 38 31 4 36 22 35 22 -2 0 -45 -20 -55 -98 -47 -93 9 -106 -4 -100 -103 5 -88 23 -116 106 -156 78 -38 110 -69 123 -119 6 -23 21 -52 33 -66 47 -52 56 -73 56 -135 0 -60 -25 -135 -50 -150 -21 -13 -20 0 5 50 17 33 25 65 25 101 0 46 -5 57 -39 99 -22 26 -44 66 -50 89 -13 52 -34 72 -124 116 -67 33 -73 39 -93 88 -36 91 -80 125 -177 136 -64 7 -108 26 -147 62 -36 33 -78 53 -101 47 -11 -3 -27 -20 -36 -37 -14 -25 -18 -28 -21 -12 -2 10 12 42 32 70 41 60 44 83 15 120 -36 46 -76 60 -168 61 -47 0 -86 4 -88 10 -2 6 31 10 85 10 71 0 96 -4 135 -24 36 -17 51 -21 60 -12 6 6 25 11 41 11 53 0 60 11 46 68 -11 50 -7 92 10 92 4 0 8 -17 7 -37 0 -21 4 -56 8 -77 10 -46 -9 -66 -60 -66 -41 0 -58 -17 -44 -43 11 -19 8 -57 -5 -88 -5 -12 0 -19 21 -26 15 -6 48 -27 73 -48 54 -45 73 -53 148 -61 62 -6 85 -16 119 -46 l22 -20 7 38 c3 22 13 46 20 54 11 13 11 22 1 52 -17 49 -42 75 -99 104 -83 42 -107 100 -74 178 19 45 91 98 164 120 46 15 20 -12 -43 -43 -70 -35 -103 -72 -112 -126 -8 -47 15 -78 78 -111 58 -29 99 -68 99 -95 0 -19 25 -49 41 -49 5 0 9 24 9 53 0 30 6 61 15 74 14 20 13 22 -25 28 -49 8 -85 36 -98 75 -15 43 4 48 22 6 16 -39 33 -50 90 -60 44 -8 87 6 122 41 22 22 28 23 116 17 51 -4 108 -13 126 -20 24 -10 39 -11 53 -4 10 6 30 8 43 4 40 -10 96 13 96 40 0 12 -6 28 -12 35 -11 10 -9 12 7 9 15 -2 21 -12 23 -40 3 -31 -1 -39 -24 -51 l-27 -14 25 -17 c13 -9 49 -23 78 -32 92 -27 136 -96 95 -150 -21 -27 -19 -31 25 -59 38 -24 42 -24 69 -10 39 20 71 66 71 103 0 18 -13 45 -35 73 -37 47 -53 95 -37 111 6 6 11 -2 15 -22 4 -17 22 -51 42 -77 19 -25 35 -54 35 -64 0 -15 8 -19 38 -19 28 0 45 -7 62 -25 20 -22 22 -30 16 -84 l-7 -60 54 -34 c41 -26 58 -45 71 -77 10 -24 25 -44 36 -47 25 -7 26 -23 1 -23 -22 0 -39 19 -61 66 -8 19 -37 47 -65 66 l-50 34 3 63 c3 76 -13 101 -64 101 -26 0 -34 -5 -42 -29 -6 -16 -26 -41 -45 -57 l-35 -27 28 -28 c46 -47 45 -105 -2 -156 -30 -32 -17 -53 31 -53 30 0 49 8 81 35 70 59 129 45 153 -36 8 -25 30 -66 50 -93 40 -51 43 -72 26 -142 -9 -35 -9 -59 0 -100 10 -43 10 -59 -1 -81 -19 -38 -69 -64 -137 -70 l-60 -6 -7 -41 c-8 -52 -64 -109 -119 -125 -51 -14 -128 -15 -120 -1 3 6 21 10 38 10 56 0 110 21 145 56 28 28 33 39 30 71 -3 32 -7 38 -36 45 -28 8 -38 18 -57 62 -21 47 -29 55 -67 67 -38 12 -44 19 -53 53 -16 65 -115 146 -178 146 -21 0 -25 -7 -35 -64 -16 -85 -15 -111 7 -175 17 -49 18 -59 5 -103 -22 -72 -10 -88 66 -88 76 0 105 23 95 76 -7 40 11 48 21 9 9 -37 -3 -73 -32 -92 -34 -22 -125 -21 -160 1 -27 18 -29 36 -12 100 10 38 9 52 -10 110 -21 63 -21 69 -7 137 18 83 17 79 6 79 -17 0 -54 -106 -59 -168 -3 -34 1 -103 8 -152 12 -84 12 -91 -8 -123 l-20 -35 31 -23 c17 -12 72 -57 123 -100 89 -76 92 -77 129 -69 20 5 51 6 69 3 17 -2 45 1 61 7 l30 13 -30 9 c-16 5 -55 7 -85 4 -51 -5 -54 -5 -35 10 16 13 38 14 120 9 70 -5 109 -3 130 6 17 7 60 13 97 13 58 1 71 5 104 31 20 17 51 55 67 84 27 47 31 67 37 155 3 56 11 110 17 122 9 16 9 35 0 82 -11 60 -19 73 -32 52 -4 -6 -11 -8 -16 -4 -5 3 7 24 27 46 30 34 35 45 30 72 -4 17 -10 51 -14 76 -10 54 -21 77 -56 109 -14 14 -26 30 -26 38 0 20 10 16 32 -12 11 -14 24 -25 29 -25 15 0 10 53 -11 99 -11 24 -20 59 -20 78 0 81 -53 133 -134 133 -25 0 -46 5 -46 10 0 6 7 10 15 10 8 0 15 4 15 9 0 13 -50 51 -66 51 -8 0 -25 18 -39 40 -27 42 -76 78 -162 117 -49 23 -54 23 -83 8 -27 -14 -30 -14 -30 0 0 8 5 15 10 15 20 0 9 15 -25 38 -46 29 -91 38 -110 22 -20 -17 -31 -5 -15 16 12 13 11 17 -1 25 -8 5 -25 9 -39 9 -39 0 -102 20 -128 40 -15 13 -40 19 -75 19 -29 0 -72 7 -96 15 -58 21 -96 20 -166 -4 -32 -11 -77 -20 -100 -20 -25 0 -48 -6 -54 -14 -15 -17 -67 -37 -75 -28 -4 3 3 11 16 18 22 12 21 12 -16 28 -56 23 -76 20 -112 -19 -30 -33 -64 -46 -64 -25 0 6 7 10 15 10 8 0 15 5 15 10 0 6 -14 10 -30 10 -17 0 -53 11 -80 25 -27 14 -51 25 -52 25 -2 -1 -28 -10 -58 -20z m803 -82 c20 -6 37 -15 37 -20 0 -11 -10 -10 -77 7 -79 21 -140 7 -183 -41 -16 -19 -30 -41 -30 -49 0 -8 -4 -15 -10 -15 -16 0 -12 30 10 65 42 68 135 87 253 53z m-697 -910 c36 -51 48 -91 35 -117 -8 -15 -2 -27 32 -64 54 -57 92 -76 170 -84 47 -4 71 -2 94 10 29 16 31 20 38 100 3 45 3 95 0 110 -8 29 8 38 19 11 9 -25 7 -146 -4 -183 -8 -30 -6 -39 17 -69 35 -46 83 -65 170 -66 60 -1 76 3 103 22 36 27 52 22 25 -8 -28 -30 -81 -43 -153 -37 -80 8 -142 37 -166 77 -13 24 -22 29 -34 23 -10 -4 -53 -8 -97 -7 -93 1 -139 20 -197 82 -34 38 -39 40 -110 44 -46 3 -88 0 -113 -8 -41 -14 -51 -12 -41 5 12 19 78 30 138 24 39 -4 62 -2 73 7 25 21 18 67 -20 121 -25 36 -35 62 -35 88 0 55 14 60 20 7 4 -27 18 -61 36 -88z m-821 -18 c12 -12 38 -27 57 -33 30 -11 47 -25 33 -28 -38 -9 -135 57 -135 91 0 26 -14 32 -46 19 -40 -15 -44 -25 -43 -105 1 -70 -19 -134 -41 -134 -14 0 -13 6 6 42 11 22 16 54 15 101 -2 87 13 114 69 123 29 5 40 11 40 24 0 9 3 20 8 24 4 4 8 -17 10 -47 2 -42 8 -59 27 -77z m1348 -559 c43 -28 58 -57 67 -124 4 -34 11 -74 15 -89 5 -21 1 -32 -19 -53 -16 -16 -26 -37 -26 -56 0 -44 -34 -104 -67 -117 -45 -18 -103 -26 -103 -14 0 6 17 14 38 18 52 9 70 21 92 57 26 42 25 68 -6 127 -21 40 -24 56 -19 94 10 63 25 58 23 -6 -1 -54 16 -98 39 -98 16 0 36 37 27 51 -3 6 -10 40 -14 76 -9 67 -39 115 -82 129 -20 6 -25 24 -5 24 6 0 25 -8 40 -19z m-1693 -147 c14 -10 42 -33 63 -53 l38 -36 114 0 c77 0 118 -4 126 -12 19 -19 7 -24 -32 -13 -19 6 -71 7 -119 4 l-86 -7 -59 52 c-60 53 -91 67 -125 58 -13 -3 -20 0 -20 9 0 20 69 18 100 -2z"/>
          <path d="M11312 12332 c-8 -2 -7 -12 3 -32 8 -16 15 -37 15 -47 0 -10 16 -51 35 -91 61 -127 57 -173 -20 -220 -47 -28 -62 -55 -51 -95 3 -12 12 -50 20 -85 20 -86 26 -92 103 -92 70 0 104 -13 170 -66 27 -22 46 -48 55 -75 13 -43 17 -46 81 -75 37 -16 39 -16 65 3 23 18 27 28 27 72 -1 62 19 64 23 2 4 -49 -16 -86 -54 -103 -28 -13 -25 -39 7 -73 17 -17 32 -20 102 -20 131 1 177 38 155 123 -10 39 -11 40 -36 31 -34 -13 -85 -4 -106 19 -9 10 -20 43 -26 73 -15 80 -58 109 -108 73 -32 -22 -43 -7 -13 17 57 46 125 8 141 -80 11 -62 21 -77 55 -85 55 -14 88 19 101 102 4 32 0 44 -35 89 -21 29 -42 68 -46 85 -16 75 -63 87 -124 33 -33 -30 -45 -35 -89 -35 -29 0 -56 6 -62 13 -5 6 -20 25 -31 40 -21 27 -23 28 -109 25 -75 -3 -91 0 -109 16 -12 11 -21 26 -21 34 0 12 7 9 26 -9 23 -22 32 -23 111 -21 62 2 91 -1 108 -12 21 -14 24 -13 44 14 45 62 14 118 -98 175 -59 29 -65 43 -40 84 10 17 19 38 19 47 0 27 -45 61 -112 83 -35 12 -74 30 -84 40 -20 18 -70 31 -92 23z m216 -552 c13 -22 43 -26 73 -10 15 8 19 7 19 -4 0 -16 -21 -26 -56 -26 -36 0 -64 18 -64 40 0 26 12 25 28 0z"/>
          <path d="M9394 10663 l-30 -4 7 -59 c7 -65 46 -143 80 -161 12 -6 30 -31 40 -55 11 -24 26 -44 34 -44 8 0 29 19 47 42 94 119 125 132 356 153 89 7 167 17 172 20 10 6 -60 76 -96 98 -7 4 -28 -3 -50 -18 -28 -19 -50 -25 -91 -25 -30 0 -63 5 -74 11 -16 8 -30 7 -60 -5 -67 -27 -135 -21 -215 19 -38 19 -73 34 -79 33 -5 0 -24 -3 -41 -5z"/>
          <path d="M10193 10563 c-65 -9 -69 -76 -7 -109 20 -10 46 -31 57 -46 19 -26 19 -28 3 -53 -15 -23 -15 -26 -1 -31 43 -17 150 28 189 79 40 52 34 68 -38 116 -67 44 -122 56 -203 44z"/>
          <path d="M10080 10529 c-19 -4 -80 -11 -135 -14 -211 -13 -276 -37 -332 -121 -19 -29 -44 -56 -55 -60 -30 -9 -16 -28 38 -46 90 -31 157 -21 324 49 52 22 118 48 146 57 28 9 60 23 70 30 17 13 18 15 2 33 -9 10 -18 32 -20 48 -3 30 -4 31 -38 24z"/>
          <path d="M10152 10410 c-12 -10 -46 -26 -75 -36 -28 -9 -93 -34 -143 -55 -51 -21 -112 -44 -137 -51 l-45 -12 56 -19 c104 -36 192 -20 327 60 102 61 118 86 73 117 -28 20 -28 20 -56 -4z"/>
          <path d="M10130 10270 c-36 -22 -85 -46 -110 -55 -39 -13 -48 -22 -67 -62 -12 -27 -45 -77 -73 -112 -60 -73 -57 -82 23 -89 43 -3 63 1 103 21 65 33 178 153 263 280 l32 47 -24 0 c-14 0 -37 2 -53 5 -21 3 -46 -6 -94 -35z"/>
          <path d="M6664 12173 c-27 -64 5 -154 49 -138 35 14 46 125 15 163 -20 24 -48 13 -64 -25z"/>
          <path d="M7006 12188 c-16 -23 -21 -92 -10 -122 12 -31 42 -38 64 -16 15 15 20 33 20 74 0 79 -40 113 -74 64z"/>
          <path d="M7176 12188 c-16 -23 -21 -92 -10 -122 12 -31 42 -38 64 -16 38 38 19 160 -25 160 -8 0 -21 -10 -29 -22z"/>
          <path d="M7504 12174 c-27 -64 6 -155 49 -138 35 13 44 125 15 162 -20 24 -48 13 -64 -24z"/>
          <path d="M7681 12197 c-31 -38 -24 -139 10 -158 35 -18 59 13 59 78 0 30 -5 63 -10 74 -12 22 -43 25 -59 6z"/>
          <path d="M7846 12188 c-16 -23 -21 -92 -10 -122 12 -31 42 -38 64 -16 22 22 28 106 10 141 -14 26 -45 24 -64 -3z"/>
          <path d="M8016 12188 c-30 -43 -12 -158 25 -158 5 0 18 9 29 20 38 38 19 160 -25 160 -8 0 -21 -10 -29 -22z"/>
          <path d="M6006 11654 c-31 -30 -34 -116 -5 -150 16 -20 47 -17 59 5 18 34 12 126 -8 144 -23 21 -27 21 -46 1z"/>
          <path d="M6176 11657 c-27 -20 -34 -108 -12 -142 20 -30 37 -32 59 -7 22 24 23 110 1 140 -18 26 -24 27 -48 9z"/>
          <path d="M6336 11648 c-32 -46 -11 -158 29 -158 24 0 45 42 45 90 0 48 -21 90 -45 90 -8 0 -21 -10 -29 -22z"/>
          <path d="M6507 11652 c-21 -23 -23 -120 -4 -146 17 -24 48 -17 65 14 18 35 10 120 -14 137 -23 17 -28 17 -47 -5z"/>
          <path d="M6846 11654 c-31 -30 -34 -116 -5 -150 16 -20 47 -17 59 5 18 34 12 126 -8 144 -23 21 -27 21 -46 1z"/>
          <path d="M7016 11657 c-27 -20 -34 -108 -12 -142 20 -30 37 -32 59 -7 22 24 23 110 1 140 -18 26 -24 27 -48 9z"/>
          <path d="M7347 11652 c-21 -23 -23 -120 -4 -146 17 -24 48 -17 65 14 18 35 10 120 -14 137 -23 17 -28 17 -47 -5z"/>
          <path d="M7686 11654 c-31 -30 -34 -116 -5 -150 16 -20 47 -17 59 5 18 34 12 126 -8 144 -23 21 -27 21 -46 1z"/>
          <path d="M7856 11657 c-27 -20 -34 -108 -12 -142 20 -30 37 -32 59 -7 22 24 23 110 1 140 -18 26 -24 27 -48 9z"/>
          <path d="M8016 11648 c-32 -46 -11 -158 29 -158 24 0 45 42 45 90 0 48 -21 90 -45 90 -8 0 -21 -10 -29 -22z"/>
          <path d="M3989 11104 c-7 -9 -13 -40 -13 -69 0 -56 15 -85 44 -85 29 0 44 29 44 85 0 56 -15 85 -44 85 -10 0 -24 -7 -31 -16z"/>
          <path d="M4326 11098 c-33 -47 -12 -148 30 -148 30 0 44 27 44 85 0 25 -5 55 -10 66 -14 26 -45 24 -64 -3z"/>
          <path d="M4490 11101 c-5 -11 -10 -41 -10 -66 0 -59 14 -85 46 -85 17 0 27 8 34 26 13 34 13 87 -2 119 -14 30 -53 34 -68 6z"/>
          <path d="M4650 11101 c-5 -11 -10 -41 -10 -66 0 -59 14 -85 46 -85 17 0 27 8 34 26 13 34 13 87 -2 119 -14 30 -53 34 -68 6z"/>
          <path d="M4989 11104 c-7 -9 -13 -40 -13 -69 0 -56 15 -85 44 -85 29 0 44 29 44 85 0 56 -15 85 -44 85 -10 0 -24 -7 -31 -16z"/>
          <path d="M5326 11098 c-18 -25 -21 -84 -6 -122 7 -18 17 -26 34 -26 32 0 46 26 46 85 0 25 -5 55 -10 66 -14 26 -45 24 -64 -3z"/>
          <path d="M5660 11101 c-5 -11 -10 -41 -10 -66 0 -55 14 -85 40 -85 27 0 50 38 50 85 0 70 -54 114 -80 66z"/>
          <path d="M6500 11101 c-5 -11 -10 -41 -10 -66 0 -55 14 -85 40 -85 27 0 50 38 50 85 0 70 -54 114 -80 66z"/>
          <path d="M6840 11105 c-7 -8 -15 -35 -18 -60 -5 -50 16 -95 46 -95 31 0 42 22 42 85 0 34 -5 66 -12 73 -16 16 -43 15 -58 -3z"/>
          <path d="M7170 11101 c-5 -11 -10 -41 -10 -66 0 -58 14 -85 44 -85 27 0 46 35 46 85 0 50 -19 85 -46 85 -13 0 -28 -9 -34 -19z"/>
          <path d="M7340 11101 c-5 -11 -10 -41 -10 -66 0 -56 14 -85 40 -85 32 0 53 44 48 95 -3 25 -11 52 -18 60 -17 21 -47 19 -60 -4z"/>
          <path d="M7509 11104 c-7 -9 -13 -40 -13 -69 0 -56 15 -85 44 -85 29 0 44 29 44 85 0 56 -15 85 -44 85 -10 0 -24 -7 -31 -16z"/>
          <path d="M7680 11105 c-7 -8 -15 -35 -18 -60 -5 -51 16 -95 48 -95 26 0 40 29 40 85 0 25 -5 55 -10 66 -13 23 -43 25 -60 4z"/>
          <path d="M8010 11101 c-5 -11 -10 -41 -10 -66 0 -59 14 -85 46 -85 28 0 44 31 44 85 0 54 -16 85 -44 85 -15 0 -30 -8 -36 -19z"/>
          <path d="M6336 10558 c-32 -46 -11 -158 29 -158 24 0 45 42 45 90 0 48 -21 90 -45 90 -8 0 -21 -10 -29 -22z"/>
          <path d="M6676 10565 c-22 -22 -30 -78 -17 -118 30 -89 104 -26 86 71 -11 61 -37 78 -69 47z"/>
          <path d="M7006 10558 c-32 -46 -11 -158 29 -158 24 0 45 42 45 90 0 48 -21 90 -45 90 -8 0 -21 -10 -29 -22z"/>
          <path d="M7176 10558 c-32 -46 -11 -158 29 -158 24 0 45 42 45 90 0 48 -21 90 -45 90 -8 0 -21 -10 -29 -22z"/>
          <path d="M7347 10562 c-25 -28 -23 -123 3 -147 10 -9 26 -15 35 -11 33 12 46 99 22 146 -16 31 -38 36 -60 12z"/>
          <path d="M7680 10565 c-31 -37 -20 -148 15 -161 32 -13 55 25 55 87 0 76 -36 115 -70 74z"/>
          <path d="M8016 10558 c-32 -46 -11 -158 29 -158 24 0 45 42 45 90 0 48 -21 90 -45 90 -8 0 -21 -10 -29 -22z"/>
          <path d="M28607 9569 c-38 -22 -45 -142 -10 -181 20 -23 28 -23 53 2 16 16 20 33 20 81 0 84 -23 120 -63 98z"/>
          <path d="M28993 9572 c-20 -13 -33 -51 -33 -96 0 -85 34 -126 73 -87 23 23 34 103 18 143 -11 30 -41 50 -58 40z"/>
          <path d="M29194 9572 c-21 -14 -34 -51 -34 -96 0 -86 34 -126 74 -86 29 29 30 138 2 169 -21 23 -25 24 -42 13z"/>
          <path d="M29568 9560 c-20 -16 -23 -27 -23 -84 0 -53 4 -69 21 -86 39 -40 74 0 74 85 0 84 -30 120 -72 85z"/>
          <path d="M29767 9569 c-38 -22 -44 -141 -9 -181 19 -23 27 -23 52 2 16 16 20 33 20 81 0 84 -23 120 -63 98z"/>
          <path d="M28690 9005 c-32 -38 -20 -165 16 -179 39 -15 64 25 64 102 0 75 -46 118 -80 77z"/>
          <path d="M28874 8985 c-38 -92 16 -209 68 -145 23 29 25 126 2 158 -23 33 -52 28 -70 -13z"/>
          <path d="M30228 8998 c-19 -35 -15 -134 7 -158 23 -26 40 -25 59 2 18 26 22 129 6 159 -15 26 -56 25 -72 -3z"/>
          <path d="M28496 8998 c-23 -32 -22 -129 2 -158 37 -46 82 3 82 89 0 76 -51 117 -84 69z"/>
          <path d="M29080 9005 c-34 -41 -18 -168 22 -181 35 -11 58 27 58 95 0 83 -43 130 -80 86z"/>
          <path d="M29462 8995 c-17 -37 -15 -126 4 -153 19 -27 36 -28 59 -2 22 24 26 123 7 158 -18 31 -56 29 -70 -3z"/>
          <path d="M29654 8996 c-21 -33 -16 -138 8 -162 36 -36 78 15 78 95 0 78 -52 118 -86 67z"/>
          <path d="M30040 9005 c-34 -41 -18 -168 22 -181 35 -11 58 27 58 95 0 83 -43 130 -80 86z"/>
          <path d="M30423 9000 c-18 -29 -16 -131 3 -158 45 -65 103 40 72 133 -15 47 -54 60 -75 25z"/>
          <path d="M28406 8465 c-30 -31 -33 -137 -5 -171 6 -8 20 -14 30 -14 30 0 49 39 49 100 0 82 -36 123 -74 85z"/>
          <path d="M28786 8458 c-24 -34 -22 -140 3 -162 29 -27 54 -16 69 29 32 95 -26 200 -72 133z"/>
          <path d="M28979 8464 c-21 -26 -24 -129 -5 -160 36 -53 86 -10 86 74 0 79 -46 128 -81 86z"/>
          <path d="M29366 8451 c-32 -61 -13 -163 31 -169 31 -5 53 33 53 93 0 93 -52 139 -84 76z"/>
          <path d="M29757 8462 c-39 -43 -26 -174 19 -180 38 -5 54 23 54 97 0 53 -4 72 -18 84 -24 22 -35 21 -55 -1z"/>
          <path d="M30139 8464 c-21 -26 -24 -129 -5 -160 36 -53 86 -10 86 74 0 79 -46 128 -81 86z"/>
        </g>
      </g>
    </g>
  </g>
</svg>