<?xml version="1.0" standalone="no"?>
<!DOCTYPE svg PUBLIC "-//W3C//DTD SVG 20010904//EN"
 "http://www.w3.org/TR/2001/REC-SVG-20010904/DTD/svg10.dtd">
<svg version="1.0" xmlns="http://www.w3.org/2000/svg"
 width="4500.000000pt" height="4500.000000pt" viewBox="0 0 4500.000000 4500.000000"
 preserveAspectRatio="xMidYMid meet">

<g transform="translate(0.000000,4500.000000) scale(0.100000,-0.100000)"
fill="#000000" stroke="none">
<path d="M21652 39249 c-48 -9 -96 -35 -129 -71 -30 -32 -63 -107 -63 -145 0
-26 -5 -32 -27 -37 -16 -3 -548 -76 -1183 -161 -635 -85 -1165 -158 -1177
-160 -19 -4 -25 1 -38 32 -56 133 -201 190 -330 129 -60 -28 -87 -56 -114
-116 -44 -97 -19 -215 59 -282 l37 -33 -231 -507 -231 -508 -41 0 c-55 0 -104
-34 -129 -89 l-20 -44 -404 7 c-222 3 -559 6 -748 6 -303 0 -343 2 -343 15 0
9 -7 29 -14 44 l-15 28 336 309 c185 170 344 315 354 321 14 11 25 9 61 -7 81
-37 170 -15 224 56 26 33 29 46 29 109 0 64 -3 76 -29 109 -78 102 -233 96
-304 -12 -9 -14 -19 -53 -22 -86 l-5 -60 -865 -338 c-476 -186 -875 -341 -887
-344 -17 -4 -25 1 -36 23 -26 48 -90 105 -155 135 -112 54 -250 39 -353 -36
-82 -61 -139 -173 -139 -276 0 -49 25 -146 43 -168 8 -11 7 -16 -3 -22 -8 -5
-768 -531 -1688 -1169 l-1674 -1159 -35 24 c-49 33 -136 34 -183 1 -71 -47
-95 -148 -53 -219 l21 -36 -42 -48 c-23 -27 -69 -81 -102 -120 -55 -66 -414
-492 -639 -758 -55 -65 -163 -194 -240 -285 -1083 -1290 -1400 -1661 -1415
-1655 -86 37 -170 24 -230 -36 -70 -70 -74 -170 -11 -257 l30 -41 -682 -1196
-682 -1196 -35 8 c-123 26 -238 -24 -290 -128 -56 -113 -15 -251 95 -318 25
-15 44 -31 44 -37 1 -5 -181 -806 -402 -1779 l-403 -1768 -53 -4 c-61 -5 -103
-24 -149 -68 -89 -83 -102 -218 -31 -315 34 -48 65 -69 133 -92 l51 -18 62
-2368 c34 -1302 61 -2392 60 -2422 l-2 -54 -48 -14 c-69 -20 -131 -84 -153
-159 -28 -97 -2 -188 72 -253 48 -42 75 -53 159 -60 l70 -6 727 -2015 c401
-1108 731 -2024 734 -2036 4 -16 -4 -27 -34 -48 -22 -15 -52 -50 -68 -79 -68
-124 -12 -287 118 -341 47 -20 138 -20 183 -2 l35 15 90 -127 c49 -70 613
-872 1254 -1782 l1164 -1655 -23 -25 c-44 -48 -59 -91 -59 -165 0 -76 15 -117
63 -168 46 -50 98 -71 176 -71 77 0 118 15 170 65 l30 28 545 -338 c758 -469
1583 -980 3550 -2196 932 -576 1698 -1051 1703 -1055 4 -3 0 -35 -9 -70 -28
-110 7 -224 92 -299 109 -95 279 -96 387 -1 33 30 77 94 93 138 0 1 789 -171
1753 -383 963 -212 1753 -385 1756 -385 3 0 5 -19 5 -42 0 -86 65 -180 150
-216 52 -22 147 -20 195 5 88 46 135 123 135 220 -1 139 -100 237 -240 238
-53 0 -74 -5 -114 -28 l-49 -28 -31 29 c-28 26 -451 418 -741 687 -185 172
-1005 934 -1086 1009 -41 39 -191 179 -332 310 -229 213 -256 241 -243 255 7
9 24 36 36 61 12 25 23 46 24 47 1 1 49 -11 106 -28 218 -63 2119 -621 2195
-645 70 -21 2481 -729 2740 -805 55 -16 623 -183 1263 -371 l1162 -342 0 -44
c0 -128 89 -231 213 -248 98 -14 207 48 252 141 17 37 23 110 13 184 -3 22
133 99 1747 1002 963 537 1782 995 1820 1017 39 22 100 56 138 77 l67 37 0
-105 c0 -57 -3 -158 -6 -224 l-7 -121 -40 -6 c-61 -10 -135 -55 -173 -104
-115 -151 -67 -360 102 -443 66 -32 178 -33 245 -3 134 62 203 227 150 363
-11 30 -18 58 -16 62 4 6 1529 1143 3327 2482 l360 268 22 -20 c57 -54 156
-74 240 -49 55 16 138 99 154 154 25 85 5 183 -50 241 l-20 22 334 453 c527
714 2131 2893 2133 2896 1 1 16 -5 34 -14 18 -9 58 -18 90 -21 107 -10 203 40
259 135 23 41 27 58 27 127 0 67 -4 89 -26 130 -22 43 -74 94 -124 122 -12 7
62 264 395 1373 225 751 413 1373 417 1382 7 15 14 13 60 -15 l52 -31 -6 -57
c-5 -47 -2 -66 17 -104 54 -112 204 -138 292 -50 86 86 68 234 -36 290 -28 15
-36 25 -32 40 6 25 532 2700 552 2810 22 117 19 112 72 120 97 14 161 60 198
140 68 144 -16 312 -171 345 l-30 6 -2 179 c-13 989 -33 2781 -33 2900 l1 150
39 18 c102 47 110 195 14 258 -59 39 -151 21 -200 -38 l-19 -23 -170 55 c-93
31 -227 74 -297 96 -71 22 -128 42 -128 44 0 2 -65 322 -145 711 -80 389 -144
708 -143 710 2 1 100 54 217 118 l214 115 19 -25 c52 -65 166 -98 255 -73 66
18 144 96 162 162 29 101 -11 211 -98 272 -37 26 -53 30 -124 33 l-82 4 -669
1685 -668 1684 42 37 c77 65 107 167 79 267 -15 54 -100 139 -154 154 -55 15
-115 14 -165 -4 -24 -8 -44 -14 -45 -13 -1 2 -224 311 -496 688 -271 377 -780
1083 -1131 1568 l-637 884 26 39 c49 75 41 176 -18 239 -63 65 -149 78 -235
34 l-52 -26 -1118 857 c-616 471 -1378 1056 -1695 1298 l-576 442 26 55 c30
66 39 168 22 247 -27 117 -130 222 -256 258 -150 44 -328 -24 -407 -153 -12
-21 -22 -38 -24 -40 -1 -2 -813 319 -1805 714 -992 394 -1810 719 -1817 722
-10 3 -11 16 -7 44 24 139 -93 271 -241 271 -211 0 -319 -252 -174 -404 l40
-42 -69 -126 c-67 -124 -68 -126 -100 -123 -48 5 -98 -16 -129 -53 l-28 -34
-144 34 c-80 19 -363 86 -630 150 -267 64 -609 145 -760 180 -318 74 -2101
497 -2330 553 -146 35 -155 39 -152 60 2 12 -4 47 -13 78 -35 123 -157 197
-283 173z m-177 -326 c26 -61 62 -100 119 -128 45 -22 66 -26 122 -24 l67 2
249 -569 c137 -313 276 -630 309 -704 32 -74 59 -140 59 -146 0 -6 -9 -19 -20
-29 -10 -9 -24 -33 -31 -52 l-11 -35 -1362 8 c-748 3 -1651 9 -2006 13 -634 6
-645 6 -648 26 -2 11 -16 36 -31 55 l-27 35 230 505 231 505 81 0 c72 0 86 3
129 30 59 37 105 106 112 169 5 39 9 46 32 50 14 3 445 62 956 131 762 103
1378 187 1417 194 4 0 15 -16 23 -36z m1245 -175 c393 -93 904 -214 1135 -270
231 -55 454 -108 495 -118 154 -36 475 -111 800 -188 184 -44 434 -103 555
-132 121 -28 228 -54 238 -56 9 -3 17 -14 17 -25 0 -21 22 -73 41 -100 9 -12
-6 -48 -80 -186 l-92 -171 -46 14 c-129 39 -268 -5 -353 -112 -25 -31 -40 -42
-53 -38 -17 5 -3287 1490 -3392 1540 -46 22 -47 24 -15 18 19 -3 357 -82 750
-176z m-245 -110 c297 -135 565 -257 595 -271 51 -23 1833 -832 2156 -978 77
-35 141 -68 142 -74 1 -5 0 -29 -4 -52 l-6 -42 -1037 5 c-570 2 -1186 7 -1368
10 -299 6 -333 8 -333 23 0 24 -36 78 -62 92 -13 7 -45 16 -71 19 l-48 5 -260
595 c-143 327 -283 646 -309 708 l-49 113 47 48 c26 26 52 47 57 45 6 -1 253
-112 550 -246z m5989 -907 c984 -392 1796 -716 1805 -721 9 -5 12 -10 7 -10
-9 0 -1207 283 -1708 404 -123 29 -697 165 -1275 302 l-1053 249 0 26 c0 14
-11 43 -25 63 l-26 38 68 126 c63 117 70 127 93 122 14 -3 52 -5 85 -4 74 0
131 28 177 85 19 24 38 38 48 36 8 -3 820 -325 1804 -716z m-11282 317 c4 -11
-231 -232 -637 -601 l-64 -58 -41 12 c-76 23 -162 -27 -177 -104 l-6 -30 -420
6 c-231 4 -421 8 -422 9 -1 2 -5 21 -7 44 l-6 41 882 345 c484 190 884 346
887 347 4 0 9 -5 11 -11z m10107 -384 c570 -135 1070 -254 1111 -264 41 -11
116 -29 165 -40 50 -11 137 -32 195 -46 58 -13 417 -99 799 -189 381 -90 696
-167 699 -170 3 -3 2 -8 -1 -12 -5 -5 -647 31 -937 53 -30 2 -134 8 -230 14
-189 11 -593 36 -730 45 -47 3 -560 35 -1140 70 -580 35 -1087 67 -1126 70
l-72 6 -6 48 c-9 66 -49 142 -101 190 -25 23 -45 44 -45 47 0 2 41 81 91 174
l91 170 47 0 c50 0 103 26 121 59 6 12 16 21 22 21 6 0 477 -110 1047 -246z
m-11256 -434 c225 0 237 -1 237 -19 0 -11 -46 -60 -116 -122 l-115 -104 -55 3
c-41 3 -62 -1 -90 -17 l-36 -21 -206 86 c-114 48 -217 91 -230 97 -19 9 -21
16 -16 46 11 69 -4 65 202 58 103 -4 294 -7 425 -7z m1605 -7 c321 -5 412 -9
412 -19 0 -7 12 -26 26 -43 29 -35 29 -36 -28 -160 -23 -47 -96 -207 -163
-356 -68 -148 -131 -286 -140 -306 -16 -33 -22 -37 -66 -41 -42 -4 -62 -13
-114 -52 -9 -6 -86 22 -236 86 -123 52 -448 188 -721 303 -364 153 -498 213
-498 225 0 9 -9 33 -20 54 l-19 39 67 61 c177 163 159 150 187 132 59 -39 175
-7 198 54 l11 30 346 0 c190 0 531 -3 758 -7z m3367 -18 c121 -2 471 -4 777
-5 l556 0 22 -35 c25 -40 63 -63 122 -73 l41 -7 234 -535 c129 -294 263 -600
297 -680 35 -80 246 -563 470 -1075 224 -511 408 -933 409 -936 1 -3 -27 -28
-62 -55 -36 -27 -80 -71 -99 -99 -18 -27 -38 -51 -43 -53 -7 -3 -929 381
-1979 824 -179 75 -1050 441 -1145 481 -44 18 -688 288 -1430 600 l-1351 566
-1 38 c-2 35 -16 69 -45 110 -11 17 -9 21 261 614 l101 220 50 6 c62 8 96 30
118 75 l16 35 1231 -6 c676 -3 1329 -8 1450 -10z m3771 -21 l582 -6 6 -40 c11
-65 51 -132 115 -190 l60 -54 -41 -99 c-22 -55 -63 -156 -92 -225 -29 -69
-293 -704 -587 -1413 l-534 -1287 -30 7 c-40 11 -201 10 -246 0 l-36 -9 -706
1616 c-389 888 -707 1618 -707 1622 0 3 14 22 30 41 17 18 30 37 30 42 0 8
1099 6 2156 -5z m2759 -119 c754 -47 1406 -87 1450 -90 157 -10 401 -26 470
-30 39 -3 230 -14 425 -26 195 -11 361 -22 368 -24 6 -3 12 -19 12 -37 1 -18
7 -51 15 -73 8 -22 15 -41 15 -42 0 -2 -94 -54 -220 -121 -225 -118 -620 -327
-806 -426 l-202 -107 -37 26 c-63 42 -160 29 -199 -26 l-15 -22 -138 51 c-76
28 -212 78 -303 112 -91 34 -212 79 -270 100 -58 21 -307 113 -555 205 -247
92 -497 184 -555 205 -58 21 -247 91 -420 155 -173 65 -369 137 -434 161 -65
24 -121 46 -124 48 -2 3 -1 17 2 31 7 26 7 27 79 20 40 -3 689 -44 1442 -90z
m-11967 -39 c97 -41 197 -84 222 -95 l45 -20 -3 -61 -4 -61 -275 -252 c-274
-250 -276 -252 -316 -249 -23 2 -43 4 -44 6 -2 2 -13 91 -23 197 -11 107 -25
230 -30 274 -6 44 -10 96 -10 115 0 34 3 37 43 47 61 17 134 69 174 125 19 26
37 48 39 48 2 0 84 -33 182 -74z m10505 10 c34 -13 118 -44 187 -70 118 -43
569 -210 855 -316 72 -26 173 -64 225 -83 52 -19 212 -79 355 -132 512 -191
1095 -405 1102 -405 2 0 3 -19 1 -42 l-3 -42 -2138 -1133 -2138 -1133 -61 66
c-34 36 -79 74 -100 85 -33 17 -36 22 -29 42 5 12 111 267 236 567 125 300
249 599 276 665 27 66 203 491 392 945 l342 824 100 1 c80 0 109 4 146 21 55
26 120 82 150 130 11 19 25 34 31 34 5 0 37 -11 71 -24z m-11259 -15 c17 -19
-3 -45 -639 -828 -361 -444 -711 -875 -778 -958 -67 -82 -191 -235 -276 -340
-84 -104 -197 -244 -252 -310 -116 -141 -206 -252 -388 -479 -74 -91 -136
-166 -138 -166 -2 0 -210 138 -462 306 l-459 306 10 35 c5 20 6 52 2 72 -4 20
-8 39 -8 43 -1 7 3353 2336 3365 2337 3 1 14 -8 23 -18z m109 -76 c31 -14 79
-29 107 -32 29 -3 53 -11 55 -17 2 -6 11 -87 20 -181 8 -93 22 -228 30 -299
14 -121 14 -130 -2 -142 -10 -7 -21 -14 -25 -14 -3 0 -16 -16 -28 -36 -18 -28
-21 -46 -18 -84 l5 -49 -565 -518 c-311 -285 -597 -548 -636 -584 -39 -36
-332 -305 -650 -597 l-579 -531 -28 15 c-36 18 -82 18 -120 -2 -29 -15 -33
-14 -70 10 -21 15 -39 28 -39 31 0 2 36 48 81 102 44 54 102 125 129 158 27
33 100 123 162 199 62 77 165 204 228 282 63 78 290 357 505 620 214 264 611
752 883 1087 271 334 495 607 496 607 2 0 29 -11 59 -25z m1577 -310 c206 -86
458 -192 560 -235 102 -43 246 -103 320 -134 158 -65 166 -70 162 -87 -7 -29
10 -81 37 -112 l28 -32 -935 -2050 c-515 -1127 -936 -2051 -936 -2052 -1 -1
-22 4 -49 10 -34 7 -47 15 -47 28 0 20 -244 2368 -260 2504 -6 50 -17 155 -25
235 -12 125 -42 419 -60 585 -56 515 -74 710 -68 712 95 32 137 124 96 210
l-16 35 34 32 c19 18 142 132 274 253 l240 220 27 -20 c60 -45 153 -30 200 33
12 17 27 29 33 26 5 -2 179 -74 385 -161z m13838 31 c44 -65 174 -136 247
-136 21 0 23 -6 29 -72 3 -40 9 -274 12 -520 6 -399 5 -448 -9 -448 -8 0 -29
-13 -47 -30 -18 -16 -34 -30 -37 -30 -2 0 -64 22 -136 49 -73 27 -359 133
-637 236 -278 102 -542 200 -586 217 l-82 31 -5 41 c-3 22 -3 44 1 48 8 8
1215 648 1222 648 3 0 16 -16 28 -34z m1019 -359 c246 -189 700 -536 1008
-772 308 -236 587 -449 620 -475 33 -25 341 -262 685 -525 344 -263 627 -480
629 -482 2 -1 2 -6 -2 -9 -6 -6 -150 46 -1002 361 -247 92 -675 250 -950 352
-275 102 -572 212 -660 245 -88 33 -207 77 -265 98 -219 80 -300 110 -455 168
l-160 60 -5 46 c-7 53 -45 99 -97 117 l-33 11 -1 231 c-1 128 -3 246 -4 262
-1 17 -4 142 -6 279 l-3 249 52 13 c64 17 116 43 162 83 19 17 36 30 37 31 1
0 204 -154 450 -343z m-13018 -443 c284 -119 572 -241 641 -270 69 -28 449
-188 845 -354 396 -166 749 -314 785 -330 36 -16 272 -115 525 -221 253 -105
478 -200 500 -209 22 -10 499 -210 1060 -445 561 -235 1021 -428 1023 -430 1
-1 -3 -15 -9 -31 -6 -16 -12 -65 -13 -110 l-1 -81 -1805 -373 c-993 -205
-1942 -401 -2110 -436 -168 -34 -645 -133 -1060 -219 -415 -86 -818 -169 -895
-185 -77 -16 -545 -112 -1039 -214 -494 -103 -900 -185 -901 -184 -1 2 -7 18
-14 35 -7 18 -33 50 -56 72 l-43 40 335 733 c184 403 439 963 567 1243 128
281 399 873 601 1318 l369 807 33 0 c40 0 93 21 112 43 7 10 18 17 24 17 6 0
243 -97 526 -216z m-3207 164 c24 -12 44 -22 45 -23 2 0 90 -833 123 -1160 20
-194 44 -424 170 -1620 71 -681 130 -1249 130 -1261 0 -17 -9 -25 -36 -34 -20
-7 -51 -26 -70 -42 -19 -17 -40 -28 -47 -25 -6 3 -628 417 -1382 921 l-1370
917 -6 47 c-4 26 -10 56 -14 68 -5 17 68 89 502 485 279 255 542 496 583 535
41 39 154 142 250 230 164 148 712 650 825 755 97 89 250 229 252 229 1 0 22
-10 45 -22z m14254 -219 c164 -61 377 -139 472 -175 94 -35 252 -93 350 -130
340 -126 312 -113 312 -142 0 -47 38 -109 80 -129 l38 -18 6 -220 c3 -121 8
-368 11 -550 3 -181 8 -373 11 -426 l6 -96 -30 -12 c-41 -17 -73 -53 -81 -93
-6 -30 -10 -33 -46 -37 -22 -1 -1367 -67 -2990 -145 l-2950 -141 -16 60 c-9
33 -18 66 -20 74 -4 12 151 98 686 380 61 32 675 357 1365 723 690 365 1298
687 1350 715 52 28 240 127 416 221 177 94 354 187 393 207 l71 35 22 -20 c54
-50 145 -50 195 -1 15 16 33 29 39 30 6 0 146 -49 310 -110z m1575 -583 c409
-151 937 -347 1394 -516 270 -100 537 -199 595 -220 58 -21 319 -118 580 -215
261 -97 537 -199 613 -227 108 -40 137 -55 137 -70 0 -10 -2 -18 -5 -18 -7 0
-2275 -109 -2400 -115 -568 -29 -921 -45 -977 -45 -63 0 -68 2 -68 22 0 26
-73 98 -100 98 -17 0 -20 7 -21 53 0 28 -2 97 -4 152 -2 55 -6 240 -9 410 -4
171 -9 394 -12 498 -5 181 -5 187 14 187 16 0 48 25 88 69 1 0 80 -28 175 -63z
m-19098 -1019 c247 -164 447 -302 445 -308 -3 -10 -863 -1071 -915 -1130 -30
-34 -36 -36 -80 -32 -57 5 -102 -19 -134 -69 -19 -31 -21 -66 -7 -130 2 -11
-67 -80 -207 -209 -115 -105 -282 -258 -369 -338 -88 -80 -207 -190 -265 -243
-58 -54 -109 -94 -114 -89 -4 4 17 77 48 162 66 179 157 427 320 874 64 176
148 406 187 510 39 105 88 237 109 295 21 58 105 290 188 515 82 226 153 418
156 428 4 10 18 17 34 17 43 0 97 19 116 40 10 11 23 17 29 13 6 -4 213 -141
459 -306z m-757 31 c-179 -492 -374 -1025 -389 -1063 -9 -22 -88 -238 -176
-480 -88 -242 -207 -570 -265 -728 -58 -159 -106 -291 -106 -293 0 -2 -15 -4
-32 -4 -78 0 -135 -74 -125 -161 l6 -48 -97 -88 c-53 -48 -149 -136 -212 -194
l-115 -107 -394 171 -394 172 -1 61 c-1 43 -8 70 -25 98 -21 33 -22 39 -8 54
8 9 184 220 393 467 208 248 423 504 479 570 56 66 330 392 610 725 280 333
547 650 594 706 48 55 142 167 211 248 68 82 126 144 128 138 2 -6 -35 -115
-82 -244z m23188 -361 c9 -24 28 -54 41 -67 l25 -23 -39 -71 c-21 -39 -55
-102 -76 -141 -21 -38 -58 -105 -82 -149 -23 -43 -43 -80 -43 -83 0 -2 -46
-88 -101 -191 -56 -103 -144 -268 -197 -367 -52 -99 -123 -232 -157 -295 -34
-63 -88 -164 -120 -225 -32 -60 -61 -114 -65 -120 -4 -5 -37 -66 -73 -135 -36
-69 -113 -213 -171 -320 -100 -186 -106 -195 -133 -192 -52 5 -94 -9 -132 -44
-37 -33 -40 -34 -87 -24 -27 5 -492 113 -1033 240 -542 126 -988 230 -992 230
-4 0 -10 19 -14 42 -7 42 -51 99 -85 110 -13 4 -17 111 -31 794 -9 434 -15
792 -12 796 2 3 16 9 32 13 32 7 51 25 74 70 l15 30 1019 48 c560 26 1106 52
1213 58 224 13 1092 56 1161 58 46 1 46 0 63 -42z m-21873 -44 c7 -8 7 -19 -1
-33 -12 -22 -10 -81 4 -111 5 -13 -86 -102 -391 -380 -219 -200 -431 -395
-470 -433 -40 -38 -75 -67 -77 -65 -2 3 429 538 805 997 l60 73 30 -18 c17
-10 35 -23 40 -30z m22175 -95 c17 -24 276 -383 575 -798 1725 -2390 1662
-2302 1650 -2319 -6 -9 -19 -29 -29 -44 -9 -16 -21 -34 -27 -41 -8 -11 -148
19 -685 145 -861 203 -1104 259 -1113 259 -4 0 -7 14 -7 31 0 55 -43 114 -92
124 -16 4 -31 12 -33 18 -4 11 -145 1165 -265 2172 -27 231 -52 433 -55 448
-4 22 0 30 18 37 32 13 31 14 63 -32z m-127 16 c2 -2 30 -221 62 -486 195
-1606 259 -2141 259 -2152 0 -7 -16 -20 -35 -29 -19 -9 -41 -30 -50 -47 -8
-16 -19 -30 -24 -30 -9 0 -139 30 -286 65 -99 24 -1176 275 -1180 275 -1 0 -6
15 -9 34 -4 19 -15 45 -25 58 l-19 24 437 814 c240 448 477 889 526 980 108
201 195 364 237 448 32 62 33 62 68 56 19 -4 37 -8 39 -10z m-3891 -48 c12
-21 34 -39 55 -47 l35 -12 6 -111 c3 -61 10 -394 16 -741 6 -346 12 -653 13
-681 l3 -52 -37 -11 c-20 -6 -51 -27 -68 -47 l-31 -35 -2958 691 c-1626 380
-2976 696 -2999 702 -41 10 -43 12 -43 49 0 32 4 39 23 43 12 3 659 34 1437
71 778 36 1451 68 1495 71 44 2 503 25 1020 49 1099 52 1108 52 1545 75 497
26 464 27 488 -14z m-16703 -844 c655 -438 1271 -849 1370 -915 99 -66 181
-121 183 -122 1 -1 -6 -33 -16 -71 l-19 -69 -2589 -356 c-1424 -196 -2604
-358 -2622 -361 -31 -4 -34 -2 -53 41 -11 25 -26 53 -35 62 -13 15 -9 23 43
86 32 39 121 148 198 243 77 95 172 212 211 259 38 47 204 252 369 454 259
320 301 368 319 362 85 -28 155 -6 188 58 19 39 20 65 4 137 -5 22 41 67 454
445 649 593 573 529 609 511 53 -28 125 -15 160 28 7 9 18 13 25 9 6 -3 547
-364 1201 -801z m9852 427 l22 -50 -52 -33 c-29 -18 -596 -373 -1262 -788
-665 -415 -1583 -987 -2038 -1272 l-828 -516 -26 20 c-45 35 -126 26 -178 -20
-22 -19 -12 -21 -360 85 -125 38 -2274 683 -2420 726 -71 21 -256 76 -410 122
l-280 85 3 38 c2 22 6 41 8 43 3 4 1220 257 2529 526 149 31 1386 287 2750
569 1364 283 2489 515 2501 515 15 1 25 -11 41 -50z m3822 -655 c1637 -382
2986 -698 2999 -701 15 -4 22 -13 22 -30 0 -56 63 -123 116 -123 21 0 22 -5
28 -182 3 -101 17 -750 31 -1443 33 -1675 34 -1728 41 -1961 l6 -201 -58 -7
c-176 -20 -352 -100 -479 -217 l-30 -28 -1636 1542 c-900 848 -1699 1601
-1775 1673 -77 72 -614 578 -1194 1124 -580 546 -1077 1014 -1103 1039 l-48
47 35 52 c19 28 37 65 41 82 4 16 11 30 17 30 6 0 1350 -313 2987 -696z
m-3733 516 c44 -47 166 -120 200 -120 8 0 14 -10 14 -21 0 -19 -293 -1674
-321 -1814 -5 -27 -72 -405 -149 -840 -77 -434 -143 -800 -145 -812 -4 -17
-13 -23 -31 -23 -35 0 -64 -16 -95 -52 l-26 -31 -1459 438 c-802 240 -1522
456 -1599 480 -77 23 -242 73 -367 110 -234 70 -237 72 -238 122 0 16 -101
-48 1065 679 1170 729 2416 1506 2815 1756 157 98 286 178 287 178 1 0 23 -22
49 -50z m1705 -1031 c591 -557 1126 -1062 1190 -1123 63 -61 171 -163 240
-227 475 -443 3239 -3052 3239 -3057 0 -4 -19 -32 -41 -62 -43 -56 -119 -203
-119 -228 0 -9 -7 -12 -17 -10 -10 3 -1470 441 -3245 974 l-3228 968 0 29 c0
42 -30 98 -62 116 -15 9 -28 18 -27 21 0 3 140 789 312 1748 l312 1743 76 4
c88 5 168 32 236 80 27 19 51 34 54 34 3 1 489 -454 1080 -1010z m-14488 209
c-4 -7 -95 -121 -203 -253 -107 -131 -253 -311 -325 -400 -403 -498 -458 -563
-471 -558 -8 3 -14 11 -14 18 0 11 59 183 84 245 4 10 21 15 50 16 103 2 163
100 122 198 l-14 34 171 158 c164 150 222 203 487 447 63 59 116 106 118 107
2 0 0 -6 -5 -12z m20835 -704 c554 -130 1019 -239 1035 -241 22 -4 27 -10 27
-35 0 -33 13 -63 42 -94 l19 -22 -532 -993 c-293 -547 -548 -1023 -567 -1059
-91 -170 -348 -651 -372 -695 -15 -27 -91 -170 -169 -316 l-142 -266 -58 23
c-82 33 -165 54 -248 61 -40 3 -73 9 -73 12 0 3 -18 854 -40 1889 l-39 1884
42 42 c23 24 48 44 55 44 7 1 466 -104 1020 -234z m-16375 -110 l46 -41 -28
-74 c-16 -41 -62 -159 -104 -264 -41 -104 -373 -953 -737 -1885 -365 -932
-666 -1699 -670 -1703 -4 -5 -27 -3 -51 4 -62 17 -203 15 -275 -5 -67 -17
-138 -53 -197 -99 l-38 -29 -1669 1668 -1670 1669 25 49 c14 27 25 65 25 83 0
18 6 36 13 38 6 2 64 11 127 19 96 12 4891 669 5060 694 l55 7 21 -45 c11 -25
42 -64 67 -86z m1402 -208 c545 -164 1033 -310 1085 -326 244 -75 1255 -377
1313 -393 36 -9 37 -10 37 -58 l0 -48 -737 -460 -736 -459 -27 20 c-29 21 -86
28 -136 15 -30 -8 -39 1 -814 825 -431 458 -840 893 -909 966 -69 74 -127 137
-129 142 -5 14 40 81 52 77 6 -3 457 -138 1001 -301z m-933 32 c75 -79 482
-512 906 -962 l771 -820 -16 -30 c-10 -19 -14 -45 -10 -72 l4 -42 -566 -352
c-311 -194 -606 -378 -656 -410 -178 -113 -2115 -1320 -2119 -1320 -3 0 -31
27 -63 61 -31 33 -84 77 -115 96 -32 20 -58 38 -58 40 0 4 889 2277 1397 3573
46 118 97 247 111 285 l28 70 64 0 c49 0 77 7 115 26 40 20 52 22 61 12 6 -7
72 -77 146 -155z m-5897 82 c4 -6 -15 -69 -41 -140 l-47 -130 -61 0 c-77 0
-150 -33 -192 -85 -29 -36 -31 -37 -58 -23 l-27 14 203 187 c112 103 206 187
210 187 4 0 10 -5 13 -10z m-950 -185 c149 -64 293 -127 320 -139 28 -12 65
-28 83 -35 17 -8 32 -17 32 -21 0 -4 -219 -208 -486 -452 l-485 -446 -31 15
c-29 15 -30 17 -24 67 3 28 24 258 46 511 53 606 42 543 97 557 30 7 59 24 82
48 34 35 38 36 66 25 17 -7 152 -65 300 -130z m24680 -61 c605 -142 759 -178
837 -195 42 -9 47 -13 52 -44 9 -45 54 -91 103 -104 38 -10 41 -14 46 -54 3
-23 38 -313 78 -645 l72 -603 -36 -30 c-37 -31 -60 -84 -55 -130 3 -21 -70
-62 -797 -451 -440 -236 -849 -455 -910 -487 -110 -59 -1298 -693 -1495 -800
-58 -31 -110 -57 -116 -59 -6 -2 -32 25 -57 60 -51 72 -150 169 -220 217 -35
24 -47 37 -42 49 3 10 63 123 132 252 177 330 416 776 479 895 29 55 303 566
607 1135 l555 1035 53 7 c47 5 59 12 89 47 19 22 37 40 40 41 2 0 266 -61 585
-136z m-25219 67 c-5 -39 -96 -1050 -96 -1066 0 -3 -9 -5 -21 -5 -63 0 -127
-89 -114 -158 4 -20 11 -42 16 -49 7 -8 -165 -172 -578 -551 -467 -429 -591
-537 -601 -528 -10 10 121 246 654 1182 366 643 675 1183 685 1201 15 23 25
30 40 26 18 -5 20 -11 15 -52z m1066 -235 c35 -15 35 -15 30 -70 -3 -36 1 -73
12 -107 10 -29 14 -55 9 -59 -10 -9 -294 -227 -608 -469 -137 -105 -321 -246
-408 -314 -188 -144 -187 -144 -187 -120 0 12 16 26 48 40 65 30 85 66 80 147
l-3 62 200 184 c206 189 407 374 435 400 9 8 65 60 125 115 60 55 134 124 165
152 30 29 58 53 61 53 4 0 22 -7 41 -14z m25599 -170 c550 -130 887 -209 1034
-242 83 -19 222 -52 310 -72 l160 -38 7 -55 c4 -31 8 -61 10 -68 2 -8 -302
-177 -805 -446 l-809 -433 -35 24 c-20 13 -46 24 -59 24 -12 0 -25 3 -27 8 -3
4 -40 294 -82 644 l-77 637 39 39 c21 22 43 40 49 41 6 0 134 -28 285 -63z
m-25460 -128 c47 -30 60 -33 128 -33 62 0 84 4 118 24 l42 24 1670 -1663 c919
-915 1671 -1665 1671 -1668 0 -2 -14 -21 -30 -42 -17 -21 -44 -69 -62 -107
-17 -37 -32 -69 -33 -71 -1 -1 -330 78 -731 177 -401 99 -913 225 -1139 281
-225 56 -664 164 -975 241 -311 76 -648 160 -750 185 -102 25 -403 99 -670
165 -267 66 -493 122 -502 125 -10 3 -18 14 -18 26 0 36 -34 78 -80 100 -25
12 -46 22 -47 23 -3 1 81 956 91 1040 3 22 8 86 12 142 6 93 9 104 33 126 14
13 193 152 396 308 204 156 471 361 593 456 123 95 225 173 227 173 2 0 27
-15 56 -32z m10118 -304 c157 -48 342 -103 411 -123 69 -21 761 -228 1538
-461 1396 -419 1412 -424 1412 -450 0 -33 32 -85 67 -106 15 -10 29 -19 31
-20 3 -2 -112 -656 -163 -929 -14 -71 -31 -168 -40 -215 -65 -374 -536 -3019
-540 -3035 -4 -18 -13 -20 -112 -21 -137 -2 -240 -32 -345 -104 l-73 -49 -51
52 c-28 29 -626 664 -1329 1412 -703 748 -1308 1392 -1344 1430 -37 39 -389
413 -783 832 l-717 762 16 31 c10 21 14 47 10 76 l-4 43 661 412 c363 227 694
433 735 460 l75 48 28 -24 c16 -13 44 -27 62 -31 48 -8 120 25 141 65 8 17 18
31 22 31 4 0 135 -39 292 -86z m16916 -122 c13 -15 40 -37 59 -47 20 -11 36
-23 36 -26 0 -4 -20 -83 -45 -176 -25 -92 -66 -244 -91 -338 -25 -93 -93 -348
-151 -565 -58 -217 -118 -447 -135 -510 -16 -63 -117 -443 -225 -845 -107
-401 -210 -788 -228 -860 -125 -476 -344 -1287 -349 -1292 -3 -3 -24 -1 -46 6
-35 10 -39 15 -34 36 14 54 -55 155 -106 155 -10 0 -21 3 -24 8 -2 4 -21 142
-41 307 -20 165 -54 444 -75 620 -22 176 -49 397 -59 490 -11 94 -70 579 -131
1078 -60 500 -110 913 -110 917 0 5 16 17 36 26 49 23 74 67 74 129 l0 51 218
116 c587 316 1397 748 1400 748 2 0 14 -13 27 -28z m415 -1074 c112 -546 240
-1175 286 -1398 45 -223 135 -661 199 -973 65 -312 116 -569 114 -571 -2 -2
-134 -73 -294 -159 -159 -85 -481 -259 -715 -385 l-425 -229 -27 19 c-33 23
-86 33 -122 24 -14 -3 -42 -20 -61 -38 l-36 -31 -200 63 c-109 35 -204 67
-210 71 -7 4 51 238 171 690 100 376 186 698 191 714 5 17 154 572 330 1235
176 663 328 1234 338 1270 10 36 41 155 70 265 29 110 66 248 82 308 16 59 29
110 29 112 0 3 17 5 38 5 l38 0 204 -992z m514 -703 l663 -1670 -48 -43 c-64
-57 -83 -109 -77 -206 l5 -74 -206 -110 c-177 -96 -207 -109 -213 -94 -4 9
-57 265 -118 567 -61 303 -132 647 -156 765 -56 269 -513 2496 -520 2530 -2
14 -2 21 1 15 3 -5 304 -761 669 -1680z m-29311 1399 c12 -5 17 -17 17 -49 l0
-42 -497 -383 c-274 -210 -487 -370 -473 -356 87 90 917 844 925 840 6 -2 18
-7 28 -10z m-12 -391 c-11 -125 -34 -379 -51 -563 -17 -184 -33 -365 -36 -401
-6 -63 -8 -67 -41 -83 -18 -9 -36 -23 -39 -31 -4 -8 -13 -15 -22 -15 -9 0
-229 53 -489 117 l-473 117 0 48 c0 27 -7 65 -15 85 -10 23 -12 40 -6 46 23
23 1186 915 1189 912 2 -2 -6 -106 -17 -232z m9253 -164 c34 -20 81 -22 147
-8 11 3 242 -236 679 -701 364 -388 693 -736 730 -775 60 -63 2739 -2913 2798
-2977 l25 -27 -38 -46 c-21 -26 -55 -81 -77 -123 -22 -42 -41 -78 -43 -80 -2
-2 -459 134 -1017 302 -557 167 -1492 449 -2078 625 -586 176 -1567 471 -2180
656 -613 185 -1131 341 -1150 346 -19 5 -278 82 -575 172 -528 160 -540 164
-537 188 1 13 3 67 3 119 2 80 -2 107 -25 170 -15 41 -30 82 -32 90 -3 11 46
47 168 122 95 59 844 525 1663 1037 820 512 1493 931 1497 931 4 0 23 -9 42
-21z m6222 -145 c192 -58 365 -110 384 -115 19 -5 1315 -393 2880 -863 2485
-746 2845 -856 2844 -872 -1 -11 -7 -55 -14 -99 -13 -88 -8 -206 14 -297 l13
-57 -396 -131 c-1188 -394 -1695 -561 -3341 -1105 -993 -328 -2103 -695 -2467
-816 -364 -120 -668 -219 -675 -219 -7 0 -29 33 -48 73 -25 54 -55 92 -115
152 -84 84 -145 123 -254 161 -50 18 -65 28 -64 41 6 46 47 276 384 2161 197
1107 359 2015 359 2017 0 2 17 9 38 15 21 5 49 21 62 35 13 14 29 25 35 25 6
0 169 -48 361 -106z m11039 86 c9 -10 33 -24 51 -30 19 -7 34 -15 34 -18 0 -4
92 -774 206 -1712 195 -1617 205 -1705 188 -1715 -26 -14 -70 -58 -75 -74 -5
-13 -501 144 -3384 1066 -77 25 -176 56 -220 70 -44 14 -83 28 -87 32 -4 4 -1
40 8 81 30 140 10 333 -50 481 l-23 57 1661 890 c914 489 1664 890 1667 891 3
1 14 -8 24 -19z m-27272 -775 c583 -145 562 -139 559 -153 -6 -29 20 -92 50
-121 l32 -32 -67 -762 c-38 -419 -115 -1288 -173 -1932 -57 -643 -104 -1178
-104 -1188 0 -12 -6 -17 -17 -15 -14 3 -83 334 -429 2063 -227 1133 -413 2065
-414 2071 0 6 14 17 31 25 46 19 87 56 110 100 11 22 24 39 29 39 6 0 183 -43
393 -95z m-484 -677 c172 -859 700 -3489 706 -3514 4 -17 -1 -23 -20 -28 -25
-6 -110 -84 -130 -118 -9 -16 -54 -4 -515 143 -278 88 -575 182 -662 210 -229
72 -208 60 -208 121 0 91 -59 185 -137 221 -13 6 -23 17 -23 26 0 9 181 811
402 1784 l403 1767 31 0 31 0 122 -612z m1611 398 c146 -36 486 -119 755 -186
270 -66 729 -179 1020 -251 292 -72 681 -169 865 -214 184 -46 675 -167 1090
-269 l755 -187 0 -112 c0 -83 5 -127 19 -170 10 -31 17 -59 15 -61 -5 -5
-2279 -1151 -2849 -1436 -212 -106 -520 -261 -685 -345 -165 -84 -594 -300
-953 -480 l-653 -327 -49 46 c-27 26 -64 49 -81 53 -17 3 -33 12 -36 18 -4 11
51 653 102 1205 26 272 205 2281 221 2480 8 102 17 191 19 198 3 6 20 12 39
12 38 0 100 45 111 80 3 10 11 17 18 15 7 -3 131 -34 277 -69z m23010 -1422
c74 -24 891 -285 1815 -580 924 -295 1688 -540 1698 -545 9 -6 17 -21 17 -34
0 -34 55 -93 100 -106 l37 -11 12 -107 c7 -58 15 -120 18 -138 5 -30 3 -33
-46 -54 -30 -12 -66 -39 -86 -62 l-34 -40 -1858 838 c-1022 461 -1859 839
-1861 840 -2 2 0 15 4 29 5 22 10 25 28 20 11 -4 82 -26 156 -50z m-1731 -38
c95 -196 269 -352 479 -426 47 -17 61 -27 58 -39 -7 -21 -234 -960 -251 -1036
-8 -33 -201 -836 -430 -1785 -229 -949 -429 -1781 -446 -1850 l-30 -125 -82 0
c-71 -1 -91 -5 -147 -32 -66 -31 -115 -71 -161 -131 l-25 -33 -555 264 c-305
146 -601 287 -659 315 -58 28 -663 316 -1345 640 -682 325 -1298 618 -1370
652 -71 34 -161 77 -200 95 -38 18 -126 59 -195 92 -69 34 -357 171 -640 306
-283 134 -571 272 -640 305 -69 33 -169 80 -222 105 l-97 45 19 49 c34 90 45
190 31 287 -6 48 -14 92 -17 99 -3 8 711 249 2318 780 1278 422 2712 896 3188
1054 476 157 978 323 1115 368 138 46 253 84 257 84 3 1 25 -37 47 -83z
m-11945 -1076 c2068 -622 3761 -1132 3762 -1133 2 -1 -2 -24 -8 -50 -5 -27 -8
-91 -6 -143 1 -52 2 -94 0 -94 -1 0 -906 -196 -2010 -436 -1104 -239 -2056
-446 -2117 -459 -209 -44 -810 -176 -826 -181 -12 -3 -24 10 -43 49 -74 153
-252 224 -414 167 l-57 -21 -23 28 c-12 15 -519 730 -1126 1588 l-1103 1560
59 63 c32 35 74 94 93 132 21 42 40 68 47 65 7 -3 1705 -513 3772 -1135z
m15141 325 c1778 -802 1976 -892 2022 -911 30 -13 31 -14 21 -53 -9 -37 -3
-97 16 -142 6 -13 -78 -69 -396 -269 -222 -139 -425 -267 -453 -285 -63 -41
-1622 -1021 -1693 -1064 l-52 -33 -32 27 c-27 22 -39 26 -86 24 l-56 -3 -684
1534 c-376 844 -679 1536 -674 1538 6 2 37 20 71 40 117 71 224 182 294 304
l27 47 43 -18 c23 -10 758 -341 1632 -736z m-19896 674 c71 -104 206 -193 331
-218 l55 -11 -3 -43 c-68 -941 -332 -4450 -335 -4454 -3 -3 -335 -126 -739
-274 -403 -148 -798 -294 -878 -323 -80 -30 -320 -118 -533 -196 l-388 -143
-28 27 c-38 37 -90 50 -142 36 -39 -11 -44 -10 -64 12 -12 13 -206 228 -431
478 -225 250 -778 865 -1229 1365 -451 501 -825 917 -832 926 -10 12 -6 26 18
74 27 54 30 68 27 134 l-3 74 150 77 c83 42 607 307 1165 587 2295 1154 3133
1576 3465 1745 193 98 352 178 355 178 3 0 20 -23 39 -51z m1269 -880 c282
-398 566 -800 632 -894 66 -93 339 -480 608 -860 l489 -690 -34 -39 c-62 -74
-78 -120 -78 -227 l0 -96 -295 -108 c-162 -59 -414 -152 -560 -205 -460 -169
-1441 -530 -1535 -565 -232 -86 -398 -145 -400 -143 -1 2 73 1009 164 2238
l167 2235 64 6 c74 6 158 30 210 59 19 10 40 18 45 16 6 -1 241 -328 523 -727z
m17200 -991 l683 -1532 -22 -39 c-17 -30 -20 -50 -17 -91 l4 -53 -1214 -764
c-667 -420 -1236 -777 -1263 -794 -27 -16 -108 -67 -180 -113 l-131 -83 -54
51 c-30 28 -75 60 -101 72 -27 11 -49 22 -51 23 -2 2 8 49 22 106 14 57 217
901 451 1874 235 974 447 1853 471 1955 215 896 209 875 235 872 13 -2 85 -4
159 -4 117 -1 145 3 215 24 44 14 87 26 95 27 11 1 206 -427 698 -1531z m6077
1042 c36 -179 98 -482 138 -675 40 -192 70 -351 66 -353 -6 -3 -1219 381
-1575 499 l-122 40 -4 39 -3 39 125 67 c69 37 265 142 435 234 255 137 665
357 825 441 26 14 36 16 41 6 4 -6 37 -158 74 -337z m-2271 -284 l33 -14 -41
-156 c-40 -153 -41 -156 -68 -156 -16 0 -28 6 -28 13 0 6 -7 59 -15 117 -21
152 -21 153 23 182 44 31 53 32 96 14z m285 -91 c112 -36 205 -66 206 -68 1
-1 5 -16 8 -34 l6 -32 -196 -105 -196 -104 -25 29 c-13 17 -41 39 -62 49 l-38
19 29 108 c17 59 35 129 41 156 6 26 14 47 17 47 3 0 98 -29 210 -65z m681
-218 c589 -189 1236 -395 1368 -437 85 -26 155 -50 157 -52 1 -1 64 -304 139
-673 76 -368 157 -767 182 -885 25 -118 120 -577 210 -1020 91 -443 176 -857
189 -920 13 -63 23 -115 22 -115 -1 0 -18 -8 -37 -16 l-35 -16 -1525 1829
c-839 1005 -1531 1838 -1539 1849 -12 16 -12 25 -3 37 51 72 68 153 49 228
l-8 32 191 102 191 102 22 -20 c33 -29 62 -42 97 -42 42 0 98 27 117 57 9 13
21 22 27 20 6 -2 90 -29 186 -60z m-1187 -472 l27 -20 -715 -2145 -715 -2145
-83 0 c-45 0 -90 -2 -101 -5 -15 -4 -28 16 -76 125 -31 72 -287 646 -569 1277
-281 630 -511 1151 -511 1157 0 6 9 15 21 22 28 14 61 91 57 131 -3 34 -33 15
1452 947 157 99 478 301 713 449 l429 269 21 -21 c12 -12 34 -30 50 -41z
m1812 -1843 c844 -1013 1535 -1847 1535 -1852 0 -5 -5 -12 -10 -15 -19 -11
-48 -80 -55 -128 -4 -26 -10 -47 -14 -47 -3 0 -184 -27 -401 -60 -217 -33
-411 -63 -430 -66 -173 -25 -582 -88 -690 -105 -74 -11 -290 -44 -480 -73
l-345 -52 -41 43 c-22 24 -49 43 -60 43 -10 0 -25 4 -31 8 -10 6 -153 948
-236 1552 -3 19 -86 597 -186 1283 -100 686 -181 1256 -181 1266 0 16 61 52
82 47 4 0 698 -830 1543 -1844z m-1486 540 c101 -697 235 -1622 298 -2057 89
-616 111 -791 101 -794 -27 -9 -78 -70 -84 -100 -4 -17 -7 -31 -8 -31 -1 0
-402 -61 -891 -135 -489 -74 -894 -135 -901 -135 -6 0 -19 19 -28 43 -24 64
-70 121 -126 157 -28 18 -50 35 -50 40 0 4 249 751 554 1661 304 910 626 1872
715 2139 l161 486 38 -4 38 -4 183 -1266z m2507 1249 c32 -11 159 -52 282 -91
l222 -71 0 -32 c0 -51 32 -99 84 -126 l46 -24 0 -151 c0 -83 7 -729 15 -1436
9 -707 15 -1361 13 -1454 l-3 -169 -57 279 c-31 154 -124 608 -206 1009 -83
402 -157 766 -166 810 -9 44 -45 222 -81 395 -169 816 -222 1080 -216 1080 4
0 34 -9 67 -19z m-31611 -291 c160 -50 464 -146 676 -213 l387 -122 4 -67 c6
-81 41 -147 99 -186 28 -19 38 -32 34 -46 -3 -16 -706 -1978 -709 -1982 -1 -1
-18 -4 -38 -7 l-37 -6 -155 467 c-343 1035 -696 2110 -696 2119 0 6 18 22 40
37 21 14 49 43 62 65 12 21 27 37 33 35 5 -2 141 -44 300 -94z m-472 -67 c2
-10 195 -593 427 -1297 l422 -1278 -21 -38 c-35 -63 -22 -162 25 -188 17 -9
21 5 -412 -1197 -51 -143 -140 -390 -198 -550 -61 -170 -110 -291 -117 -292
-8 -2 -19 1 -26 5 -9 6 -28 595 -75 2430 -58 2223 -62 2422 -47 2422 9 0 19
-8 22 -17z m15727 -195 c7 -24 23 -64 36 -90 l24 -48 -127 -83 c-71 -46 -948
-620 -1950 -1275 -1002 -656 -1824 -1192 -1827 -1192 -8 0 -100 100 -581 635
-257 286 -504 560 -548 609 -117 128 -112 117 -78 168 35 54 53 106 60 183 l6
59 220 48 c121 26 285 61 365 78 80 17 1092 237 2250 490 1158 252 2112 458
2121 459 10 1 20 -14 29 -41z m1622 -299 c233 -111 470 -224 528 -252 423
-200 3270 -1556 3445 -1640 121 -58 497 -236 835 -397 338 -161 631 -301 652
-311 l36 -18 -15 -48 c-31 -100 0 -244 75 -341 l33 -44 -103 -121 c-56 -67
-135 -160 -175 -207 -40 -47 -829 -983 -1754 -2080 -925 -1097 -1933 -2293
-2240 -2656 l-558 -661 -65 33 c-46 23 -87 35 -135 40 l-69 6 -16 87 c-11 63
-749 4672 -779 4866 -2 17 -75 469 -161 1005 -86 536 -163 1016 -171 1065 -8
50 -66 414 -129 809 -64 396 -116 721 -116 723 0 1 19 7 43 13 140 37 303 155
377 274 19 31 36 56 37 56 1 0 192 -91 425 -201z m-1489 67 c108 -126 277
-203 464 -213 100 -6 102 -6 107 -32 3 -14 310 -1927 681 -4251 371 -2324 678
-4237 681 -4253 4 -21 1 -28 -13 -32 -10 -3 -46 -20 -81 -37 l-64 -31 -28 29
c-15 16 -440 488 -945 1049 -505 561 -993 1103 -1085 1205 -92 102 -955 1060
-1919 2129 l-1751 1945 72 47 c40 25 916 598 1947 1273 1031 674 1877 1226
1881 1226 3 0 27 -24 53 -54z m-13057 -1061 c450 -500 1009 -1121 1241 -1379
l422 -468 -14 -29 c-8 -15 -15 -42 -15 -59 0 -24 -6 -33 -27 -41 -16 -6 -154
-57 -308 -114 -154 -56 -765 -281 -1359 -499 l-1079 -397 -29 35 c-29 35 -88
60 -126 54 -14 -3 -57 119 -274 772 -227 683 -256 776 -242 785 47 29 75 60
84 96 14 53 -2 110 -40 143 -17 13 -30 29 -30 35 0 5 156 443 346 973 191 530
350 974 355 988 9 23 14 25 77 25 49 1 78 7 107 22 l40 22 26 -27 c14 -15 395
-436 845 -937z m23579 155 c22 -11 49 -20 60 -20 16 0 28 -17 57 -82 19 -46
151 -342 293 -658 141 -316 281 -629 310 -695 29 -66 112 -253 185 -415 72
-162 148 -331 167 -375 19 -44 47 -107 63 -140 87 -188 93 -207 75 -218 -42
-23 -96 -83 -121 -133 -14 -30 -32 -54 -40 -54 -7 0 -46 7 -86 16 -40 8 -167
35 -283 59 -441 92 -1326 278 -2574 539 -486 103 -888 186 -892 186 -5 0 -9
29 -9 65 0 40 -8 90 -21 127 -16 49 -18 63 -7 70 7 4 78 49 158 99 80 50 701
441 1380 869 679 428 1237 779 1240 779 3 1 23 -8 45 -19z m-16264 -112 c6
-13 27 -39 45 -59 l35 -35 -594 -840 c-326 -461 -632 -893 -678 -959 -47 -66
-403 -570 -792 -1120 -388 -550 -712 -1009 -720 -1019 -14 -19 -15 -19 -58 6
-59 35 -177 76 -239 84 l-51 7 6 61 c3 33 53 693 110 1465 57 772 105 1404
107 1405 2 1 118 44 258 95 140 51 345 127 455 167 1084 401 2073 763 2087
763 10 1 22 -9 29 -21z m591 -204 c29 -34 295 -329 591 -657 295 -327 537
-599 537 -604 0 -4 -256 -175 -568 -379 l-567 -370 -8 35 c-9 42 -227 1959
-227 1996 0 17 6 25 18 25 9 0 42 13 72 29 l55 28 22 -21 c11 -12 45 -49 75
-82z m-338 39 l52 -5 118 -1036 c64 -569 114 -1038 109 -1042 -4 -4 -334 -220
-733 -480 -399 -260 -750 -489 -780 -510 -225 -152 -1532 -1001 -1538 -998 -4
2 -42 39 -84 83 l-77 81 646 914 c356 503 682 965 725 1025 43 61 118 166 166
235 49 69 153 217 233 330 79 113 341 485 583 827 l439 621 44 -20 c25 -11 68
-22 97 -25z m-3129 -905 c-3 -24 -50 -653 -105 -1398 -55 -745 -102 -1378
-105 -1406 l-6 -51 -78 -7 c-139 -11 -281 -62 -387 -138 l-45 -32 -33 35 c-18
18 -280 309 -582 644 -301 336 -692 770 -868 965 -176 195 -325 362 -333 371
-11 13 -11 21 2 45 8 16 15 43 15 60 0 21 6 34 18 39 9 3 220 81 467 172 1178
432 1790 658 1895 698 150 56 151 56 145 3z m-6275 -415 c17 -54 133 -406 257
-782 180 -547 223 -688 214 -700 -45 -62 -52 -78 -49 -120 l2 -43 -164 -60
c-91 -33 -335 -123 -543 -199 l-379 -139 -51 54 c-29 29 -58 55 -65 57 -9 3
29 121 131 404 79 220 242 676 363 1012 173 484 223 613 236 613 13 0 25 -24
48 -97z m12786 -2098 c1001 -1111 1839 -2043 1864 -2071 98 -108 1702 -1889
1841 -2043 l147 -163 -35 -50 c-19 -27 -43 -74 -53 -106 -16 -51 -21 -57 -46
-60 -25 -2 -730 49 -2434 178 -1318 100 -3462 260 -3479 260 -16 0 -21 6 -21
28 0 15 -11 50 -24 77 -35 76 -104 128 -185 141 -36 6 -41 10 -46 38 -9 56
-575 5040 -575 5068 0 24 55 62 582 407 l583 381 31 -33 c17 -17 850 -941
1850 -2052z m11423 1334 c1687 -354 1861 -390 2102 -440 l157 -33 4 -70 c6
-92 39 -157 114 -225 l56 -52 -149 -347 c-82 -191 -399 -926 -704 -1634 l-554
-1286 -42 -7 c-70 -10 -123 -68 -123 -133 0 -33 9 -29 -145 -57 -44 -8 -521
-102 -1060 -209 l-980 -193 -28 23 c-16 13 -41 27 -55 30 -15 3 -32 7 -37 9
-12 3 -471 4646 -462 4670 4 8 14 15 24 15 37 0 139 59 185 106 26 27 59 75
73 107 15 31 31 57 37 57 6 0 720 -149 1587 -331z m-20709 181 c23 -42 122
-66 169 -40 18 9 180 -167 1148 -1245 44 -49 220 -245 391 -434 l311 -344 -50
-56 c-56 -62 -132 -207 -153 -291 -12 -48 -17 -55 -37 -53 -13 1 -116 16 -229
32 -2032 302 -4051 602 -4070 607 -18 4 -32 19 -48 54 -24 51 -66 80 -115 80
-24 0 -29 12 -116 272 -65 194 -87 274 -79 277 28 9 68 65 74 102 4 22 8 39 9
39 3 0 2273 834 2585 950 102 38 188 69 192 69 4 1 12 -8 18 -19z m28094 -55
c20 -39 42 -64 76 -86 44 -29 47 -33 39 -58 -5 -14 -202 -671 -439 -1460 -237
-789 -432 -1436 -434 -1439 -3 -2 -313 182 -691 408 -648 389 -686 414 -681
437 16 62 -39 147 -104 160 -23 4 -29 12 -33 42 -3 20 -28 194 -56 386 -28
193 -54 368 -57 390 -115 779 -114 770 -96 780 35 21 70 67 79 102 l9 37 149
23 c83 12 168 25 190 28 22 3 477 72 1010 154 534 82 979 149 990 150 15 1 28
-14 49 -54z m-9520 -39 c36 -18 81 -30 120 -33 l62 -5 227 -2322 c125 -1276
228 -2330 227 -2341 0 -11 -13 -27 -28 -36 -16 -9 -36 -32 -45 -52 -15 -31
-24 -37 -70 -46 -28 -6 -385 -76 -792 -156 -407 -80 -875 -172 -1040 -205
-165 -33 -552 -109 -860 -169 -308 -61 -1017 -201 -1575 -310 -558 -110 -1018
-197 -1021 -193 -4 4 -12 23 -18 42 -6 19 -28 58 -49 85 l-39 50 42 50 c44 53
3586 4253 4144 4915 602 713 643 761 649 758 4 -2 33 -17 66 -32z m-12089
-2656 c157 -1378 288 -2521 291 -2542 5 -34 4 -37 -25 -43 -16 -3 -50 -22 -74
-40 l-44 -34 -84 58 c-249 172 -3395 2345 -3398 2347 -2 2 12 39 32 81 61 132
72 183 72 328 0 144 -12 201 -67 317 -17 37 -30 70 -27 72 2 2 45 30 96 63
102 65 2386 1559 2798 1830 81 54 141 87 143 80 1 -6 130 -1139 287 -2517z
m18954 2319 c15 -34 64 -69 98 -69 17 0 23 -7 28 -32 5 -31 87 -598 99 -683 3
-22 32 -226 66 -453 33 -227 60 -416 60 -420 0 -4 -17 -15 -38 -25 l-38 -18
-1055 632 c-580 347 -1058 636 -1064 640 -5 6 -4 22 4 44 7 20 15 60 18 89 l6
54 106 16 c485 73 1023 155 1311 200 190 29 354 54 365 55 13 1 25 -9 34 -30z
m2491 -1325 c-144 -731 -264 -1339 -266 -1350 -4 -16 -16 -23 -46 -27 -23 -3
-60 -19 -83 -35 l-43 -30 -59 35 -60 36 33 111 c18 60 201 669 406 1353 205
683 374 1240 376 1238 2 -1 -114 -601 -258 -1331z m-3295 223 l1060 -635 -3
-47 c-7 -79 34 -137 106 -151 20 -4 32 -14 36 -28 2 -11 32 -214 66 -451 33
-236 63 -444 66 -462 6 -30 3 -33 -32 -48 -80 -33 -140 -116 -151 -206 -3 -27
-8 -49 -10 -49 -4 0 -156 -30 -943 -185 -179 -35 -750 -148 -1270 -250 -520
-102 -1116 -220 -1325 -261 -356 -70 -381 -74 -390 -57 -5 10 -24 32 -41 50
l-31 32 389 903 c407 945 791 1835 935 2171 64 149 89 197 100 193 8 -4 39 -9
68 -12 83 -10 180 23 247 85 29 27 55 48 58 46 3 -1 482 -288 1065 -638z
m-27665 412 c16 -12 46 -25 66 -28 l38 -6 88 -271 88 -271 -40 -41 -39 -42
-403 60 c-222 33 -518 78 -658 98 l-255 38 0 43 0 43 300 110 c165 60 395 145
510 188 182 67 262 96 273 99 2 1 16 -9 32 -20z m-105 -654 c334 -49 302 -40
309 -85 9 -59 66 -103 145 -112 22 -3 30 -20 87 -193 161 -491 626 -1902 715
-2170 54 -165 99 -304 99 -308 0 -4 -548 646 -1219 1445 l-1218 1453 19 27
c10 15 25 42 33 61 l14 33 388 -58 c213 -32 496 -74 628 -93z m-444 -795 c343
-410 702 -839 799 -955 97 -115 355 -423 574 -684 l397 -474 -22 -23 c-31 -33
-38 -116 -14 -160 22 -42 93 -79 135 -70 29 5 30 4 50 -62 11 -37 82 -254 159
-484 l138 -416 -28 -21 c-16 -12 -37 -38 -47 -59 l-17 -37 -460 -27 c-253 -15
-490 -27 -526 -27 l-66 -1 -17 43 c-38 101 -124 159 -232 159 l-62 1 -735
2036 c-667 1845 -734 2037 -719 2049 14 10 20 8 43 -15 14 -16 307 -363 650
-773z m2094 550 c556 -82 1053 -157 1105 -165 93 -14 1420 -212 1890 -280 321
-48 288 -37 282 -95 -15 -157 70 -401 180 -517 17 -17 29 -36 27 -42 -2 -6
-371 -399 -820 -873 -450 -475 -864 -912 -920 -973 -475 -503 -667 -706 -699
-739 l-38 -38 -66 32 c-90 45 -183 47 -271 6 -47 -21 -61 -24 -71 -14 -17 19
-673 803 -701 838 -9 11 -9 26 -1 56 10 35 8 47 -10 85 -23 48 -65 79 -105 79
-24 0 -29 11 -106 243 -44 133 -245 741 -446 1351 l-366 1108 20 19 c12 11 28
33 36 49 13 24 20 29 43 24 15 -2 482 -72 1037 -154z m27967 -621 c293 -177
602 -362 686 -412 83 -50 152 -95 152 -100 0 -4 -185 -623 -411 -1375 -225
-752 -412 -1374 -414 -1382 -4 -12 -15 -15 -45 -12 -35 4 -40 7 -45 36 -3 17
-37 236 -75 486 -39 250 -81 525 -95 610 -14 85 -33 214 -44 285 -11 72 -38
246 -60 388 -23 142 -41 268 -40 280 0 16 14 29 52 47 205 100 144 426 -84
448 -27 2 -49 7 -49 11 0 8 -49 347 -99 696 -23 154 -36 271 -31 273 6 2 20
12 32 22 13 11 26 19 30 20 4 0 247 -144 540 -321z m-22849 -746 c276 -190
837 -578 1247 -861 410 -284 963 -666 1230 -850 267 -184 488 -338 492 -341 4
-3 0 -32 -9 -63 -16 -56 -17 -57 -57 -62 -23 -3 -817 -48 -1766 -101 -949 -52
-1755 -98 -1792 -101 -58 -5 -68 -4 -68 10 0 22 -58 85 -86 92 -19 5 -24 14
-29 57 -3 29 -41 491 -85 1027 -43 536 -84 1035 -91 1108 -7 79 -8 136 -3 141
5 4 38 13 74 20 129 25 306 129 386 227 20 24 41 44 46 44 5 0 236 -156 511
-347z m-1554 208 c106 -84 255 -139 399 -148 79 -5 92 -8 92 -24 0 -24 178
-2192 185 -2254 l6 -51 -36 -12 c-36 -14 -80 -62 -87 -97 -3 -19 -18 -21 -328
-37 -347 -19 -597 -33 -1825 -103 -429 -25 -796 -45 -816 -45 -35 0 -37 2 -49
45 -7 25 -25 65 -41 90 l-28 44 296 313 c163 172 367 387 453 478 86 91 511
540 944 998 433 457 789 832 792 832 4 0 23 -13 43 -29z m23730 -510 c11 -21
41 -57 66 -79 40 -35 44 -43 36 -63 -6 -13 -193 -517 -416 -1119 -223 -602
-419 -1129 -435 -1170 -16 -41 -85 -228 -155 -415 -69 -187 -131 -345 -138
-351 -6 -6 -41 -23 -77 -39 -36 -15 -137 -59 -225 -97 -88 -39 -277 -121 -420
-183 -977 -423 -3387 -1469 -3420 -1484 -22 -10 -85 -38 -140 -61 -55 -23
-122 -52 -150 -65 -139 -62 -334 -145 -341 -144 -5 0 -23 21 -40 47 -16 25
-51 60 -76 76 -26 17 -47 35 -47 40 -1 6 46 118 103 250 57 133 293 681 525
1219 232 538 432 1002 445 1030 57 130 117 268 264 612 87 204 232 542 323
752 l164 383 50 0 c62 0 106 25 128 73 9 19 17 39 17 45 0 5 105 30 233 55
255 51 1077 213 2292 452 435 85 923 181 1085 214 162 32 303 59 312 60 11 1
25 -14 37 -38z m282 -441 c26 -168 57 -366 69 -440 11 -74 32 -207 45 -295 13
-88 56 -362 94 -609 39 -247 70 -450 68 -451 -1 -1 -21 -9 -45 -20 -102 -44
-156 -134 -157 -259 l0 -80 -135 -58 c-74 -33 -243 -106 -375 -163 -132 -57
-370 -160 -529 -229 -159 -70 -291 -125 -292 -123 -2 2 12 43 30 93 99 262
1014 2723 1042 2799 58 160 48 147 96 143 l42 -3 47 -305z m-4487 -375 c17
-25 13 -35 -195 -518 -116 -271 -249 -577 -295 -682 -45 -104 -313 -725 -595
-1380 -282 -654 -561 -1302 -620 -1440 -64 -148 -113 -250 -121 -250 -7 1 -41
5 -75 9 -51 7 -63 12 -63 27 0 15 -220 2273 -235 2409 -2 25 -29 299 -59 610
-31 311 -58 579 -60 597 -4 29 -1 34 32 50 49 24 82 75 82 127 l0 42 1068 211
c587 116 1079 211 1093 212 18 1 32 -7 43 -24z m-23088 -565 c72 -85 179 -213
239 -285 175 -209 309 -369 323 -387 12 -15 10 -23 -18 -61 -31 -44 -60 -121
-60 -162 0 -20 -6 -23 -82 -28 -49 -4 -84 -3 -86 3 -2 5 -13 24 -25 42 -20 29
-58 49 -122 63 -14 3 -329 961 -320 975 4 6 11 8 15 3 4 -4 65 -78 136 -163z
m20612 75 c15 -39 64 -85 92 -85 14 0 21 -9 24 -32 3 -18 69 -681 146 -1473
77 -792 144 -1483 150 -1535 23 -212 60 -597 60 -622 0 -20 -5 -28 -17 -28
-10 0 -45 -13 -78 -28 -60 -29 -113 -72 -150 -124 l-20 -27 -1710 839 c-940
462 -1883 925 -2095 1029 -923 453 -1754 861 -1762 863 -4 2 -1 25 7 52 8 27
15 73 15 102 0 41 4 54 18 58 9 3 148 31 307 61 160 31 1345 265 2635 520
1290 254 2350 463 2355 464 6 0 17 -15 23 -34z m-12542 -622 c3 -10 17 -42 31
-71 23 -47 24 -54 10 -70 -301 -342 -3363 -3716 -3371 -3715 -6 2 -41 13 -78
25 l-67 22 -6 51 c-4 40 -195 2365 -235 2855 -18 228 -40 484 -46 537 -5 50
-4 52 26 68 20 11 39 32 51 61 11 24 23 44 27 45 4 0 819 47 1812 103 993 57
1813 104 1823 105 10 0 20 -7 23 -16z m2121 -113 c879 -66 1625 -122 1658
-125 33 -3 213 -17 400 -31 187 -13 360 -26 385 -28 25 -3 457 -35 961 -72
l917 -68 5 -54 c5 -48 46 -149 79 -194 10 -15 3 -26 -52 -85 -70 -73 -2092
-2123 -2675 -2711 l-242 -244 -41 12 c-74 19 -133 -9 -177 -84 -8 -14 -30 -18
-120 -21 -60 -3 -236 -9 -390 -15 -154 -6 -757 -26 -1340 -45 -583 -19 -1123
-37 -1201 -41 l-141 -6 -20 35 c-13 21 -37 42 -62 53 -23 10 -41 24 -41 32 0
44 221 3589 224 3598 2 6 22 14 44 18 68 10 133 62 167 133 19 39 36 63 47 63
9 0 736 -54 1615 -120z m-1969 -65 c28 -11 52 -24 52 -30 1 -87 -224 -3611
-230 -3613 -31 -11 -77 -52 -90 -79 -9 -21 -22 -33 -35 -33 -11 0 -695 -23
-1520 -50 -825 -27 -1514 -50 -1531 -50 -28 0 -33 4 -38 34 -4 19 -18 50 -31
70 l-24 36 1691 1870 c930 1029 1693 1869 1697 1868 3 -2 30 -12 59 -23z
m-4050 -107 c18 -15 45 -29 61 -33 26 -6 31 -12 36 -48 3 -23 66 -784 140
-1692 74 -907 137 -1676 141 -1707 5 -52 4 -58 -13 -58 -10 0 -38 -12 -62 -26
l-45 -25 -55 54 c-565 547 -3006 2920 -3143 3054 l-186 184 30 58 c17 33 33
80 35 105 5 44 7 46 37 46 29 0 1390 75 1836 101 107 6 407 23 665 38 l470 26
11 -25 c6 -14 25 -38 42 -52z m-3675 -182 c21 -66 64 -127 118 -166 47 -33 89
-48 166 -57 36 -4 54 -11 57 -22 19 -67 187 -1066 182 -1084 -14 -51 -20 -53
-83 -14 -32 19 -95 57 -140 84 l-83 48 0 45 c0 76 -42 127 -115 139 l-37 6
-79 240 c-43 132 -113 344 -156 471 l-77 232 28 32 c15 18 30 45 33 61 6 30
17 33 124 37 l45 2 17 -54z m-443 -9 c20 -42 74 -77 119 -77 l37 0 156 -472
c141 -428 154 -474 139 -485 -9 -7 -22 -13 -29 -13 -7 0 -103 56 -215 123
-111 68 -445 271 -742 452 -297 180 -545 333 -552 339 -9 8 -9 23 1 61 l13 50
439 26 c241 14 480 27 529 27 l90 2 15 -33z m2660 -1787 c930 -904 1687 -1646
1682 -1648 -7 -2 -392 230 -1617 978 -187 114 -601 366 -920 560 -319 194
-590 359 -602 367 -19 13 -20 16 -7 41 8 15 14 48 14 74 0 39 -6 54 -30 82
-37 41 -85 60 -133 51 -32 -6 -35 -5 -41 22 -3 15 -44 249 -91 518 -48 270
-89 500 -91 511 -5 18 2 25 38 38 24 9 54 26 68 36 14 11 28 19 31 17 4 -1
768 -742 1699 -1647z m13525 1135 c545 -268 1087 -535 1205 -592 587 -288 718
-352 1000 -490 168 -83 766 -376 1330 -653 564 -276 1026 -503 1026 -504 1 0
-5 -31 -14 -68 l-16 -67 -80 -5 c-45 -3 -1120 -40 -2391 -81 -1270 -41 -2345
-76 -2387 -79 -76 -4 -76 -4 -88 24 -16 39 -48 67 -94 82 l-40 13 -342 1368
-342 1369 37 15 c55 23 125 78 156 123 16 23 33 39 39 36 6 -2 457 -223 1001
-491z m-16707 123 c318 -193 654 -398 749 -455 170 -103 172 -105 162 -131
-13 -33 -3 -88 22 -123 20 -29 84 -59 124 -59 23 0 29 -14 105 -247 45 -137
225 -684 401 -1218 176 -533 322 -975 324 -982 2 -6 -3 -14 -10 -17 -10 -3
-37 27 -83 92 -38 53 -588 835 -1222 1737 -634 902 -1166 1659 -1183 1682 -30
42 -30 43 -12 63 10 12 25 18 33 15 7 -3 273 -163 590 -357z m28175 261 l28
-40 -1213 -1646 c-667 -905 -1222 -1657 -1234 -1671 -25 -30 -48 -22 -34 11 8
19 95 251 282 757 27 74 85 230 128 345 233 625 368 988 459 1235 56 151 117
313 134 360 l32 85 65 31 c36 18 176 79 310 137 135 58 416 180 625 271 209
91 382 166 385 165 3 0 18 -18 33 -40z m-13030 -13 c54 -41 108 -58 202 -65
l90 -6 342 -1365 c196 -780 338 -1366 332 -1368 -26 -9 -69 -56 -81 -87 l-12
-35 -66 0 c-36 0 -875 -27 -1865 -60 -990 -33 -1832 -60 -1871 -60 -64 0 -72
2 -81 23 -11 25 22 60 732 778 182 184 674 683 1095 1109 420 426 850 862 954
968 105 105 192 192 194 192 2 0 18 -11 35 -24z m11552 -593 c-3 -10 -65 -175
-136 -368 -160 -428 -214 -575 -240 -640 -10 -27 -121 -324 -245 -660 -124
-335 -265 -715 -313 -844 l-86 -234 -70 -1 c-103 -3 -176 -47 -219 -133 -9
-18 -24 -33 -34 -33 -9 0 -102 18 -207 41 -104 22 -255 53 -335 69 -190 39
-500 102 -1771 365 l-1056 218 -7 71 c-4 39 -7 82 -9 95 -2 21 14 30 193 108
107 46 276 119 375 162 178 77 3473 1508 3735 1621 74 33 196 86 270 119 148
65 166 70 155 44z m-25412 -436 c56 -35 116 -72 133 -82 22 -12 34 -29 42 -60
7 -26 24 -53 46 -73 31 -27 36 -38 50 -123 8 -52 27 -157 41 -234 14 -77 39
-216 55 -310 16 -93 79 -451 140 -795 60 -344 112 -638 115 -655 4 -24 3 -26
-4 -10 -6 11 -139 412 -296 890 -158 479 -331 1005 -386 1170 -54 165 -99 304
-99 309 0 16 34 45 48 41 7 -3 58 -33 115 -68z m721 -439 c182 -111 354 -216
381 -233 28 -18 574 -351 1215 -740 641 -390 1181 -719 1201 -731 l36 -22 -16
-62 c-12 -46 -21 -62 -36 -65 -11 -2 -202 -27 -425 -55 -482 -61 -1083 -138
-1678 -214 -239 -31 -440 -56 -447 -56 -7 0 -17 14 -20 32 -5 19 -28 53 -60
84 -53 53 -98 74 -162 74 -18 0 -33 4 -33 10 0 9 -196 1124 -260 1480 -16 91
-43 244 -59 340 -17 96 -37 211 -46 255 -8 44 -15 83 -15 87 0 6 14 9 79 16 7
1 162 -89 345 -200z m19242 -1345 c12 -58 37 -115 70 -161 19 -26 37 -52 40
-59 6 -13 -921 -1223 -937 -1223 -6 0 -819 -108 -1806 -240 -988 -132 -1809
-240 -1824 -240 -15 0 -29 6 -32 14 -9 22 -54 49 -95 55 l-37 6 -199 795 -200
795 28 28 c15 15 32 40 37 56 13 36 24 38 329 46 118 3 289 8 380 11 120 5
2746 94 4202 143 33 1 38 -2 44 -26z m872 -68 c65 -14 639 -133 1277 -265 638
-132 1214 -251 1280 -265 66 -14 247 -51 403 -83 270 -54 282 -57 282 -79 0
-13 -4 -23 -9 -23 -6 0 -108 -13 -228 -30 -120 -16 -285 -38 -368 -49 -82 -11
-742 -98 -1465 -195 -723 -97 -1331 -178 -1350 -180 -19 -3 -104 -14 -189 -26
-84 -12 -156 -19 -159 -16 -6 7 15 776 24 892 l6 72 54 10 c118 24 221 104
265 206 17 38 30 56 42 56 10 0 71 -11 135 -25z m-6082 -121 c21 -45 67 -74
115 -74 l37 0 199 -799 199 -799 -33 -26 c-18 -15 -36 -38 -39 -51 -7 -29 9
-26 -334 -70 -151 -19 -304 -39 -340 -45 -36 -6 -1347 -181 -2915 -390 -1567
-209 -2914 -389 -2993 -400 -79 -11 -145 -20 -147 -20 -2 0 -9 17 -16 38 -17
54 -48 114 -72 140 l-21 23 186 187 c102 103 605 612 1118 1132 738 748 937
944 954 942 97 -15 121 -13 156 10 25 17 39 37 50 71 l15 47 100 1 c55 0 863
26 1795 58 932 32 1757 59 1832 60 l137 1 17 -36z m5439 -93 c28 -11 63 -23
79 -26 l28 -6 -6 -72 c-3 -40 -11 -260 -18 -489 -8 -282 -15 -418 -22 -418 -6
0 -243 -31 -526 -70 -283 -38 -515 -68 -516 -67 -1 1 37 52 84 114 48 61 251
326 452 587 246 321 370 475 380 472 8 -2 38 -13 65 -25z m-9599 -36 c8 -20
11 -42 7 -49 -8 -13 -1163 -1185 -1880 -1906 -314 -316 -355 -354 -370 -342
-10 7 -47 27 -83 45 -61 30 -71 32 -175 32 -104 0 -114 -2 -176 -32 -41 -21
-85 -53 -118 -88 -29 -30 -54 -55 -56 -55 -5 0 -587 329 -594 336 -3 3 37 687
59 1014 11 153 50 796 50 818 0 6 7 12 16 12 53 0 124 66 124 116 0 21 5 22
143 28 146 7 2375 81 2777 92 124 4 227 8 229 10 14 13 34 -1 47 -31z m-3470
-102 c12 -42 32 -69 62 -88 l33 -20 -6 -90 c-3 -49 -12 -196 -20 -325 -8 -129
-31 -498 -50 -820 -20 -321 -37 -585 -38 -587 -5 -4 -3092 1747 -3095 1756 -2
5 2 28 8 50 l11 41 67 1 c37 0 693 22 1457 48 1678 58 1564 56 1571 34z
m-3572 -167 c24 -63 91 -121 163 -142 60 -18 59 -18 182 17 17 4 -9 38 564
-728 360 -480 397 -534 387 -553 -6 -12 -17 -19 -24 -17 -11 5 -128 37 -1451
403 -346 96 -709 197 -805 224 -96 27 -485 135 -865 240 -379 105 -705 196
-722 201 -27 9 -33 16 -33 40 0 17 5 29 13 29 7 0 168 20 357 44 190 25 419
54 510 66 91 11 507 65 925 119 418 55 765 99 771 100 6 1 19 -19 28 -43z
m1275 -523 c432 -245 905 -513 1051 -596 985 -557 1187 -671 1205 -682 17 -11
20 -21 17 -78 -4 -64 -4 -66 -34 -72 -16 -4 -45 -20 -63 -36 l-33 -30 -124 35
c-68 19 -370 103 -673 187 -302 83 -667 184 -810 224 l-260 72 -6 34 c-8 50
-29 77 -76 100 -32 16 -52 19 -86 14 l-44 -7 -461 616 c-254 339 -467 625
-474 635 -10 17 -9 23 6 40 17 19 20 19 49 5 16 -9 384 -216 816 -461z m19265
265 c3 -13 2 -25 -2 -29 -4 -3 -200 -114 -437 -246 -236 -133 -774 -433 -1195
-668 -421 -235 -918 -513 -1105 -618 -187 -104 -419 -234 -515 -287 -96 -54
-267 -149 -380 -213 -113 -63 -207 -114 -209 -112 -6 7 51 1680 58 1687 3 3
686 97 1516 208 831 111 1670 223 1865 250 195 26 365 48 376 49 15 1 24 -6
28 -21z m-79 -127 c-10 -9 -227 -172 -1240 -926 -251 -187 -883 -658 -1403
-1046 l-947 -706 -29 24 c-37 31 -92 59 -134 68 l-34 7 7 176 c4 98 10 206 14
241 l6 64 150 84 c145 82 2360 1321 2875 1609 140 78 363 203 495 277 132 75
242 136 245 136 2 1 0 -3 -5 -8z m-22262 -227 c446 -124 862 -239 922 -256 61
-16 567 -156 1125 -311 l1014 -282 8 -39 c19 -92 71 -133 159 -124 l54 6 850
-1136 c468 -624 861 -1150 874 -1169 l25 -34 -25 -24 -24 -25 -2070 1281
c-1139 704 -2445 1512 -2902 1796 -709 438 -869 543 -828 543 3 0 371 -102
818 -226z m18507 -191 c0 -115 -50 -1599 -56 -1630 -4 -27 -14 -37 -67 -66
-34 -19 -98 -54 -142 -79 -44 -24 -156 -87 -250 -140 -93 -52 -871 -487 -1728
-966 -857 -480 -1572 -879 -1589 -888 -29 -15 -32 -15 -50 4 -20 20 -19 22
414 583 685 889 1467 1906 1927 2504 233 303 433 560 444 572 20 19 75 28 542
91 286 38 528 70 538 71 14 1 17 -8 17 -56z m-1150 -98 c0 -5 -375 -495 -735
-960 -73 -93 -316 -408 -540 -700 -225 -291 -420 -546 -435 -565 -46 -58 -622
-807 -850 -1104 -118 -153 -219 -280 -225 -282 -6 -3 -28 2 -48 11 -20 8 -56
15 -81 15 l-44 0 -277 1108 c-153 609 -318 1271 -369 1470 l-91 364 28 20 c34
25 57 68 57 108 0 17 6 33 13 35 6 2 68 11 137 20 100 13 3425 459 3453 464 4
0 7 -1 7 -4z m-3879 -549 c14 -50 71 -96 121 -96 22 0 35 -50 391 -1472 346
-1385 367 -1473 350 -1485 -57 -38 -94 -72 -110 -100 -9 -18 -22 -33 -26 -33
-9 0 -1139 330 -1322 386 -66 20 -712 209 -1230 361 -299 87 -1243 365 -1270
374 -16 5 -561 165 -1210 355 -649 190 -1459 428 -1800 528 l-620 183 0 66 0
66 35 6 c19 3 1367 183 2995 400 1628 217 2996 399 3040 406 235 34 631 86
639 85 6 -1 13 -15 17 -30z m-9573 -245 c295 -82 695 -193 887 -246 462 -127
415 -110 415 -151 0 -60 42 -118 92 -129 l29 -7 -6 -81 c-9 -125 -95 -1533
-95 -1556 0 -16 -7 -21 -27 -21 -16 -1 -46 -8 -68 -16 -22 -9 -48 -16 -57 -17
-11 -1 -134 155 -372 473 -196 261 -588 785 -872 1164 -489 652 -515 690 -503
712 7 13 18 24 26 24 7 0 255 -67 551 -149z m1718 -270 c386 -218 356 -199
343 -224 -7 -12 -13 -23 -14 -25 -2 -3 -459 118 -461 121 0 1 -9 24 -18 51
-13 34 -28 54 -52 68 -33 19 -34 22 -34 80 0 33 4 58 8 56 5 -1 107 -59 228
-127z m-24 -202 c62 -17 164 -45 226 -63 l113 -31 3 -95 c3 -123 27 -186 102
-268 39 -43 75 -71 122 -94 63 -31 74 -33 172 -33 120 0 173 15 247 72 l45 35
37 -34 c20 -19 65 -61 101 -94 95 -88 234 -218 240 -224 3 -3 66 -61 140 -130
74 -69 137 -127 140 -130 3 -4 37 -35 75 -70 39 -35 131 -120 204 -189 196
-183 252 -235 496 -461 121 -112 258 -240 305 -284 47 -45 115 -108 150 -141
252 -234 354 -328 415 -386 39 -37 87 -81 107 -98 l37 -32 -20 -40 c-12 -21
-23 -39 -25 -39 -3 0 -773 169 -1712 375 -939 207 -1727 380 -1752 386 l-45
10 -2 58 c-3 127 -92 238 -215 272 -25 6 -38 16 -38 27 0 9 23 379 50 822 27
443 50 808 50 811 0 4 11 10 24 13 14 3 40 24 58 46 18 22 34 40 35 40 2 0 53
-14 115 -31z"/>
<path d="M21680 4317 c-3 -2 -157 -7 -344 -11 -356 -6 -611 -19 -786 -37 -58
-7 -125 -13 -150 -14 -83 -5 -171 -18 -176 -26 -10 -16 85 -32 261 -44 44 -3
107 -8 140 -10 33 -3 119 -7 190 -10 72 -2 263 -10 425 -16 162 -6 729 -11
1260 -11 1034 0 1503 11 2010 47 201 15 285 28 276 44 -5 8 -80 18 -191 27
-27 2 -93 8 -145 14 -117 12 -406 28 -640 36 -233 7 -2124 18 -2130 11z"/>
</g>
</svg>
